999
DXF file: 60HE_plate-ANSI_220705.dxf
999
Pro/ENGINEER 2014000 by Parametric Technology Corporation
  0
SECTION
  2
HEADER
  9
$ACADVER
  1
AC1021
  9
$DWGCODEPAGE
  3
ANSI_950
  9
$EXTMAX
 10
297.0
 20
210.0
 30
0.0
  9
$EXTMIN
 10
0.0
 20
0.0
 30
0.0
  9
$LIMMIN
 10
0.0
 20
0.0
  9
$LIMMAX
 10
297.0
 20
210.0
  9
$VIEWCTR
 10
148.5
 20
105.0
  9
$VIEWSIZE
 40
210.0
  9
$CLAYER
  8
0
  9
$LTSCALE
 40
16.335
  9
$CELTYPE
  6
BYLAYER
  9
$DIMSCALE
 40
1.0
  9
$DIMASZ
 40
3.5
  9
$DIMEXO
 40
1.0
  9
$DIMDLI
 40
11.286
  9
$DIMEXE
 40
1.5
  9
$DIMCEN
 40
2.673
  9
$DIMLFAC
 40
1.0
  9
$DIMBLK
  1
_FILLED
  9
$DIMTXT
 40
3.5
  9
$DIMTOL
 70
1
  9
$DIMLIM
 70
0
  9
$DIMTFAC
 40
1.0
  9
$DIMTP
 40
0.01
  9
$DIMTM
 40
0.01
  9
$DIMGAP
 40
0.625
  9
$DIMDSEP
 70
44
  9
$PDMODE
 70
3
  9
$PDSIZE
 40
8.0
  9
$HANDSEED
  5
3CA
  9
$TILEMODE
 70
1
  9
$MEASUREMENT
 70
1
  9
$INSUNITS
 70
4
  0
ENDSEC
  0
SECTION
  2
CLASSES
  0
CLASS
  1
ACDBDICTIONARYWDFLT
  2
AcDbDictionaryWithDefault
  3
AutoCAD 2000
 90
0
 91
1
280
0
281
0
  0
CLASS
  1
ACDBPLACEHOLDER
  2
AcDbPlaceHolder
  3
AutoCAD 2000
 90
0
 91
1
280
0
281
0
  0
CLASS
  1
LAYOUT
  2
AcDbLayout
  3
AutoCAD 2000
 90
0
 91
0
280
0
281
0
  0
ENDSEC
  0
SECTION
  2
TABLES
  0
TABLE
  2
VPORT
  5
8
100
AcDbSymbolTable
 70
2
  0
VPORT
  5
1F4
100
AcDbSymbolTableRecord
100
AcDbViewportTableRecord
  2
*ACTIVE
 70
0
 10
0.0
 20
0.0
 11
1.0
 21
1.0
 12
148.5
 22
105.0
 13
0.0
 23
0.0
 14
1.0
 24
1.0
 15
0.0
 25
0.0
 16
0.0
 26
0.0
 36
1.0
 17
0.0
 27
0.0
 37
0.0
 40
210.0
 41
1.4142857143
 42
50.0
 43
0.0
 44
0.0
 50
0.0
 51
0.0
 71
0
 72
100
 73
1
 74
1
 75
0
 76
0
 77
0
 78
0
  0
ENDTAB
  0
TABLE
  2
LTYPE
  5
5
100
AcDbSymbolTable
 70
6
  0
LTYPE
  5
14
100
AcDbSymbolTableRecord
100
AcDbLinetypeTableRecord
  2
BYBLOCK
 70
0
  3

 72
65
 73
0
 40
0.0
  0
LTYPE
  5
15
100
AcDbSymbolTableRecord
100
AcDbLinetypeTableRecord
  2
BYLAYER
 70
0
  3

 72
65
 73
0
 40
0.0
  0
LTYPE
  5
16
100
AcDbSymbolTableRecord
100
AcDbLinetypeTableRecord
  2
CONTINUOUS
 70
64
  3
Solid line
 72
65
 73
0
 40
0.0
  0
LTYPE
  5
1F5
100
AcDbSymbolTableRecord
100
AcDbLinetypeTableRecord
  2
CENTER
 70
64
  3
____ _ ____ _ ____ _ ____ _ ____ _ ____ _ ____
 72
65
 73
4
 40
0.6
 49
0.375
 74
0
 49
-0.075
 74
0
 49
0.075
 74
0
 49
-0.075
 74
0
  0
LTYPE
  5
1F6
100
AcDbSymbolTableRecord
100
AcDbLinetypeTableRecord
  2
HIDDEN
 70
64
  3
- - - - - - - - - - - - - - - - - - - -
 72
65
 73
2
 40
0.2
 49
0.1
 74
0
 49
-0.1
 74
0
  0
LTYPE
  5
1F7
100
AcDbSymbolTableRecord
100
AcDbLinetypeTableRecord
  2
PHANTOM
 70
64
  3
_____ _ _ _____ _ _ _____ _ _ _____
 72
65
 73
6
 40
0.8
 49
0.45
 74
0
 49
-0.05
 74
0
 49
0.1
 74
0
 49
-0.05
 74
0
 49
0.1
 74
0
 49
-0.05
 74
0
  0
LTYPE
  5
1F8
100
AcDbSymbolTableRecord
100
AcDbLinetypeTableRecord
  2
DOT
 70
64
  3
. . . . . . . . . . . . . . . . . . . .
 72
65
 73
2
 40
0.2
 49
0.1
 74
0
 49
-0.1
 74
0
  0
LTYPE
  5
1F9
100
AcDbSymbolTableRecord
100
AcDbLinetypeTableRecord
  2
DASHED
 70
64
  3
- - - - - - - - - - - - - - - - - - - -
 72
65
 73
2
 40
0.2
 49
0.1
 74
0
 49
-0.1
 74
0
  0
ENDTAB
  0
TABLE
  2
LAYER
  5
2
100
AcDbSymbolTable
 70
36
  0
LAYER
  5
10
100
AcDbSymbolTableRecord
100
AcDbLayerTableRecord
  2
0
 70
0
 62
7
  6
CONTINUOUS
370
-3
390
F
  0
LAYER
  5
1FA
100
AcDbSymbolTableRecord
100
AcDbLayerTableRecord
  2
DEFAULT_1
 70
0
 62
7
  6
CENTER
370
-3
390
F
  0
LAYER
  5
1FB
100
AcDbSymbolTableRecord
100
AcDbLayerTableRecord
  2
DEFAULT_2
 70
0
 62
8
  6
HIDDEN
370
-3
390
F
  0
LAYER
  5
1FC
100
AcDbSymbolTableRecord
100
AcDbLayerTableRecord
  2
DEFAULT_3
 70
0
 62
7
  6
PHANTOM
370
-3
390
F
  0
LAYER
  5
1FD
100
AcDbSymbolTableRecord
100
AcDbLayerTableRecord
  2
01___PRT_ALL_DTM_PLN
 70
0
 62
7
  6
CONTINUOUS
370
-3
390
F
  0
LAYER
  5
1FE
100
AcDbSymbolTableRecord
100
AcDbLayerTableRecord
  2
01___PRT_DEF_DTM_PLN
 70
0
 62
7
  6
CONTINUOUS
370
-3
390
F
  0
LAYER
  5
1FF
100
AcDbSymbolTableRecord
100
AcDbLayerTableRecord
  2
02___PRT_ALL_AXES
 70
0
 62
7
  6
CONTINUOUS
370
-3
390
F
  0
LAYER
  5
200
100
AcDbSymbolTableRecord
100
AcDbLayerTableRecord
  2
03___PRT_ALL_CURVES
 70
0
 62
7
  6
CONTINUOUS
370
-3
390
F
  0
LAYER
  5
201
100
AcDbSymbolTableRecord
100
AcDbLayerTableRecord
  2
04___PRT_ALL_DTM_PNT
 70
0
 62
7
  6
CONTINUOUS
370
-3
390
F
  0
LAYER
  5
202
100
AcDbSymbolTableRecord
100
AcDbLayerTableRecord
  2
05___PRT_ALL_DTM_CSYS
 70
0
 62
7
  6
CONTINUOUS
370
-3
390
F
  0
LAYER
  5
203
100
AcDbSymbolTableRecord
100
AcDbLayerTableRecord
  2
05___PRT_DEF_DTM_CSYS
 70
0
 62
7
  6
CONTINUOUS
370
-3
390
F
  0
LAYER
  5
204
100
AcDbSymbolTableRecord
100
AcDbLayerTableRecord
  2
06___PRT_ALL_SURFS
 70
0
 62
7
  6
CONTINUOUS
370
-3
390
F
  0
LAYER
  5
205
100
AcDbSymbolTableRecord
100
AcDbLayerTableRecord
  2
3_ALL_SYMBOLS
 70
0
 62
7
  6
CONTINUOUS
370
-3
390
F
  0
ENDTAB
  0
TABLE
  2
STYLE
  5
3
100
AcDbSymbolTable
 70
1
  0
STYLE
  5
11
100
AcDbSymbolTableRecord
100
AcDbTextStyleTableRecord
  2
STANDARD
 70
0
 40
0.0
 41
0.85
 50
0.0
 71
0
 42
0.2
  3
txt
  4

  0
STYLE
  5
206
100
AcDbSymbolTableRecord
100
AcDbTextStyleTableRecord
  2
TEXTSTYLE_1
 70
0
 40
0.0
 41
0.8
 50
0.0
 71
0
 42
0.2
  3
gdt
  4

  0
ENDTAB
  0
TABLE
  2
VIEW
  5
6
100
AcDbSymbolTable
 70
0
  0
ENDTAB
  0
TABLE
  2
UCS
  5
7
100
AcDbSymbolTable
 70
0
  0
ENDTAB
  0
TABLE
  2
APPID
  5
9
100
AcDbSymbolTable
 70
1
  0
APPID
  5
207
100
AcDbSymbolTableRecord
100
AcDbRegAppTableRecord
  2
ACAD
 70
0
  0
ENDTAB
  0
TABLE
  2
BLOCK_RECORD
  5
1
100
AcDbSymbolTable
 70
0
  0
BLOCK_RECORD
  5
208
100
AcDbSymbolTableRecord
100
AcDbBlockTableRecord
  2
*Model_Space
  0
BLOCK_RECORD
  5
209
100
AcDbSymbolTableRecord
100
AcDbBlockTableRecord
  2
*Paper_Space
  0
ENDTAB
  0
TABLE
  2
DIMSTYLE
  5
A
100
AcDbSymbolTable
 70
1
100
AcDbDimStyleTable
 71
0
  0
DIMSTYLE
105
20A
100
AcDbSymbolTableRecord
100
AcDbDimStyleTableRecord
  2
STANDARD
 70
0
  3

  4

 40
1.0
 41
3.5
 42
1.0
 43
0.38
 44
1.5
 45
0.0
 46
0.0
 47
0.01
 48
0.01
140
3.5
141
0.09
142
0.0
143
25.4
144
1.0
145
0.0
146
1.0
147
0.625
 71
1.0
 72
0.0
 73
0
 74
0
 75
0
 76
0
 77
1
 78
8
170
0
171
2
172
0
173
0
174
0
175
0
176
0
177
0
178
0
270
2
271
2
272
2
273
2
274
2
275
0
280
0
281
0
282
0
283
1
284
8
285
0
286
0
287
3
288
0
340
11
278
44
  0
ENDTAB
  0
ENDSEC
  0
SECTION
  2
BLOCKS
  0
BLOCK
  5
20
100
AcDbEntity
  8
0
100
AcDbBlockBegin
  2
*Model_Space
 70
0
 10
0.0
 20
0.0
 30
0.0
  3
*Model_Space
  1

  0
ENDBLK
  5
21
100
AcDbEntity
  8
0
100
AcDbBlockEnd
  0
BLOCK
  5
1C
100
AcDbEntity
  8
0
100
AcDbBlockBegin
  2
*Paper_Space
 70
0
 10
0.0
 20
0.0
 30
0.0
  3
*Paper_Space
  1

  0
ENDBLK
  5
1D
100
AcDbEntity
  8
0
100
AcDbBlockEnd
  0
ENDSEC
  0
SECTION
  2
ENTITIES
  0
LINE
  5
20B
100
AcDbEntity
  8
0
100
AcDbLine
 62
7
  6
CONTINUOUS
 10
0.0
 20
0.0
 11
0.0
 21
210.0
  0
LINE
  5
20C
100
AcDbEntity
  8
0
100
AcDbLine
 62
7
  6
CONTINUOUS
 10
0.0
 20
0.0
 11
297.0
 21
0.0
  0
LINE
  5
20D
100
AcDbEntity
  8
0
100
AcDbLine
 62
7
  6
CONTINUOUS
 10
0.0
 20
210.0
 11
297.0
 21
210.0
  0
LINE
  5
20E
100
AcDbEntity
  8
0
100
AcDbLine
 62
7
  6
CONTINUOUS
 10
297.0
 20
0.0
 11
297.0
 21
210.0
  0
LINE
  5
20F
100
AcDbEntity
  8
0
100
AcDbLine
 62
7
  6
CONTINUOUS
 10
6.7753519849
 20
149.7594368693
 11
6.7753519849
 21
97.060184945
  0
LINE
  5
210
100
AcDbEntity
  8
0
100
AcDbLine
 62
7
  6
CONTINUOUS
 10
6.7753519849
 20
92.060184945
 11
6.7753519849
 21
57.7594368931
  0
LINE
  5
211
100
AcDbEntity
  8
0
100
AcDbLine
 62
7
  6
CONTINUOUS
 10
8.9243042989
 20
134.8610268392
 11
8.9243042989
 21
148.8606621931
  0
LINE
  5
212
100
AcDbEntity
  8
0
100
AcDbLine
 62
7
  6
CONTINUOUS
 10
11.3055542983
 20
58.6610322412
 11
11.3055542983
 21
72.6606622121
  0
LINE
  5
213
100
AcDbEntity
  8
0
100
AcDbLine
 62
7
  6
CONTINUOUS
 10
11.7313573344
 20
84.2113029936
 11
11.7313573344
 21
87.0102492887
  0
LINE
  5
214
100
AcDbEntity
  8
0
100
AcDbLine
 62
7
  6
CONTINUOUS
 10
12.5554457063
 20
77.9413906993
 11
12.5554457063
 21
84.2113029936
  0
LINE
  5
215
100
AcDbEntity
  8
0
100
AcDbLine
 62
7
  6
CONTINUOUS
 10
12.5554457063
 20
87.0102492887
 11
12.5554457063
 21
90.2416842584
  0
LINE
  5
216
100
AcDbEntity
  8
0
100
AcDbLine
 62
7
  6
CONTINUOUS
 10
13.6882146337
 20
115.811026844
 11
13.6882146337
 21
129.8106621978
  0
LINE
  5
217
100
AcDbEntity
  8
0
100
AcDbLine
 62
7
  6
CONTINUOUS
 10
14.2805234409
 20
76.7412378574
 11
14.2805234409
 21
77.9413906993
  0
LINE
  5
218
100
AcDbEntity
  8
0
100
AcDbLine
 62
7
  6
CONTINUOUS
 10
16.0694646331
 20
96.7596218958
 11
16.0694646331
 21
110.7606568196
  0
LINE
  5
219
100
AcDbEntity
  8
0
100
AcDbLine
 62
7
  6
CONTINUOUS
 10
17.5797083665
 20
77.9413906993
 11
17.5797083665
 21
76.7412378574
  0
LINE
  5
21A
100
AcDbEntity
  8
0
100
AcDbLine
 62
7
  6
CONTINUOUS
 10
19.306207203
 20
90.2416842584
 11
19.306207203
 21
87.0102492887
  0
LINE
  5
21B
100
AcDbEntity
  8
0
100
AcDbLine
 62
7
  6
CONTINUOUS
 10
19.306207203
 20
82.4117896646
 11
19.306207203
 21
77.9413906993
  0
LINE
  5
21C
100
AcDbEntity
  8
0
100
AcDbLine
 62
7
  6
CONTINUOUS
 10
20.830554296
 20
77.711376746
 11
20.830554296
 21
82.4117896646
  0
LINE
  5
21D
100
AcDbEntity
  8
0
100
AcDbLine
 62
7
  6
CONTINUOUS
 10
20.830554296
 20
87.0102492887
 11
20.830554296
 21
91.7106622073
  0
LINE
  5
21E
100
AcDbEntity
  8
0
100
AcDbLine
 62
7
  6
CONTINUOUS
 10
22.9253553717
 20
148.8606621931
 11
22.9253553717
 21
134.8610268392
  0
LINE
  5
21F
100
AcDbEntity
  8
0
100
AcDbLine
 62
7
  6
CONTINUOUS
 10
25.3066053711
 20
72.6606622121
 11
25.3066053711
 21
58.6610322412
  0
LINE
  5
220
100
AcDbEntity
  8
0
100
AcDbLine
 62
7
  6
CONTINUOUS
 10
27.6878446046
 20
129.8106621978
 11
27.6878446046
 21
115.811026844
  0
LINE
  5
221
100
AcDbEntity
  8
0
100
AcDbLine
 62
7
  6
CONTINUOUS
 10
27.9743042942
 20
134.8610268392
 11
27.9743042942
 21
148.8606621931
  0
LINE
  5
222
100
AcDbEntity
  8
0
100
AcDbLine
 62
7
  6
CONTINUOUS
 10
30.069094604
 20
110.7606568196
 11
30.069094604
 21
96.7596218958
  0
LINE
  5
223
100
AcDbEntity
  8
0
100
AcDbLine
 62
7
  6
CONTINUOUS
 10
34.8298397573
 20
91.7106622073
 11
34.8298397573
 21
87.0102492887
  0
LINE
  5
224
100
AcDbEntity
  8
0
100
AcDbLine
 62
7
  6
CONTINUOUS
 10
34.8298397573
 20
82.4117896646
 11
34.8298397573
 21
77.711376746
  0
LINE
  5
225
100
AcDbEntity
  8
0
100
AcDbLine
 62
7
  6
CONTINUOUS
 10
35.1180542924
 20
58.6610322412
 11
35.1180542924
 21
72.6606622121
  0
LINE
  5
226
100
AcDbEntity
  8
0
100
AcDbLine
 62
7
  6
CONTINUOUS
 10
36.3552419108
 20
77.9413906993
 11
36.3552419108
 21
82.4117896646
  0
LINE
  5
227
100
AcDbEntity
  8
0
100
AcDbLine
 62
7
  6
CONTINUOUS
 10
36.3552419108
 20
87.0102492887
 11
36.3552419108
 21
90.2416842584
  0
LINE
  5
228
100
AcDbEntity
  8
0
100
AcDbLine
 62
7
  6
CONTINUOUS
 10
37.4993042918
 20
115.811026844
 11
37.4993042918
 21
129.8106621978
  0
LINE
  5
229
100
AcDbEntity
  8
0
100
AcDbLine
 62
7
  6
CONTINUOUS
 10
38.0792645849
 20
76.7412378574
 11
38.0792645849
 21
77.9413906993
  0
LINE
  5
22A
100
AcDbEntity
  8
0
100
AcDbLine
 62
7
  6
CONTINUOUS
 10
41.3798490805
 20
77.9413906993
 11
41.3798490805
 21
76.7412378574
  0
LINE
  5
22B
100
AcDbEntity
  8
0
100
AcDbLine
 62
7
  6
CONTINUOUS
 10
41.9753553669
 20
148.8606621931
 11
41.9753553669
 21
134.8610268392
  0
LINE
  5
22C
100
AcDbEntity
  8
0
100
AcDbLine
 62
7
  6
CONTINUOUS
 10
42.2632146266
 20
96.7596218958
 11
42.2632146266
 21
110.7606568196
  0
LINE
  5
22D
100
AcDbEntity
  8
0
100
AcDbLine
 62
7
  6
CONTINUOUS
 10
43.106347917
 20
90.2416842584
 11
43.106347917
 21
87.0102492887
  0
LINE
  5
22E
100
AcDbEntity
  8
0
100
AcDbLine
 62
7
  6
CONTINUOUS
 10
43.106347917
 20
84.2113029936
 11
43.106347917
 21
77.9413906993
  0
LINE
  5
22F
100
AcDbEntity
  8
0
100
AcDbLine
 62
7
  6
CONTINUOUS
 10
43.9304470548
 20
87.0102492887
 11
43.9304470548
 21
84.2113029936
  0
LINE
  5
230
100
AcDbEntity
  8
0
100
AcDbLine
 62
7
  6
CONTINUOUS
 10
47.0242935235
 20
134.8610268392
 11
47.0242935235
 21
148.8606621931
  0
LINE
  5
231
100
AcDbEntity
  8
0
100
AcDbLine
 62
7
  6
CONTINUOUS
 10
49.1176842633
 20
72.6606622121
 11
49.1176842633
 21
58.6610322412
  0
LINE
  5
232
100
AcDbEntity
  8
0
100
AcDbLine
 62
7
  6
CONTINUOUS
 10
51.4989342627
 20
129.8106621978
 11
51.4989342627
 21
115.811026844
  0
LINE
  5
233
100
AcDbEntity
  8
0
100
AcDbLine
 62
7
  6
CONTINUOUS
 10
51.7882253901
 20
77.7110322365
 11
51.7882253901
 21
91.7106622073
  0
LINE
  5
234
100
AcDbEntity
  8
0
100
AcDbLine
 62
7
  6
CONTINUOUS
 10
56.2628445974
 20
110.7606568196
 11
56.2628445974
 21
96.7596218958
  0
LINE
  5
235
100
AcDbEntity
  8
0
100
AcDbLine
 62
7
  6
CONTINUOUS
 10
56.549304287
 20
115.811026844
 11
56.549304287
 21
129.8106621978
  0
LINE
  5
236
100
AcDbEntity
  8
0
100
AcDbLine
 62
7
  6
CONTINUOUS
 10
58.9305542864
 20
58.6610322412
 11
58.9305542864
 21
72.6606622121
  0
LINE
  5
237
100
AcDbEntity
  8
0
100
AcDbLine
 62
7
  6
CONTINUOUS
 10
61.0253445962
 20
148.8606621931
 11
61.0253445962
 21
134.8610268392
  0
LINE
  5
238
100
AcDbEntity
  8
0
100
AcDbLine
 62
7
  6
CONTINUOUS
 10
61.3103885669
 20
96.7596218958
 11
61.3103885669
 21
110.7606568196
  0
LINE
  5
239
100
AcDbEntity
  8
0
100
AcDbLine
 62
7
  6
CONTINUOUS
 10
65.787855361
 20
91.7106622073
 11
65.787855361
 21
77.7110322365
  0
LINE
  5
23A
100
AcDbEntity
  8
0
100
AcDbLine
 62
7
  6
CONTINUOUS
 10
66.0743042846
 20
134.8610268392
 11
66.0743042846
 21
148.8606621931
  0
LINE
  5
23B
100
AcDbEntity
  8
0
100
AcDbLine
 62
7
  6
CONTINUOUS
 10
70.5503499768
 20
129.8106621978
 11
70.5503499768
 21
115.811026844
  0
LINE
  5
23C
100
AcDbEntity
  8
0
100
AcDbLine
 62
7
  6
CONTINUOUS
 10
70.8382146194
 20
77.7110322365
 11
70.8382146194
 21
91.7106622073
  0
LINE
  5
23D
100
AcDbEntity
  8
0
100
AcDbLine
 62
7
  6
CONTINUOUS
 10
72.9315999762
 20
72.6606622121
 11
72.9315999762
 21
58.6610322412
  0
LINE
  5
23E
100
AcDbEntity
  8
0
100
AcDbLine
 62
7
  6
CONTINUOUS
 10
75.3114342567
 20
110.7606568196
 11
75.3114342567
 21
96.7596218958
  0
LINE
  5
23F
100
AcDbEntity
  8
0
100
AcDbLine
 62
7
  6
CONTINUOUS
 10
75.5993042823
 20
115.811026844
 11
75.5993042823
 21
129.8106621978
  0
LINE
  5
240
100
AcDbEntity
  8
0
100
AcDbLine
 62
7
  6
CONTINUOUS
 10
80.0739396385
 20
148.8606621931
 11
80.0739396385
 21
134.8610268392
  0
LINE
  5
241
100
AcDbEntity
  8
0
100
AcDbLine
 62
7
  6
CONTINUOUS
 10
80.3617988981
 20
96.7596218958
 11
80.3617988981
 21
110.7606568196
  0
LINE
  5
242
100
AcDbEntity
  8
0
100
AcDbLine
 62
7
  6
CONTINUOUS
 10
83.1702784184
 20
66.1607359645
 11
83.1702784184
 21
63.3603793334
  0
LINE
  5
243
100
AcDbEntity
  8
0
100
AcDbLine
 62
7
  6
CONTINUOUS
 10
83.9943667903
 20
72.4306590248
 11
83.9943667903
 21
66.1607359645
  0
LINE
  5
244
100
AcDbEntity
  8
0
100
AcDbLine
 62
7
  6
CONTINUOUS
 10
83.9943667903
 20
63.3603793334
 11
83.9943667903
 21
60.1303546998
  0
LINE
  5
245
100
AcDbEntity
  8
0
100
AcDbLine
 62
7
  6
CONTINUOUS
 10
84.8378445903
 20
91.7106622073
 11
84.8378445903
 21
77.7110322365
  0
LINE
  5
246
100
AcDbEntity
  8
0
100
AcDbLine
 62
7
  6
CONTINUOUS
 10
85.1243042799
 20
134.8610268392
 11
85.1243042799
 21
148.8606621931
  0
LINE
  5
247
100
AcDbEntity
  8
0
100
AcDbLine
 62
7
  6
CONTINUOUS
 10
85.719433759
 20
73.6308011008
 11
85.719433759
 21
72.4306590248
  0
LINE
  5
248
100
AcDbEntity
  8
0
100
AcDbLine
 62
7
  6
CONTINUOUS
 10
89.0200290205
 20
72.4306590248
 11
89.0200290205
 21
73.6308011008
  0
LINE
  5
249
100
AcDbEntity
  8
0
100
AcDbLine
 62
7
  6
CONTINUOUS
 10
89.6003499721
 20
129.8106621978
 11
89.6003499721
 21
115.811026844
  0
LINE
  5
24A
100
AcDbEntity
  8
0
100
AcDbLine
 62
7
  6
CONTINUOUS
 10
89.8882146147
 20
77.7110322365
 11
89.8882146147
 21
91.7106622073
  0
LINE
  5
24B
100
AcDbEntity
  8
0
100
AcDbLine
 62
7
  6
CONTINUOUS
 10
90.7440516947
 20
60.1303546998
 11
90.7440516947
 21
63.3603793334
  0
LINE
  5
24C
100
AcDbEntity
  8
0
100
AcDbLine
 62
7
  6
CONTINUOUS
 10
90.7440516947
 20
67.9602492935
 11
90.7440516947
 21
72.4306590248
  0
LINE
  5
24D
100
AcDbEntity
  8
0
100
AcDbLine
 62
7
  6
CONTINUOUS
 10
94.3614342519
 20
110.7606568196
 11
94.3614342519
 21
96.7596218958
  0
LINE
  5
24E
100
AcDbEntity
  8
0
100
AcDbLine
 62
7
  6
CONTINUOUS
 10
94.6493096605
 20
115.811026844
 11
94.6493096605
 21
129.8106621978
  0
LINE
  5
24F
100
AcDbEntity
  8
0
100
AcDbLine
 62
7
  6
CONTINUOUS
 10
99.1253445867
 20
148.8606621931
 11
99.1253445867
 21
134.8610268392
  0
LINE
  5
250
100
AcDbEntity
  8
0
100
AcDbLine
 62
7
  6
CONTINUOUS
 10
99.4117935104
 20
96.7596218958
 11
99.4117935104
 21
110.7606568196
  0
LINE
  5
251
100
AcDbEntity
  8
0
100
AcDbLine
 62
7
  6
CONTINUOUS
 10
103.8878445855
 20
91.7106622073
 11
103.8878445855
 21
77.7110322365
  0
LINE
  5
252
100
AcDbEntity
  8
0
100
AcDbLine
 62
7
  6
CONTINUOUS
 10
104.1742935092
 20
134.8610268392
 11
104.1742935092
 21
148.8606621931
  0
LINE
  5
253
100
AcDbEntity
  8
0
100
AcDbLine
 62
7
  6
CONTINUOUS
 10
108.6503553503
 20
129.8106621978
 11
108.6503553503
 21
115.811026844
  0
LINE
  5
254
100
AcDbEntity
  8
0
100
AcDbLine
 62
7
  6
CONTINUOUS
 10
108.936793508
 20
77.7110322365
 11
108.936793508
 21
91.7106622073
  0
LINE
  5
255
100
AcDbEntity
  8
0
100
AcDbLine
 62
7
  6
CONTINUOUS
 10
8.2753519849
 20
56.2594368931
 11
290.2753519136
 21
56.2594368931
  0
LINE
  5
256
100
AcDbEntity
  8
0
100
AcDbLine
 62
7
  6
CONTINUOUS
 10
287.2426842037
 20
58.6610322412
 11
273.2430434669
 21
58.6610322412
  0
LINE
  5
257
100
AcDbEntity
  8
0
100
AcDbLine
 62
7
  6
CONTINUOUS
 10
263.4301842097
 20
58.6610322412
 11
249.4305434729
 21
58.6610322412
  0
LINE
  5
258
100
AcDbEntity
  8
0
100
AcDbLine
 62
7
  6
CONTINUOUS
 10
239.6191053175
 20
58.6610322412
 11
225.6194861126
 21
58.6610322412
  0
LINE
  5
259
100
AcDbEntity
  8
0
100
AcDbLine
 62
7
  6
CONTINUOUS
 10
215.8051842216
 20
58.6610322412
 11
201.8055434848
 21
58.6610322412
  0
LINE
  5
25A
100
AcDbEntity
  8
0
100
AcDbLine
 62
7
  6
CONTINUOUS
 10
72.9315999762
 20
58.6610322412
 11
58.9305542864
 21
58.6610322412
  0
LINE
  5
25B
100
AcDbEntity
  8
0
100
AcDbLine
 62
7
  6
CONTINUOUS
 10
49.1176842633
 20
58.6610322412
 11
35.1180542924
 21
58.6610322412
  0
LINE
  5
25C
100
AcDbEntity
  8
0
100
AcDbLine
 62
7
  6
CONTINUOUS
 10
25.3066053711
 20
58.6610322412
 11
11.3055542983
 21
58.6610322412
  0
LINE
  5
25D
100
AcDbEntity
  8
0
100
AcDbLine
 62
7
  6
CONTINUOUS
 10
130.3694646045
 20
58.6613767508
 11
144.3687392999
 21
58.6613767508
  0
LINE
  5
25E
100
AcDbEntity
  8
0
100
AcDbLine
 62
7
  6
CONTINUOUS
 10
83.9943667903
 20
60.1303546998
 11
90.7440516947
 21
60.1303546998
  0
LINE
  5
25F
100
AcDbEntity
  8
0
100
AcDbLine
 62
7
  6
CONTINUOUS
 10
183.9945021023
 20
60.1303546998
 11
190.7438478801
 21
60.1303546998
  0
LINE
  5
260
100
AcDbEntity
  8
0
100
AcDbLine
 62
7
  6
CONTINUOUS
 10
83.1702784184
 20
63.3603793334
 11
83.9943667903
 21
63.3603793334
  0
LINE
  5
261
100
AcDbEntity
  8
0
100
AcDbLine
 62
7
  6
CONTINUOUS
 10
90.7440516947
 20
63.3603793334
 11
130.3694646045
 21
63.3603793334
  0
LINE
  5
262
100
AcDbEntity
  8
0
100
AcDbLine
 62
7
  6
CONTINUOUS
 10
144.3687392999
 20
63.3603793334
 11
183.9945021023
 21
63.3603793334
  0
LINE
  5
263
100
AcDbEntity
  8
0
100
AcDbLine
 62
7
  6
CONTINUOUS
 10
190.7438478801
 20
63.3603793334
 11
191.5693465879
 21
63.3603793334
  0
LINE
  5
264
100
AcDbEntity
  8
0
100
AcDbLine
 62
7
  6
CONTINUOUS
 10
113.4114342472
 20
110.7606568196
 11
113.4114342472
 21
96.7596218958
  0
LINE
  5
265
100
AcDbEntity
  8
0
100
AcDbLine
 62
7
  6
CONTINUOUS
 10
113.6992935068
 20
115.811026844
 11
113.6992935068
 21
129.8106621978
  0
LINE
  5
266
100
AcDbEntity
  8
0
100
AcDbLine
 62
7
  6
CONTINUOUS
 10
118.175333816
 20
148.8606621931
 11
118.175333816
 21
134.8610268392
  0
LINE
  5
267
100
AcDbEntity
  8
0
100
AcDbLine
 62
7
  6
CONTINUOUS
 10
118.4603939356
 20
96.7596218958
 11
118.4603939356
 21
110.7606568196
  0
LINE
  5
268
100
AcDbEntity
  8
0
100
AcDbLine
 62
7
  6
CONTINUOUS
 10
191.5693465879
 20
66.1607359645
 11
190.7438478801
 21
66.1607359645
  0
LINE
  5
269
100
AcDbEntity
  8
0
100
AcDbLine
 62
7
  6
CONTINUOUS
 10
83.9943667903
 20
66.1607359645
 11
83.1702784184
 21
66.1607359645
  0
LINE
  5
26A
100
AcDbEntity
  8
0
100
AcDbLine
 62
7
  6
CONTINUOUS
 10
183.9945021023
 20
67.9602492935
 11
144.3687392999
 21
67.9602492935
  0
LINE
  5
26B
100
AcDbEntity
  8
0
100
AcDbLine
 62
7
  6
CONTINUOUS
 10
130.3694646045
 20
67.9602492935
 11
90.7440516947
 21
67.9602492935
  0
LINE
  5
26C
100
AcDbEntity
  8
0
100
AcDbLine
 62
7
  6
CONTINUOUS
 10
190.7438478801
 20
72.4306590248
 11
189.0187647625
 21
72.4306590248
  0
LINE
  5
26D
100
AcDbEntity
  8
0
100
AcDbLine
 62
7
  6
CONTINUOUS
 10
185.7195906029
 20
72.4306590248
 11
183.9945021023
 21
72.4306590248
  0
LINE
  5
26E
100
AcDbEntity
  8
0
100
AcDbLine
 62
7
  6
CONTINUOUS
 10
90.7440516947
 20
72.4306590248
 11
89.0200290205
 21
72.4306590248
  0
LINE
  5
26F
100
AcDbEntity
  8
0
100
AcDbLine
 62
7
  6
CONTINUOUS
 10
85.719433759
 20
72.4306590248
 11
83.9943667903
 21
72.4306590248
  0
LINE
  5
270
100
AcDbEntity
  8
0
100
AcDbLine
 62
7
  6
CONTINUOUS
 10
144.3687392999
 20
72.6606622121
 11
130.3694646045
 21
72.6606622121
  0
LINE
  5
271
100
AcDbEntity
  8
0
100
AcDbLine
 62
7
  6
CONTINUOUS
 10
11.3055542983
 20
72.6606622121
 11
25.3066053711
 21
72.6606622121
  0
LINE
  5
272
100
AcDbEntity
  8
0
100
AcDbLine
 62
7
  6
CONTINUOUS
 10
35.1180542924
 20
72.6606622121
 11
49.1176842633
 21
72.6606622121
  0
LINE
  5
273
100
AcDbEntity
  8
0
100
AcDbLine
 62
7
  6
CONTINUOUS
 10
58.9305542864
 20
72.6606622121
 11
72.9315999762
 21
72.6606622121
  0
LINE
  5
274
100
AcDbEntity
  8
0
100
AcDbLine
 62
7
  6
CONTINUOUS
 10
201.8055434848
 20
72.6606622121
 11
215.8051842216
 21
72.6606622121
  0
LINE
  5
275
100
AcDbEntity
  8
0
100
AcDbLine
 62
7
  6
CONTINUOUS
 10
225.6194861126
 20
72.6606622121
 11
239.6191053175
 21
72.6606622121
  0
LINE
  5
276
100
AcDbEntity
  8
0
100
AcDbLine
 62
7
  6
CONTINUOUS
 10
249.4305434729
 20
72.6606622121
 11
263.4301842097
 21
72.6606622121
  0
LINE
  5
277
100
AcDbEntity
  8
0
100
AcDbLine
 62
7
  6
CONTINUOUS
 10
273.2430434669
 20
72.6606622121
 11
287.2426842037
 21
72.6606622121
  0
LINE
  5
278
100
AcDbEntity
  8
0
100
AcDbLine
 62
7
  6
CONTINUOUS
 10
189.0187647625
 20
73.6308011008
 11
185.7195906029
 21
73.6308011008
  0
LINE
  5
279
100
AcDbEntity
  8
0
100
AcDbLine
 62
7
  6
CONTINUOUS
 10
89.0200290205
 20
73.6308011008
 11
85.719433759
 21
73.6308011008
  0
LINE
  5
27A
100
AcDbEntity
  8
0
100
AcDbLine
 62
7
  6
CONTINUOUS
 10
122.9364342448
 20
91.7106622073
 11
122.9364342448
 21
77.7110322365
  0
LINE
  5
27B
100
AcDbEntity
  8
0
100
AcDbLine
 62
7
  6
CONTINUOUS
 10
123.2242935044
 20
134.8610268392
 11
123.2242935044
 21
148.8606621931
  0
LINE
  5
27C
100
AcDbEntity
  8
0
100
AcDbLine
 62
7
  6
CONTINUOUS
 10
127.6989342436
 20
129.8106621978
 11
127.6989342436
 21
115.811026844
  0
LINE
  5
27D
100
AcDbEntity
  8
0
100
AcDbLine
 62
7
  6
CONTINUOUS
 10
127.9882146051
 20
77.7110322365
 11
127.9882146051
 21
91.7106622073
  0
LINE
  5
27E
100
AcDbEntity
  8
0
100
AcDbLine
 62
7
  6
CONTINUOUS
 10
130.3694646045
 20
72.6606622121
 11
130.3694646045
 21
67.9602492935
  0
LINE
  5
27F
100
AcDbEntity
  8
0
100
AcDbLine
 62
7
  6
CONTINUOUS
 10
130.3694646045
 20
63.3603793334
 11
130.3694646045
 21
58.6613767508
  0
LINE
  5
280
100
AcDbEntity
  8
0
100
AcDbLine
 62
7
  6
CONTINUOUS
 10
279.5048490209
 20
76.7412378574
 11
276.2042537594
 21
76.7412378574
  0
LINE
  5
281
100
AcDbEntity
  8
0
100
AcDbLine
 62
7
  6
CONTINUOUS
 10
255.7047083069
 20
76.7412378574
 11
252.4055126155
 21
76.7412378574
  0
LINE
  5
282
100
AcDbEntity
  8
0
100
AcDbLine
 62
7
  6
CONTINUOUS
 10
41.3798490805
 20
76.7412378574
 11
38.0792645849
 21
76.7412378574
  0
LINE
  5
283
100
AcDbEntity
  8
0
100
AcDbLine
 62
7
  6
CONTINUOUS
 10
17.5797083665
 20
76.7412378574
 11
14.2805234409
 21
76.7412378574
  0
LINE
  5
284
100
AcDbEntity
  8
0
100
AcDbLine
 62
7
  6
CONTINUOUS
 10
237.2378553181
 20
77.7110322365
 11
223.2382361132
 21
77.7110322365
  0
LINE
  5
285
100
AcDbEntity
  8
0
100
AcDbLine
 62
7
  6
CONTINUOUS
 10
218.186434221
 20
77.7110322365
 11
204.1867934842
 21
77.7110322365
  0
LINE
  5
286
100
AcDbEntity
  8
0
100
AcDbLine
 62
7
  6
CONTINUOUS
 10
199.1378337958
 20
77.7110322365
 11
185.1382038249
 21
77.7110322365
  0
LINE
  5
287
100
AcDbEntity
  8
0
100
AcDbLine
 62
7
  6
CONTINUOUS
 10
180.0878338005
 20
77.7110322365
 11
166.0882038297
 21
77.7110322365
  0
LINE
  5
288
100
AcDbEntity
  8
0
100
AcDbLine
 62
7
  6
CONTINUOUS
 10
161.0364342353
 20
77.7110322365
 11
147.0368042644
 21
77.7110322365
  0
LINE
  5
289
100
AcDbEntity
  8
0
100
AcDbLine
 62
7
  6
CONTINUOUS
 10
141.987844576
 20
77.7110322365
 11
127.9882146051
 21
77.7110322365
  0
LINE
  5
28A
100
AcDbEntity
  8
0
100
AcDbLine
 62
7
  6
CONTINUOUS
 10
122.9364342448
 20
77.7110322365
 11
108.936793508
 21
77.7110322365
  0
LINE
  5
28B
100
AcDbEntity
  8
0
100
AcDbLine
 62
7
  6
CONTINUOUS
 10
103.8878445855
 20
77.7110322365
 11
89.8882146147
 21
77.7110322365
  0
LINE
  5
28C
100
AcDbEntity
  8
0
100
AcDbLine
 62
7
  6
CONTINUOUS
 10
84.8378445903
 20
77.7110322365
 11
70.8382146194
 21
77.7110322365
  0
LINE
  5
28D
100
AcDbEntity
  8
0
100
AcDbLine
 62
7
  6
CONTINUOUS
 10
65.787855361
 20
77.7110322365
 11
51.7882253901
 21
77.7110322365
  0
LINE
  5
28E
100
AcDbEntity
  8
0
100
AcDbLine
 62
7
  6
CONTINUOUS
 10
272.9548181659
 20
77.711376746
 11
258.9555434705
 21
77.711376746
  0
LINE
  5
28F
100
AcDbEntity
  8
0
100
AcDbLine
 62
7
  6
CONTINUOUS
 10
34.8298397573
 20
77.711376746
 11
20.830554296
 21
77.711376746
  0
LINE
  5
290
100
AcDbEntity
  8
0
100
AcDbLine
 62
7
  6
CONTINUOUS
 10
281.2299375215
 20
77.9413906993
 11
279.5048490209
 21
77.9413906993
  0
LINE
  5
291
100
AcDbEntity
  8
0
100
AcDbLine
 62
7
  6
CONTINUOUS
 10
276.2042537594
 20
77.9413906993
 11
274.4802633831
 21
77.9413906993
  0
LINE
  5
292
100
AcDbEntity
  8
0
100
AcDbLine
 62
7
  6
CONTINUOUS
 10
257.4297752756
 20
77.9413906993
 11
255.7047083069
 21
77.9413906993
  0
LINE
  5
293
100
AcDbEntity
  8
0
100
AcDbLine
 62
7
  6
CONTINUOUS
 10
252.4055126155
 20
77.9413906993
 11
250.6804671786
 21
77.9413906993
  0
LINE
  5
294
100
AcDbEntity
  8
0
100
AcDbLine
 62
7
  6
CONTINUOUS
 10
43.106347917
 20
77.9413906993
 11
41.3798490805
 21
77.9413906993
  0
LINE
  5
295
100
AcDbEntity
  8
0
100
AcDbLine
 62
7
  6
CONTINUOUS
 10
38.0792645849
 20
77.9413906993
 11
36.3552419108
 21
77.9413906993
  0
LINE
  5
296
100
AcDbEntity
  8
0
100
AcDbLine
 62
7
  6
CONTINUOUS
 10
19.306207203
 20
77.9413906993
 11
17.5797083665
 21
77.9413906993
  0
LINE
  5
297
100
AcDbEntity
  8
0
100
AcDbLine
 62
7
  6
CONTINUOUS
 10
14.2805234409
 20
77.9413906993
 11
12.5554457063
 21
77.9413906993
  0
LINE
  5
298
100
AcDbEntity
  8
0
100
AcDbLine
 62
7
  6
CONTINUOUS
 10
274.4802633831
 20
82.4117896646
 11
272.9548181659
 21
82.4117896646
  0
LINE
  5
299
100
AcDbEntity
  8
0
100
AcDbLine
 62
7
  6
CONTINUOUS
 10
258.9555434705
 20
82.4117896646
 11
257.4297752756
 21
82.4117896646
  0
LINE
  5
29A
100
AcDbEntity
  8
0
100
AcDbLine
 62
7
  6
CONTINUOUS
 10
36.3552419108
 20
82.4117896646
 11
34.8298397573
 21
82.4117896646
  0
LINE
  5
29B
100
AcDbEntity
  8
0
100
AcDbLine
 62
7
  6
CONTINUOUS
 10
20.830554296
 20
82.4117896646
 11
19.306207203
 21
82.4117896646
  0
LINE
  5
29C
100
AcDbEntity
  8
0
100
AcDbLine
 62
7
  6
CONTINUOUS
 10
282.0554254634
 20
84.2113029936
 11
281.2299375215
 21
84.2113029936
  0
LINE
  5
29D
100
AcDbEntity
  8
0
100
AcDbLine
 62
7
  6
CONTINUOUS
 10
250.6804671786
 20
84.2113029936
 11
249.8563572749
 21
84.2113029936
  0
LINE
  5
29E
100
AcDbEntity
  8
0
100
AcDbLine
 62
7
  6
CONTINUOUS
 10
43.9304470548
 20
84.2113029936
 11
43.106347917
 21
84.2113029936
  0
LINE
  5
29F
100
AcDbEntity
  8
0
100
AcDbLine
 62
7
  6
CONTINUOUS
 10
12.5554457063
 20
84.2113029936
 11
11.7313573344
 21
84.2113029936
  0
LINE
  5
2A0
100
AcDbEntity
  8
0
100
AcDbLine
 62
7
  6
CONTINUOUS
 10
132.4624893029
 20
110.7606568196
 11
132.4624893029
 21
107.5094368812
  0
LINE
  5
2A1
100
AcDbEntity
  8
0
100
AcDbLine
 62
7
  6
CONTINUOUS
 10
132.4624893029
 20
100.0094368812
 11
132.4624893029
 21
96.7596218958
  0
LINE
  5
2A2
100
AcDbEntity
  8
0
100
AcDbLine
 62
7
  6
CONTINUOUS
 10
132.7492935021
 20
115.811026844
 11
132.7492935021
 21
129.8106621978
  0
LINE
  5
2A3
100
AcDbEntity
  8
0
100
AcDbLine
 62
7
  6
CONTINUOUS
 10
137.2253445772
 20
148.8606621931
 11
137.2253445772
 21
134.8610268392
  0
LINE
  5
2A4
100
AcDbEntity
  8
0
100
AcDbLine
 62
7
  6
CONTINUOUS
 10
137.5117935009
 20
96.7596218958
 11
137.5117935009
 21
100.0094368812
  0
LINE
  5
2A5
100
AcDbEntity
  8
0
100
AcDbLine
 62
7
  6
CONTINUOUS
 10
137.5117935009
 20
107.5094368812
 11
137.5117935009
 21
110.7606568196
  0
LINE
  5
2A6
100
AcDbEntity
  8
0
100
AcDbLine
 62
7
  6
CONTINUOUS
 10
11.7313573344
 20
87.0102492887
 11
12.5554457063
 21
87.0102492887
  0
LINE
  5
2A7
100
AcDbEntity
  8
0
100
AcDbLine
 62
7
  6
CONTINUOUS
 10
19.306207203
 20
87.0102492887
 11
20.830554296
 21
87.0102492887
  0
LINE
  5
2A8
100
AcDbEntity
  8
0
100
AcDbLine
 62
7
  6
CONTINUOUS
 10
34.8298397573
 20
87.0102492887
 11
36.3552419108
 21
87.0102492887
  0
LINE
  5
2A9
100
AcDbEntity
  8
0
100
AcDbLine
 62
7
  6
CONTINUOUS
 10
43.106347917
 20
87.0102492887
 11
43.9304470548
 21
87.0102492887
  0
LINE
  5
2AA
100
AcDbEntity
  8
0
100
AcDbLine
 62
7
  6
CONTINUOUS
 10
249.8563572749
 20
87.0102492887
 11
250.6804671786
 21
87.0102492887
  0
LINE
  5
2AB
100
AcDbEntity
  8
0
100
AcDbLine
 62
7
  6
CONTINUOUS
 10
257.4297752756
 20
87.0102492887
 11
258.9555434705
 21
87.0102492887
  0
LINE
  5
2AC
100
AcDbEntity
  8
0
100
AcDbLine
 62
7
  6
CONTINUOUS
 10
272.9548181659
 20
87.0102492887
 11
274.4802633831
 21
87.0102492887
  0
LINE
  5
2AD
100
AcDbEntity
  8
0
100
AcDbLine
 62
7
  6
CONTINUOUS
 10
281.2299375215
 20
87.0102492887
 11
282.0554254634
 21
87.0102492887
  0
LINE
  5
2AE
100
AcDbEntity
  8
0
100
AcDbLine
 62
7
  6
CONTINUOUS
 10
12.5554457063
 20
90.2416842584
 11
19.306207203
 21
90.2416842584
  0
LINE
  5
2AF
100
AcDbEntity
  8
0
100
AcDbLine
 62
7
  6
CONTINUOUS
 10
36.3552419108
 20
90.2416842584
 11
43.106347917
 21
90.2416842584
  0
LINE
  5
2B0
100
AcDbEntity
  8
0
100
AcDbLine
 62
7
  6
CONTINUOUS
 10
250.6804671786
 20
90.2416842584
 11
257.4297752756
 21
90.2416842584
  0
LINE
  5
2B1
100
AcDbEntity
  8
0
100
AcDbLine
 62
7
  6
CONTINUOUS
 10
274.4802633831
 20
90.2416842584
 11
281.2299375215
 21
90.2416842584
  0
LINE
  5
2B2
100
AcDbEntity
  8
0
100
AcDbLine
 62
7
  6
CONTINUOUS
 10
20.830554296
 20
91.7106622073
 11
34.8298397573
 21
91.7106622073
  0
LINE
  5
2B3
100
AcDbEntity
  8
0
100
AcDbLine
 62
7
  6
CONTINUOUS
 10
51.7882253901
 20
91.7106622073
 11
65.787855361
 21
91.7106622073
  0
LINE
  5
2B4
100
AcDbEntity
  8
0
100
AcDbLine
 62
7
  6
CONTINUOUS
 10
70.8382146194
 20
91.7106622073
 11
84.8378445903
 21
91.7106622073
  0
LINE
  5
2B5
100
AcDbEntity
  8
0
100
AcDbLine
 62
7
  6
CONTINUOUS
 10
89.8882146147
 20
91.7106622073
 11
103.8878445855
 21
91.7106622073
  0
LINE
  5
2B6
100
AcDbEntity
  8
0
100
AcDbLine
 62
7
  6
CONTINUOUS
 10
108.936793508
 20
91.7106622073
 11
122.9364342448
 21
91.7106622073
  0
LINE
  5
2B7
100
AcDbEntity
  8
0
100
AcDbLine
 62
7
  6
CONTINUOUS
 10
127.9882146051
 20
91.7106622073
 11
141.987844576
 21
91.7106622073
  0
LINE
  5
2B8
100
AcDbEntity
  8
0
100
AcDbLine
 62
7
  6
CONTINUOUS
 10
147.0368042644
 20
91.7106622073
 11
161.0364342353
 21
91.7106622073
  0
LINE
  5
2B9
100
AcDbEntity
  8
0
100
AcDbLine
 62
7
  6
CONTINUOUS
 10
166.0882038297
 20
91.7106622073
 11
180.0878338005
 21
91.7106622073
  0
LINE
  5
2BA
100
AcDbEntity
  8
0
100
AcDbLine
 62
7
  6
CONTINUOUS
 10
185.1382038249
 20
91.7106622073
 11
199.1378337958
 21
91.7106622073
  0
LINE
  5
2BB
100
AcDbEntity
  8
0
100
AcDbLine
 62
7
  6
CONTINUOUS
 10
204.1867934842
 20
91.7106622073
 11
218.186434221
 21
91.7106622073
  0
LINE
  5
2BC
100
AcDbEntity
  8
0
100
AcDbLine
 62
7
  6
CONTINUOUS
 10
223.2382361132
 20
91.7106622073
 11
237.2378553181
 21
91.7106622073
  0
LINE
  5
2BD
100
AcDbEntity
  8
0
100
AcDbLine
 62
7
  6
CONTINUOUS
 10
258.9555434705
 20
91.7106622073
 11
272.9548181659
 21
91.7106622073
  0
LINE
  5
2BE
100
AcDbEntity
  8
0
100
AcDbLine
 62
7
  6
CONTINUOUS
 10
6.7753519849
 20
92.060184945
 11
9.1753519849
 21
92.060184945
  0
LINE
  5
2BF
100
AcDbEntity
  8
0
100
AcDbLine
 62
7
  6
CONTINUOUS
 10
291.7753519136
 20
92.0788634967
 11
288.5753519136
 21
92.0788634967
  0
LINE
  5
2C0
100
AcDbEntity
  8
0
100
AcDbLine
 62
7
  6
CONTINUOUS
 10
141.987844576
 20
91.7106622073
 11
141.987844576
 21
77.7110322365
  0
LINE
  5
2C1
100
AcDbEntity
  8
0
100
AcDbLine
 62
7
  6
CONTINUOUS
 10
142.2742934997
 20
134.8610268392
 11
142.2742934997
 21
148.8606621931
  0
LINE
  5
2C2
100
AcDbEntity
  8
0
100
AcDbLine
 62
7
  6
CONTINUOUS
 10
144.3687392999
 20
58.6613767508
 11
144.3687392999
 21
63.3603793334
  0
LINE
  5
2C3
100
AcDbEntity
  8
0
100
AcDbLine
 62
7
  6
CONTINUOUS
 10
144.3687392999
 20
67.9602492935
 11
144.3687392999
 21
72.6606622121
  0
LINE
  5
2C4
100
AcDbEntity
  8
0
100
AcDbLine
 62
7
  6
CONTINUOUS
 10
146.7503445748
 20
129.8106621978
 11
146.7503445748
 21
115.811026844
  0
LINE
  5
2C5
100
AcDbEntity
  8
0
100
AcDbLine
 62
7
  6
CONTINUOUS
 10
147.0368042644
 20
77.7110322365
 11
147.0368042644
 21
91.7106622073
  0
LINE
  5
2C6
100
AcDbEntity
  8
0
100
AcDbLine
 62
7
  6
CONTINUOUS
 10
284.2673490197
 20
95.7898382826
 11
280.968196392
 21
95.7898382826
  0
LINE
  5
2C7
100
AcDbEntity
  8
0
100
AcDbLine
 62
7
  6
CONTINUOUS
 10
260.4672083057
 20
95.7898382826
 11
257.1680126143
 21
95.7898382826
  0
LINE
  5
2C8
100
AcDbEntity
  8
0
100
AcDbLine
 62
7
  6
CONTINUOUS
 10
246.7628553157
 20
96.7596218958
 11
232.7632361108
 21
96.7596218958
  0
LINE
  5
2C9
100
AcDbEntity
  8
0
100
AcDbLine
 62
7
  6
CONTINUOUS
 10
227.7128553205
 20
96.7596218958
 11
213.7132145837
 21
96.7596218958
  0
LINE
  5
2CA
100
AcDbEntity
  8
0
100
AcDbLine
 62
7
  6
CONTINUOUS
 10
208.6614342234
 20
96.7596218958
 11
194.6617934866
 21
96.7596218958
  0
LINE
  5
2CB
100
AcDbEntity
  8
0
100
AcDbLine
 62
7
  6
CONTINUOUS
 10
189.6128337982
 20
96.7596218958
 11
175.6132038273
 21
96.7596218958
  0
LINE
  5
2CC
100
AcDbEntity
  8
0
100
AcDbLine
 62
7
  6
CONTINUOUS
 10
170.5614342329
 20
96.7596218958
 11
156.561804262
 21
96.7596218958
  0
LINE
  5
2CD
100
AcDbEntity
  8
0
100
AcDbLine
 62
7
  6
CONTINUOUS
 10
151.5114342377
 20
96.7596218958
 11
137.5117935009
 21
96.7596218958
  0
LINE
  5
2CE
100
AcDbEntity
  8
0
100
AcDbLine
 62
7
  6
CONTINUOUS
 10
132.4624893029
 20
96.7596218958
 11
118.4603939356
 21
96.7596218958
  0
LINE
  5
2CF
100
AcDbEntity
  8
0
100
AcDbLine
 62
7
  6
CONTINUOUS
 10
113.4114342472
 20
96.7596218958
 11
99.4117935104
 21
96.7596218958
  0
LINE
  5
2D0
100
AcDbEntity
  8
0
100
AcDbLine
 62
7
  6
CONTINUOUS
 10
94.3614342519
 20
96.7596218958
 11
80.3617988981
 21
96.7596218958
  0
LINE
  5
2D1
100
AcDbEntity
  8
0
100
AcDbLine
 62
7
  6
CONTINUOUS
 10
75.3114342567
 20
96.7596218958
 11
61.3103885669
 21
96.7596218958
  0
LINE
  5
2D2
100
AcDbEntity
  8
0
100
AcDbLine
 62
7
  6
CONTINUOUS
 10
56.2628445974
 20
96.7596218958
 11
42.2632146266
 21
96.7596218958
  0
LINE
  5
2D3
100
AcDbEntity
  8
0
100
AcDbLine
 62
7
  6
CONTINUOUS
 10
30.069094604
 20
96.7596218958
 11
16.0694646331
 21
96.7596218958
  0
LINE
  5
2D4
100
AcDbEntity
  8
0
100
AcDbLine
 62
7
  6
CONTINUOUS
 10
277.7173181647
 20
96.7599664053
 11
263.7166438993
 21
96.7599664053
  0
LINE
  5
2D5
100
AcDbEntity
  8
0
100
AcDbLine
 62
7
  6
CONTINUOUS
 10
285.9924375203
 20
96.9913906945
 11
284.2673490197
 21
96.9913906945
  0
LINE
  5
2D6
100
AcDbEntity
  8
0
100
AcDbLine
 62
7
  6
CONTINUOUS
 10
280.968196392
 20
96.9913906945
 11
279.2427633819
 21
96.9913906945
  0
LINE
  5
2D7
100
AcDbEntity
  8
0
100
AcDbLine
 62
7
  6
CONTINUOUS
 10
262.1922752744
 20
96.9913906945
 11
260.4672083057
 21
96.9913906945
  0
LINE
  5
2D8
100
AcDbEntity
  8
0
100
AcDbLine
 62
7
  6
CONTINUOUS
 10
257.1680126143
 20
96.9913906945
 11
255.4429456456
 21
96.9913906945
  0
LINE
  5
2D9
100
AcDbEntity
  8
0
100
AcDbLine
 62
7
  6
CONTINUOUS
 10
6.7753519849
 20
97.060184945
 11
9.1753519849
 21
97.060184945
  0
LINE
  5
2DA
100
AcDbEntity
  8
0
100
AcDbLine
 62
7
  6
CONTINUOUS
 10
291.7753519136
 20
97.0788634967
 11
288.5753519136
 21
97.0788634967
  0
LINE
  5
2DB
100
AcDbEntity
  8
0
100
AcDbLine
 62
7
  6
CONTINUOUS
 10
136.7617935009
 20
100.7594368812
 11
133.2124893029
 21
100.7594368812
  0
LINE
  5
2DC
100
AcDbEntity
  8
0
100
AcDbLine
 62
7
  6
CONTINUOUS
 10
279.2427633819
 20
101.4617896599
 11
277.7173181647
 21
101.4617896599
  0
LINE
  5
2DD
100
AcDbEntity
  8
0
100
AcDbLine
 62
7
  6
CONTINUOUS
 10
263.7166438993
 20
101.4617896599
 11
262.1922752744
 21
101.4617896599
  0
LINE
  5
2DE
100
AcDbEntity
  8
0
100
AcDbLine
 62
7
  6
CONTINUOUS
 10
286.8179254622
 20
103.2598926529
 11
285.9924375203
 21
103.2598926529
  0
LINE
  5
2DF
100
AcDbEntity
  8
0
100
AcDbLine
 62
7
  6
CONTINUOUS
 10
255.4429456456
 20
103.2598926529
 11
254.6188572737
 21
103.2598926529
  0
LINE
  5
2E0
100
AcDbEntity
  8
0
100
AcDbLine
 62
7
  6
CONTINUOUS
 10
151.5114342377
 20
110.7606568196
 11
151.5114342377
 21
96.7596218958
  0
LINE
  5
2E1
100
AcDbEntity
  8
0
100
AcDbLine
 62
7
  6
CONTINUOUS
 10
151.7993042632
 20
115.811026844
 11
151.7993042632
 21
129.8106621978
  0
LINE
  5
2E2
100
AcDbEntity
  8
0
100
AcDbLine
 62
7
  6
CONTINUOUS
 10
156.2753445724
 20
148.8606621931
 11
156.2753445724
 21
134.8610268392
  0
LINE
  5
2E3
100
AcDbEntity
  8
0
100
AcDbLine
 62
7
  6
CONTINUOUS
 10
156.561804262
 20
96.7596218958
 11
156.561804262
 21
110.7606568196
  0
LINE
  5
2E4
100
AcDbEntity
  8
0
100
AcDbLine
 62
7
  6
CONTINUOUS
 10
254.6188572737
 20
106.0616650029
 11
255.4429456456
 21
106.0616650029
  0
LINE
  5
2E5
100
AcDbEntity
  8
0
100
AcDbLine
 62
7
  6
CONTINUOUS
 10
262.1922752744
 20
106.0616650029
 11
263.7166438993
 21
106.0616650029
  0
LINE
  5
2E6
100
AcDbEntity
  8
0
100
AcDbLine
 62
7
  6
CONTINUOUS
 10
277.7173181647
 20
106.0616650029
 11
279.2427633819
 21
106.0616650029
  0
LINE
  5
2E7
100
AcDbEntity
  8
0
100
AcDbLine
 62
7
  6
CONTINUOUS
 10
285.9924375203
 20
106.0616650029
 11
286.8179254622
 21
106.0616650029
  0
LINE
  5
2E8
100
AcDbEntity
  8
0
100
AcDbLine
 62
7
  6
CONTINUOUS
 10
133.2124893029
 20
106.7594368812
 11
136.7617935009
 21
106.7594368812
  0
LINE
  5
2E9
100
AcDbEntity
  8
0
100
AcDbLine
 62
7
  6
CONTINUOUS
 10
255.4429456456
 20
109.2902846836
 11
262.1922752744
 21
109.2902846836
  0
LINE
  5
2EA
100
AcDbEntity
  8
0
100
AcDbLine
 62
7
  6
CONTINUOUS
 10
279.2427633819
 20
109.2902846836
 11
285.9924375203
 21
109.2902846836
  0
LINE
  5
2EB
100
AcDbEntity
  8
0
100
AcDbLine
 62
7
  6
CONTINUOUS
 10
16.0694646331
 20
110.7606568196
 11
30.069094604
 21
110.7606568196
  0
LINE
  5
2EC
100
AcDbEntity
  8
0
100
AcDbLine
 62
7
  6
CONTINUOUS
 10
42.2632146266
 20
110.7606568196
 11
56.2628445974
 21
110.7606568196
  0
LINE
  5
2ED
100
AcDbEntity
  8
0
100
AcDbLine
 62
7
  6
CONTINUOUS
 10
61.3103885669
 20
110.7606568196
 11
75.3114342567
 21
110.7606568196
  0
LINE
  5
2EE
100
AcDbEntity
  8
0
100
AcDbLine
 62
7
  6
CONTINUOUS
 10
80.3617988981
 20
110.7606568196
 11
94.3614342519
 21
110.7606568196
  0
LINE
  5
2EF
100
AcDbEntity
  8
0
100
AcDbLine
 62
7
  6
CONTINUOUS
 10
99.4117935104
 20
110.7606568196
 11
113.4114342472
 21
110.7606568196
  0
LINE
  5
2F0
100
AcDbEntity
  8
0
100
AcDbLine
 62
7
  6
CONTINUOUS
 10
118.4603939356
 20
110.7606568196
 11
132.4624893029
 21
110.7606568196
  0
LINE
  5
2F1
100
AcDbEntity
  8
0
100
AcDbLine
 62
7
  6
CONTINUOUS
 10
137.5117935009
 20
110.7606568196
 11
151.5114342377
 21
110.7606568196
  0
LINE
  5
2F2
100
AcDbEntity
  8
0
100
AcDbLine
 62
7
  6
CONTINUOUS
 10
156.561804262
 20
110.7606568196
 11
170.5614342329
 21
110.7606568196
  0
LINE
  5
2F3
100
AcDbEntity
  8
0
100
AcDbLine
 62
7
  6
CONTINUOUS
 10
175.6132038273
 20
110.7606568196
 11
189.6128337982
 21
110.7606568196
  0
LINE
  5
2F4
100
AcDbEntity
  8
0
100
AcDbLine
 62
7
  6
CONTINUOUS
 10
194.6617934866
 20
110.7606568196
 11
208.6614342234
 21
110.7606568196
  0
LINE
  5
2F5
100
AcDbEntity
  8
0
100
AcDbLine
 62
7
  6
CONTINUOUS
 10
213.7132145837
 20
110.7606568196
 11
227.7128553205
 21
110.7606568196
  0
LINE
  5
2F6
100
AcDbEntity
  8
0
100
AcDbLine
 62
7
  6
CONTINUOUS
 10
232.7632361108
 20
110.7606568196
 11
246.7628553157
 21
110.7606568196
  0
LINE
  5
2F7
100
AcDbEntity
  8
0
100
AcDbLine
 62
7
  6
CONTINUOUS
 10
263.7166438993
 20
110.7606568196
 11
277.7173181647
 21
110.7606568196
  0
LINE
  5
2F8
100
AcDbEntity
  8
0
100
AcDbLine
 62
7
  6
CONTINUOUS
 10
161.0364342353
 20
91.7106622073
 11
161.0364342353
 21
77.7110322365
  0
LINE
  5
2F9
100
AcDbEntity
  8
0
100
AcDbLine
 62
7
  6
CONTINUOUS
 10
161.3243042608
 20
134.8610268392
 11
161.3243042608
 21
148.8606621931
  0
LINE
  5
2FA
100
AcDbEntity
  8
0
100
AcDbLine
 62
7
  6
CONTINUOUS
 10
165.7989342341
 20
129.8106621978
 11
165.7989342341
 21
115.811026844
  0
LINE
  5
2FB
100
AcDbEntity
  8
0
100
AcDbLine
 62
7
  6
CONTINUOUS
 10
166.0882038297
 20
77.7110322365
 11
166.0882038297
 21
91.7106622073
  0
LINE
  5
2FC
100
AcDbEntity
  8
0
100
AcDbLine
 62
7
  6
CONTINUOUS
 10
170.5614342329
 20
110.7606568196
 11
170.5614342329
 21
96.7596218958
  0
LINE
  5
2FD
100
AcDbEntity
  8
0
100
AcDbLine
 62
7
  6
CONTINUOUS
 10
284.8614342043
 20
115.811026844
 11
270.8617934675
 21
115.811026844
  0
LINE
  5
2FE
100
AcDbEntity
  8
0
100
AcDbLine
 62
7
  6
CONTINUOUS
 10
261.0489342103
 20
115.811026844
 11
247.0492934735
 21
115.811026844
  0
LINE
  5
2FF
100
AcDbEntity
  8
0
100
AcDbLine
 62
7
  6
CONTINUOUS
 10
242.0003553169
 20
115.811026844
 11
227.9993150101
 21
115.811026844
  0
LINE
  5
300
100
AcDbEntity
  8
0
100
AcDbLine
 62
7
  6
CONTINUOUS
 10
222.9489342198
 20
115.811026844
 11
208.949293483
 21
115.811026844
  0
LINE
  5
301
100
AcDbEntity
  8
0
100
AcDbLine
 62
7
  6
CONTINUOUS
 10
203.9003337946
 20
115.811026844
 11
189.8992934878
 21
115.811026844
  0
LINE
  5
302
100
AcDbEntity
  8
0
100
AcDbLine
 62
7
  6
CONTINUOUS
 10
184.8503445653
 20
115.811026844
 11
170.8493042585
 21
115.811026844
  0
LINE
  5
303
100
AcDbEntity
  8
0
100
AcDbLine
 62
7
  6
CONTINUOUS
 10
165.7989342341
 20
115.811026844
 11
151.7993042632
 21
115.811026844
  0
LINE
  5
304
100
AcDbEntity
  8
0
100
AcDbLine
 62
7
  6
CONTINUOUS
 10
146.7503445748
 20
115.811026844
 11
132.7492935021
 21
115.811026844
  0
LINE
  5
305
100
AcDbEntity
  8
0
100
AcDbLine
 62
7
  6
CONTINUOUS
 10
127.6989342436
 20
115.811026844
 11
113.6992935068
 21
115.811026844
  0
LINE
  5
306
100
AcDbEntity
  8
0
100
AcDbLine
 62
7
  6
CONTINUOUS
 10
108.6503553503
 20
115.811026844
 11
94.6493096605
 21
115.811026844
  0
LINE
  5
307
100
AcDbEntity
  8
0
100
AcDbLine
 62
7
  6
CONTINUOUS
 10
89.6003499721
 20
115.811026844
 11
75.5993042823
 21
115.811026844
  0
LINE
  5
308
100
AcDbEntity
  8
0
100
AcDbLine
 62
7
  6
CONTINUOUS
 10
70.5503499768
 20
115.811026844
 11
56.549304287
 21
115.811026844
  0
LINE
  5
309
100
AcDbEntity
  8
0
100
AcDbLine
 62
7
  6
CONTINUOUS
 10
51.4989342627
 20
115.811026844
 11
37.4993042918
 21
115.811026844
  0
LINE
  5
30A
100
AcDbEntity
  8
0
100
AcDbLine
 62
7
  6
CONTINUOUS
 10
27.6878446046
 20
115.811026844
 11
13.6882146337
 21
115.811026844
  0
LINE
  5
30B
100
AcDbEntity
  8
0
100
AcDbLine
 62
7
  6
CONTINUOUS
 10
170.8493042585
 20
115.811026844
 11
170.8493042585
 21
129.8106621978
  0
LINE
  5
30C
100
AcDbEntity
  8
0
100
AcDbLine
 62
7
  6
CONTINUOUS
 10
175.3239342317
 20
148.8606621931
 11
175.3239342317
 21
134.8610268392
  0
LINE
  5
30D
100
AcDbEntity
  8
0
100
AcDbLine
 62
7
  6
CONTINUOUS
 10
175.6132038273
 20
96.7596218958
 11
175.6132038273
 21
110.7606568196
  0
LINE
  5
30E
100
AcDbEntity
  8
0
100
AcDbLine
 62
7
  6
CONTINUOUS
 10
180.0878338005
 20
91.7106622073
 11
180.0878338005
 21
77.7110322365
  0
LINE
  5
30F
100
AcDbEntity
  8
0
100
AcDbLine
 62
7
  6
CONTINUOUS
 10
180.3743042561
 20
134.8610268392
 11
180.3743042561
 21
148.8606621931
  0
LINE
  5
310
100
AcDbEntity
  8
0
100
AcDbLine
 62
7
  6
CONTINUOUS
 10
13.6882146337
 20
129.8106621978
 11
27.6878446046
 21
129.8106621978
  0
LINE
  5
311
100
AcDbEntity
  8
0
100
AcDbLine
 62
7
  6
CONTINUOUS
 10
37.4993042918
 20
129.8106621978
 11
51.4989342627
 21
129.8106621978
  0
LINE
  5
312
100
AcDbEntity
  8
0
100
AcDbLine
 62
7
  6
CONTINUOUS
 10
56.549304287
 20
129.8106621978
 11
70.5503499768
 21
129.8106621978
  0
LINE
  5
313
100
AcDbEntity
  8
0
100
AcDbLine
 62
7
  6
CONTINUOUS
 10
75.5993042823
 20
129.8106621978
 11
89.6003499721
 21
129.8106621978
  0
LINE
  5
314
100
AcDbEntity
  8
0
100
AcDbLine
 62
7
  6
CONTINUOUS
 10
94.6493096605
 20
129.8106621978
 11
108.6503553503
 21
129.8106621978
  0
LINE
  5
315
100
AcDbEntity
  8
0
100
AcDbLine
 62
7
  6
CONTINUOUS
 10
113.6992935068
 20
129.8106621978
 11
127.6989342436
 21
129.8106621978
  0
LINE
  5
316
100
AcDbEntity
  8
0
100
AcDbLine
 62
7
  6
CONTINUOUS
 10
132.7492935021
 20
129.8106621978
 11
146.7503445748
 21
129.8106621978
  0
LINE
  5
317
100
AcDbEntity
  8
0
100
AcDbLine
 62
7
  6
CONTINUOUS
 10
151.7993042632
 20
129.8106621978
 11
165.7989342341
 21
129.8106621978
  0
LINE
  5
318
100
AcDbEntity
  8
0
100
AcDbLine
 62
7
  6
CONTINUOUS
 10
170.8493042585
 20
129.8106621978
 11
184.8503445653
 21
129.8106621978
  0
LINE
  5
319
100
AcDbEntity
  8
0
100
AcDbLine
 62
7
  6
CONTINUOUS
 10
189.8992934878
 20
129.8106621978
 11
203.9003337946
 21
129.8106621978
  0
LINE
  5
31A
100
AcDbEntity
  8
0
100
AcDbLine
 62
7
  6
CONTINUOUS
 10
208.949293483
 20
129.8106621978
 11
222.9489342198
 21
129.8106621978
  0
LINE
  5
31B
100
AcDbEntity
  8
0
100
AcDbLine
 62
7
  6
CONTINUOUS
 10
227.9992934782
 20
129.8106621978
 11
242.0003553169
 21
129.8106621978
  0
LINE
  5
31C
100
AcDbEntity
  8
0
100
AcDbLine
 62
7
  6
CONTINUOUS
 10
247.0492934735
 20
129.8106621978
 11
261.0489342103
 21
129.8106621978
  0
LINE
  5
31D
100
AcDbEntity
  8
0
100
AcDbLine
 62
7
  6
CONTINUOUS
 10
270.8617934675
 20
129.8106621978
 11
284.8614342043
 21
129.8106621978
  0
LINE
  5
31E
100
AcDbEntity
  8
0
100
AcDbLine
 62
7
  6
CONTINUOUS
 10
286.6485990191
 20
133.8912432261
 11
283.3494463914
 21
133.8912432261
  0
LINE
  5
31F
100
AcDbEntity
  8
0
100
AcDbLine
 62
7
  6
CONTINUOUS
 10
262.8484583051
 20
133.8912432261
 11
259.5492626137
 21
133.8912432261
  0
LINE
  5
320
100
AcDbEntity
  8
0
100
AcDbLine
 62
7
  6
CONTINUOUS
 10
251.5253553145
 20
134.8610268392
 11
237.5242934759
 21
134.8610268392
  0
LINE
  5
321
100
AcDbEntity
  8
0
100
AcDbLine
 62
7
  6
CONTINUOUS
 10
232.4753337875
 20
134.8610268392
 11
218.4742934806
 21
134.8610268392
  0
LINE
  5
322
100
AcDbEntity
  8
0
100
AcDbLine
 62
7
  6
CONTINUOUS
 10
213.4239342222
 20
134.8610268392
 11
199.4242934854
 21
134.8610268392
  0
LINE
  5
323
100
AcDbEntity
  8
0
100
AcDbLine
 62
7
  6
CONTINUOUS
 10
194.375333797
 20
134.8610268392
 11
180.3743042561
 21
134.8610268392
  0
LINE
  5
324
100
AcDbEntity
  8
0
100
AcDbLine
 62
7
  6
CONTINUOUS
 10
175.3239342317
 20
134.8610268392
 11
161.3243042608
 21
134.8610268392
  0
LINE
  5
325
100
AcDbEntity
  8
0
100
AcDbLine
 62
7
  6
CONTINUOUS
 10
156.2753445724
 20
134.8610268392
 11
142.2742934997
 21
134.8610268392
  0
LINE
  5
326
100
AcDbEntity
  8
0
100
AcDbLine
 62
7
  6
CONTINUOUS
 10
137.2253445772
 20
134.8610268392
 11
123.2242935044
 21
134.8610268392
  0
LINE
  5
327
100
AcDbEntity
  8
0
100
AcDbLine
 62
7
  6
CONTINUOUS
 10
118.175333816
 20
134.8610268392
 11
104.1742935092
 21
134.8610268392
  0
LINE
  5
328
100
AcDbEntity
  8
0
100
AcDbLine
 62
7
  6
CONTINUOUS
 10
99.1253445867
 20
134.8610268392
 11
85.1243042799
 21
134.8610268392
  0
LINE
  5
329
100
AcDbEntity
  8
0
100
AcDbLine
 62
7
  6
CONTINUOUS
 10
80.0739396385
 20
134.8610268392
 11
66.0743042846
 21
134.8610268392
  0
LINE
  5
32A
100
AcDbEntity
  8
0
100
AcDbLine
 62
7
  6
CONTINUOUS
 10
61.0253445962
 20
134.8610268392
 11
47.0242935235
 21
134.8610268392
  0
LINE
  5
32B
100
AcDbEntity
  8
0
100
AcDbLine
 62
7
  6
CONTINUOUS
 10
41.9753553669
 20
134.8610268392
 11
27.9743042942
 21
134.8610268392
  0
LINE
  5
32C
100
AcDbEntity
  8
0
100
AcDbLine
 62
7
  6
CONTINUOUS
 10
22.9253553717
 20
134.8610268392
 11
8.9243042989
 21
134.8610268392
  0
LINE
  5
32D
100
AcDbEntity
  8
0
100
AcDbLine
 62
7
  6
CONTINUOUS
 10
280.0985681641
 20
134.8613821147
 11
266.0992934687
 21
134.8613821147
  0
LINE
  5
32E
100
AcDbEntity
  8
0
100
AcDbLine
 62
7
  6
CONTINUOUS
 10
288.3736875197
 20
135.089980349
 11
286.6485990191
 21
135.089980349
  0
LINE
  5
32F
100
AcDbEntity
  8
0
100
AcDbLine
 62
7
  6
CONTINUOUS
 10
283.3494463914
 20
135.089980349
 11
281.6240133813
 21
135.089980349
  0
LINE
  5
330
100
AcDbEntity
  8
0
100
AcDbLine
 62
7
  6
CONTINUOUS
 10
264.5735252738
 20
135.089980349
 11
262.8484583051
 21
135.089980349
  0
LINE
  5
331
100
AcDbEntity
  8
0
100
AcDbLine
 62
7
  6
CONTINUOUS
 10
259.5492626137
 20
135.089980349
 11
257.824195645
 21
135.089980349
  0
LINE
  5
332
100
AcDbEntity
  8
0
100
AcDbLine
 62
7
  6
CONTINUOUS
 10
183.9945021023
 20
72.4306590248
 11
183.9945021023
 21
67.9602492935
  0
LINE
  5
333
100
AcDbEntity
  8
0
100
AcDbLine
 62
7
  6
CONTINUOUS
 10
183.9945021023
 20
63.3603793334
 11
183.9945021023
 21
60.1303546998
  0
LINE
  5
334
100
AcDbEntity
  8
0
100
AcDbLine
 62
7
  6
CONTINUOUS
 10
184.8503445653
 20
129.8106621978
 11
184.8503445653
 21
115.811026844
  0
LINE
  5
335
100
AcDbEntity
  8
0
100
AcDbLine
 62
7
  6
CONTINUOUS
 10
185.1382038249
 20
77.7110322365
 11
185.1382038249
 21
91.7106622073
  0
LINE
  5
336
100
AcDbEntity
  8
0
100
AcDbLine
 62
7
  6
CONTINUOUS
 10
185.7195906029
 20
73.6308011008
 11
185.7195906029
 21
72.4306590248
  0
LINE
  5
337
100
AcDbEntity
  8
0
100
AcDbLine
 62
7
  6
CONTINUOUS
 10
189.0187647625
 20
72.4306590248
 11
189.0187647625
 21
73.6308011008
  0
LINE
  5
338
100
AcDbEntity
  8
0
100
AcDbLine
 62
7
  6
CONTINUOUS
 10
189.6128337982
 20
110.7606568196
 11
189.6128337982
 21
96.7596218958
  0
LINE
  5
339
100
AcDbEntity
  8
0
100
AcDbLine
 62
7
  6
CONTINUOUS
 10
189.8992934878
 20
115.811026844
 11
189.8992934878
 21
129.8106621978
  0
LINE
  5
33A
100
AcDbEntity
  8
0
100
AcDbLine
 62
7
  6
CONTINUOUS
 10
281.6240133813
 20
139.5617896504
 11
280.0985681641
 21
139.5617896504
  0
LINE
  5
33B
100
AcDbEntity
  8
0
100
AcDbLine
 62
7
  6
CONTINUOUS
 10
266.0992934687
 20
139.5617896504
 11
264.5735252738
 21
139.5617896504
  0
LINE
  5
33C
100
AcDbEntity
  8
0
100
AcDbLine
 62
7
  6
CONTINUOUS
 10
289.1991754616
 20
141.3613083623
 11
288.3736875197
 21
141.3613083623
  0
LINE
  5
33D
100
AcDbEntity
  8
0
100
AcDbLine
 62
7
  6
CONTINUOUS
 10
257.824195645
 20
141.3613083623
 11
257.0001072731
 21
141.3613083623
  0
LINE
  5
33E
100
AcDbEntity
  8
0
100
AcDbLine
 62
7
  6
CONTINUOUS
 10
257.0001072731
 20
144.1616596104
 11
257.824195645
 21
144.1616596104
  0
LINE
  5
33F
100
AcDbEntity
  8
0
100
AcDbLine
 62
7
  6
CONTINUOUS
 10
264.5735252738
 20
144.1616596104
 11
266.0992934687
 21
144.1616596104
  0
LINE
  5
340
100
AcDbEntity
  8
0
100
AcDbLine
 62
7
  6
CONTINUOUS
 10
280.0985681641
 20
144.1616596104
 11
281.6240133813
 21
144.1616596104
  0
LINE
  5
341
100
AcDbEntity
  8
0
100
AcDbLine
 62
7
  6
CONTINUOUS
 10
288.3736875197
 20
144.1616596104
 11
289.1991754616
 21
144.1616596104
  0
LINE
  5
342
100
AcDbEntity
  8
0
100
AcDbLine
 62
7
  6
CONTINUOUS
 10
190.7438478801
 20
60.1303546998
 11
190.7438478801
 21
63.3603793334
  0
LINE
  5
343
100
AcDbEntity
  8
0
100
AcDbLine
 62
7
  6
CONTINUOUS
 10
190.7438478801
 20
66.1607359645
 11
190.7438478801
 21
72.4306590248
  0
LINE
  5
344
100
AcDbEntity
  8
0
100
AcDbLine
 62
7
  6
CONTINUOUS
 10
191.5693465879
 20
63.3603793334
 11
191.5693465879
 21
66.1607359645
  0
LINE
  5
345
100
AcDbEntity
  8
0
100
AcDbLine
 62
7
  6
CONTINUOUS
 10
194.375333797
 20
148.8606621931
 11
194.375333797
 21
134.8610268392
  0
LINE
  5
346
100
AcDbEntity
  8
0
100
AcDbLine
 62
7
  6
CONTINUOUS
 10
194.6617934866
 20
96.7596218958
 11
194.6617934866
 21
110.7606568196
  0
LINE
  5
347
100
AcDbEntity
  8
0
100
AcDbLine
 62
7
  6
CONTINUOUS
 10
199.1378337958
 20
91.7106622073
 11
199.1378337958
 21
77.7110322365
  0
LINE
  5
348
100
AcDbEntity
  8
0
100
AcDbLine
 62
7
  6
CONTINUOUS
 10
199.4242934854
 20
134.8610268392
 11
199.4242934854
 21
148.8606621931
  0
LINE
  5
349
100
AcDbEntity
  8
0
100
AcDbLine
 62
7
  6
CONTINUOUS
 10
257.824195645
 20
147.39169501
 11
264.5735252738
 21
147.39169501
  0
LINE
  5
34A
100
AcDbEntity
  8
0
100
AcDbLine
 62
7
  6
CONTINUOUS
 10
281.6240133813
 20
147.39169501
 11
288.3736875197
 21
147.39169501
  0
LINE
  5
34B
100
AcDbEntity
  8
0
100
AcDbLine
 62
7
  6
CONTINUOUS
 10
8.9243042989
 20
148.8606621931
 11
22.9253553717
 21
148.8606621931
  0
LINE
  5
34C
100
AcDbEntity
  8
0
100
AcDbLine
 62
7
  6
CONTINUOUS
 10
27.9743042942
 20
148.8606621931
 11
41.9753553669
 21
148.8606621931
  0
LINE
  5
34D
100
AcDbEntity
  8
0
100
AcDbLine
 62
7
  6
CONTINUOUS
 10
47.0242935235
 20
148.8606621931
 11
61.0253445962
 21
148.8606621931
  0
LINE
  5
34E
100
AcDbEntity
  8
0
100
AcDbLine
 62
7
  6
CONTINUOUS
 10
66.0743042846
 20
148.8606621931
 11
80.0739396385
 21
148.8606621931
  0
LINE
  5
34F
100
AcDbEntity
  8
0
100
AcDbLine
 62
7
  6
CONTINUOUS
 10
85.1243042799
 20
148.8606621931
 11
99.1253445867
 21
148.8606621931
  0
LINE
  5
350
100
AcDbEntity
  8
0
100
AcDbLine
 62
7
  6
CONTINUOUS
 10
104.1742935092
 20
148.8606621931
 11
118.175333816
 21
148.8606621931
  0
LINE
  5
351
100
AcDbEntity
  8
0
100
AcDbLine
 62
7
  6
CONTINUOUS
 10
123.2242935044
 20
148.8606621931
 11
137.2253445772
 21
148.8606621931
  0
LINE
  5
352
100
AcDbEntity
  8
0
100
AcDbLine
 62
7
  6
CONTINUOUS
 10
142.2742934997
 20
148.8606621931
 11
156.2753445724
 21
148.8606621931
  0
LINE
  5
353
100
AcDbEntity
  8
0
100
AcDbLine
 62
7
  6
CONTINUOUS
 10
161.3243042608
 20
148.8606621931
 11
175.3239342317
 21
148.8606621931
  0
LINE
  5
354
100
AcDbEntity
  8
0
100
AcDbLine
 62
7
  6
CONTINUOUS
 10
180.3743042561
 20
148.8606621931
 11
194.375333797
 21
148.8606621931
  0
LINE
  5
355
100
AcDbEntity
  8
0
100
AcDbLine
 62
7
  6
CONTINUOUS
 10
199.4242934854
 20
148.8606621931
 11
213.4239342222
 21
148.8606621931
  0
LINE
  5
356
100
AcDbEntity
  8
0
100
AcDbLine
 62
7
  6
CONTINUOUS
 10
218.4742934806
 20
148.8606621931
 11
232.4753337875
 21
148.8606621931
  0
LINE
  5
357
100
AcDbEntity
  8
0
100
AcDbLine
 62
7
  6
CONTINUOUS
 10
237.5242934759
 20
148.8606621931
 11
251.5253553145
 21
148.8606621931
  0
LINE
  5
358
100
AcDbEntity
  8
0
100
AcDbLine
 62
7
  6
CONTINUOUS
 10
266.0992934687
 20
148.8606621931
 11
280.0985681641
 21
148.8606621931
  0
LINE
  5
359
100
AcDbEntity
  8
0
100
AcDbLine
 62
7
  6
CONTINUOUS
 10
290.2753519136
 20
151.2594368693
 11
8.2753519849
 21
151.2594368693
  0
LINE
  5
35A
100
AcDbEntity
  8
0
100
AcDbLine
 62
7
  6
CONTINUOUS
 10
201.8055434848
 20
58.6610322412
 11
201.8055434848
 21
72.6606622121
  0
LINE
  5
35B
100
AcDbEntity
  8
0
100
AcDbLine
 62
7
  6
CONTINUOUS
 10
203.9003337946
 20
129.8106621978
 11
203.9003337946
 21
115.811026844
  0
LINE
  5
35C
100
AcDbEntity
  8
0
100
AcDbLine
 62
7
  6
CONTINUOUS
 10
204.1867934842
 20
77.7110322365
 11
204.1867934842
 21
91.7106622073
  0
LINE
  5
35D
100
AcDbEntity
  8
0
100
AcDbLine
 62
7
  6
CONTINUOUS
 10
208.6614342234
 20
110.7606568196
 11
208.6614342234
 21
96.7596218958
  0
LINE
  5
35E
100
AcDbEntity
  8
0
100
AcDbLine
 62
7
  6
CONTINUOUS
 10
208.949293483
 20
115.811026844
 11
208.949293483
 21
129.8106621978
  0
LINE
  5
35F
100
AcDbEntity
  8
0
100
AcDbLine
 62
7
  6
CONTINUOUS
 10
213.4239342222
 20
148.8606621931
 11
213.4239342222
 21
134.8610268392
  0
LINE
  5
360
100
AcDbEntity
  8
0
100
AcDbLine
 62
7
  6
CONTINUOUS
 10
213.7132145837
 20
96.7596218958
 11
213.7132145837
 21
110.7606568196
  0
LINE
  5
361
100
AcDbEntity
  8
0
100
AcDbLine
 62
7
  6
CONTINUOUS
 10
215.8051842216
 20
72.6606622121
 11
215.8051842216
 21
58.6610322412
  0
LINE
  5
362
100
AcDbEntity
  8
0
100
AcDbLine
 62
7
  6
CONTINUOUS
 10
218.186434221
 20
91.7106622073
 11
218.186434221
 21
77.7110322365
  0
LINE
  5
363
100
AcDbEntity
  8
0
100
AcDbLine
 62
7
  6
CONTINUOUS
 10
218.4742934806
 20
134.8610268392
 11
218.4742934806
 21
148.8606621931
  0
LINE
  5
364
100
AcDbEntity
  8
0
100
AcDbLine
 62
7
  6
CONTINUOUS
 10
222.9489342198
 20
129.8106621978
 11
222.9489342198
 21
115.811026844
  0
LINE
  5
365
100
AcDbEntity
  8
0
100
AcDbLine
 62
7
  6
CONTINUOUS
 10
223.2382361132
 20
77.7110322365
 11
223.2382361132
 21
91.7106622073
  0
LINE
  5
366
100
AcDbEntity
  8
0
100
AcDbLine
 62
7
  6
CONTINUOUS
 10
225.6194861126
 20
58.6610322412
 11
225.6194861126
 21
72.6606622121
  0
LINE
  5
367
100
AcDbEntity
  8
0
100
AcDbLine
 62
7
  6
CONTINUOUS
 10
227.7128553205
 20
110.7606568196
 11
227.7128553205
 21
96.7596218958
  0
LINE
  5
368
100
AcDbEntity
  8
0
100
AcDbLine
 62
7
  6
CONTINUOUS
 10
227.9993150101
 20
115.811026844
 11
227.9992934782
 21
129.8106621978
  0
LINE
  5
369
100
AcDbEntity
  8
0
100
AcDbLine
 62
7
  6
CONTINUOUS
 10
232.4753337875
 20
148.8606621931
 11
232.4753337875
 21
134.8610268392
  0
LINE
  5
36A
100
AcDbEntity
  8
0
100
AcDbLine
 62
7
  6
CONTINUOUS
 10
232.7632361108
 20
96.7596218958
 11
232.7632361108
 21
110.7606568196
  0
LINE
  5
36B
100
AcDbEntity
  8
0
100
AcDbLine
 62
7
  6
CONTINUOUS
 10
237.2378553181
 20
91.7106622073
 11
237.2378553181
 21
77.7110322365
  0
LINE
  5
36C
100
AcDbEntity
  8
0
100
AcDbLine
 62
7
  6
CONTINUOUS
 10
237.5242934759
 20
134.8610268392
 11
237.5242934759
 21
148.8606621931
  0
LINE
  5
36D
100
AcDbEntity
  8
0
100
AcDbLine
 62
7
  6
CONTINUOUS
 10
239.6191053175
 20
72.6606622121
 11
239.6191053175
 21
58.6610322412
  0
LINE
  5
36E
100
AcDbEntity
  8
0
100
AcDbLine
 62
7
  6
CONTINUOUS
 10
242.0003553169
 20
129.8106621978
 11
242.0003553169
 21
115.811026844
  0
LINE
  5
36F
100
AcDbEntity
  8
0
100
AcDbLine
 62
7
  6
CONTINUOUS
 10
246.7628553157
 20
110.7606568196
 11
246.7628553157
 21
96.7596218958
  0
LINE
  5
370
100
AcDbEntity
  8
0
100
AcDbLine
 62
7
  6
CONTINUOUS
 10
247.0492934735
 20
115.811026844
 11
247.0492934735
 21
129.8106621978
  0
LINE
  5
371
100
AcDbEntity
  8
0
100
AcDbLine
 62
7
  6
CONTINUOUS
 10
249.4305434729
 20
58.6610322412
 11
249.4305434729
 21
72.6606622121
  0
LINE
  5
372
100
AcDbEntity
  8
0
100
AcDbLine
 62
7
  6
CONTINUOUS
 10
249.8563572749
 20
84.2113029936
 11
249.8563572749
 21
87.0102492887
  0
LINE
  5
373
100
AcDbEntity
  8
0
100
AcDbLine
 62
7
  6
CONTINUOUS
 10
250.6804671786
 20
77.9413906993
 11
250.6804671786
 21
84.2113029936
  0
LINE
  5
374
100
AcDbEntity
  8
0
100
AcDbLine
 62
7
  6
CONTINUOUS
 10
250.6804671786
 20
87.0102492887
 11
250.6804671786
 21
90.2416842584
  0
LINE
  5
375
100
AcDbEntity
  8
0
100
AcDbLine
 62
7
  6
CONTINUOUS
 10
251.5253553145
 20
148.8606621931
 11
251.5253553145
 21
134.8610268392
  0
LINE
  5
376
100
AcDbEntity
  8
0
100
AcDbLine
 62
7
  6
CONTINUOUS
 10
252.4055126155
 20
76.7412378574
 11
252.4055126155
 21
77.9413906993
  0
LINE
  5
377
100
AcDbEntity
  8
0
100
AcDbLine
 62
7
  6
CONTINUOUS
 10
254.6188572737
 20
103.2598926529
 11
254.6188572737
 21
106.0616650029
  0
LINE
  5
378
100
AcDbEntity
  8
0
100
AcDbLine
 62
7
  6
CONTINUOUS
 10
255.4429456456
 20
96.9913906945
 11
255.4429456456
 21
103.2598926529
  0
LINE
  5
379
100
AcDbEntity
  8
0
100
AcDbLine
 62
7
  6
CONTINUOUS
 10
255.4429456456
 20
106.0616650029
 11
255.4429456456
 21
109.2902846836
  0
LINE
  5
37A
100
AcDbEntity
  8
0
100
AcDbLine
 62
7
  6
CONTINUOUS
 10
255.7047083069
 20
77.9413906993
 11
255.7047083069
 21
76.7412378574
  0
LINE
  5
37B
100
AcDbEntity
  8
0
100
AcDbLine
 62
7
  6
CONTINUOUS
 10
257.0001072731
 20
141.3613083623
 11
257.0001072731
 21
144.1616596104
  0
LINE
  5
37C
100
AcDbEntity
  8
0
100
AcDbLine
 62
7
  6
CONTINUOUS
 10
257.1680126143
 20
95.7898382826
 11
257.1680126143
 21
96.9913906945
  0
LINE
  5
37D
100
AcDbEntity
  8
0
100
AcDbLine
 62
7
  6
CONTINUOUS
 10
257.4297752756
 20
90.2416842584
 11
257.4297752756
 21
87.0102492887
  0
LINE
  5
37E
100
AcDbEntity
  8
0
100
AcDbLine
 62
7
  6
CONTINUOUS
 10
257.4297752756
 20
82.4117896646
 11
257.4297752756
 21
77.9413906993
  0
LINE
  5
37F
100
AcDbEntity
  8
0
100
AcDbLine
 62
7
  6
CONTINUOUS
 10
257.824195645
 20
135.089980349
 11
257.824195645
 21
141.3613083623
  0
LINE
  5
380
100
AcDbEntity
  8
0
100
AcDbLine
 62
7
  6
CONTINUOUS
 10
257.824195645
 20
144.1616596104
 11
257.824195645
 21
147.39169501
  0
LINE
  5
381
100
AcDbEntity
  8
0
100
AcDbLine
 62
7
  6
CONTINUOUS
 10
258.9555434705
 20
77.711376746
 11
258.9555434705
 21
82.4117896646
  0
LINE
  5
382
100
AcDbEntity
  8
0
100
AcDbLine
 62
7
  6
CONTINUOUS
 10
258.9555434705
 20
87.0102492887
 11
258.9555434705
 21
91.7106622073
  0
LINE
  5
383
100
AcDbEntity
  8
0
100
AcDbLine
 62
7
  6
CONTINUOUS
 10
259.5492626137
 20
133.8912432261
 11
259.5492626137
 21
135.089980349
  0
LINE
  5
384
100
AcDbEntity
  8
0
100
AcDbLine
 62
7
  6
CONTINUOUS
 10
260.4672083057
 20
96.9913906945
 11
260.4672083057
 21
95.7898382826
  0
LINE
  5
385
100
AcDbEntity
  8
0
100
AcDbLine
 62
7
  6
CONTINUOUS
 10
261.0489342103
 20
129.8106621978
 11
261.0489342103
 21
115.811026844
  0
LINE
  5
386
100
AcDbEntity
  8
0
100
AcDbLine
 62
7
  6
CONTINUOUS
 10
262.1922752744
 20
109.2902846836
 11
262.1922752744
 21
106.0616650029
  0
LINE
  5
387
100
AcDbEntity
  8
0
100
AcDbLine
 62
7
  6
CONTINUOUS
 10
262.1922752744
 20
101.4617896599
 11
262.1922752744
 21
96.9913906945
  0
LINE
  5
388
100
AcDbEntity
  8
0
100
AcDbLine
 62
7
  6
CONTINUOUS
 10
262.8484583051
 20
135.089980349
 11
262.8484583051
 21
133.8912432261
  0
LINE
  5
389
100
AcDbEntity
  8
0
100
AcDbLine
 62
7
  6
CONTINUOUS
 10
263.4301842097
 20
72.6606622121
 11
263.4301842097
 21
58.6610322412
  0
LINE
  5
38A
100
AcDbEntity
  8
0
100
AcDbLine
 62
7
  6
CONTINUOUS
 10
263.7166438993
 20
96.7599664053
 11
263.7166438993
 21
101.4617896599
  0
LINE
  5
38B
100
AcDbEntity
  8
0
100
AcDbLine
 62
7
  6
CONTINUOUS
 10
263.7166438993
 20
106.0616650029
 11
263.7166438993
 21
110.7606568196
  0
LINE
  5
38C
100
AcDbEntity
  8
0
100
AcDbLine
 62
7
  6
CONTINUOUS
 10
264.5735252738
 20
147.39169501
 11
264.5735252738
 21
144.1616596104
  0
LINE
  5
38D
100
AcDbEntity
  8
0
100
AcDbLine
 62
7
  6
CONTINUOUS
 10
264.5735252738
 20
139.5617896504
 11
264.5735252738
 21
135.089980349
  0
LINE
  5
38E
100
AcDbEntity
  8
0
100
AcDbLine
 62
7
  6
CONTINUOUS
 10
266.0992934687
 20
134.8613821147
 11
266.0992934687
 21
139.5617896504
  0
LINE
  5
38F
100
AcDbEntity
  8
0
100
AcDbLine
 62
7
  6
CONTINUOUS
 10
266.0992934687
 20
144.1616596104
 11
266.0992934687
 21
148.8606621931
  0
LINE
  5
390
100
AcDbEntity
  8
0
100
AcDbLine
 62
7
  6
CONTINUOUS
 10
270.8617934675
 20
115.811026844
 11
270.8617934675
 21
129.8106621978
  0
LINE
  5
391
100
AcDbEntity
  8
0
100
AcDbLine
 62
7
  6
CONTINUOUS
 10
272.9548181659
 20
91.7106622073
 11
272.9548181659
 21
87.0102492887
  0
LINE
  5
392
100
AcDbEntity
  8
0
100
AcDbLine
 62
7
  6
CONTINUOUS
 10
272.9548181659
 20
82.4117896646
 11
272.9548181659
 21
77.711376746
  0
LINE
  5
393
100
AcDbEntity
  8
0
100
AcDbLine
 62
7
  6
CONTINUOUS
 10
273.2430434669
 20
58.6610322412
 11
273.2430434669
 21
72.6606622121
  0
LINE
  5
394
100
AcDbEntity
  8
0
100
AcDbLine
 62
7
  6
CONTINUOUS
 10
274.4802633831
 20
77.9413906993
 11
274.4802633831
 21
82.4117896646
  0
LINE
  5
395
100
AcDbEntity
  8
0
100
AcDbLine
 62
7
  6
CONTINUOUS
 10
274.4802633831
 20
87.0102492887
 11
274.4802633831
 21
90.2416842584
  0
LINE
  5
396
100
AcDbEntity
  8
0
100
AcDbLine
 62
7
  6
CONTINUOUS
 10
276.2042537594
 20
76.7412378574
 11
276.2042537594
 21
77.9413906993
  0
LINE
  5
397
100
AcDbEntity
  8
0
100
AcDbLine
 62
7
  6
CONTINUOUS
 10
277.7173181647
 20
110.7606568196
 11
277.7173181647
 21
106.0616650029
  0
LINE
  5
398
100
AcDbEntity
  8
0
100
AcDbLine
 62
7
  6
CONTINUOUS
 10
277.7173181647
 20
101.4617896599
 11
277.7173181647
 21
96.7599664053
  0
LINE
  5
399
100
AcDbEntity
  8
0
100
AcDbLine
 62
7
  6
CONTINUOUS
 10
279.2427633819
 20
96.9913906945
 11
279.2427633819
 21
101.4617896599
  0
LINE
  5
39A
100
AcDbEntity
  8
0
100
AcDbLine
 62
7
  6
CONTINUOUS
 10
279.2427633819
 20
106.0616650029
 11
279.2427633819
 21
109.2902846836
  0
LINE
  5
39B
100
AcDbEntity
  8
0
100
AcDbLine
 62
7
  6
CONTINUOUS
 10
279.5048490209
 20
77.9413906993
 11
279.5048490209
 21
76.7412378574
  0
LINE
  5
39C
100
AcDbEntity
  8
0
100
AcDbLine
 62
7
  6
CONTINUOUS
 10
280.0985681641
 20
148.8606621931
 11
280.0985681641
 21
144.1616596104
  0
LINE
  5
39D
100
AcDbEntity
  8
0
100
AcDbLine
 62
7
  6
CONTINUOUS
 10
280.0985681641
 20
139.5617896504
 11
280.0985681641
 21
134.8613821147
  0
LINE
  5
39E
100
AcDbEntity
  8
0
100
AcDbLine
 62
7
  6
CONTINUOUS
 10
280.968196392
 20
95.7898382826
 11
280.968196392
 21
96.9913906945
  0
LINE
  5
39F
100
AcDbEntity
  8
0
100
AcDbLine
 62
7
  6
CONTINUOUS
 10
281.2299375215
 20
90.2416842584
 11
281.2299375215
 21
87.0102492887
  0
LINE
  5
3A0
100
AcDbEntity
  8
0
100
AcDbLine
 62
7
  6
CONTINUOUS
 10
281.2299375215
 20
84.2113029936
 11
281.2299375215
 21
77.9413906993
  0
LINE
  5
3A1
100
AcDbEntity
  8
0
100
AcDbLine
 62
7
  6
CONTINUOUS
 10
281.6240133813
 20
135.089980349
 11
281.6240133813
 21
139.5617896504
  0
LINE
  5
3A2
100
AcDbEntity
  8
0
100
AcDbLine
 62
7
  6
CONTINUOUS
 10
281.6240133813
 20
144.1616596104
 11
281.6240133813
 21
147.39169501
  0
LINE
  5
3A3
100
AcDbEntity
  8
0
100
AcDbLine
 62
7
  6
CONTINUOUS
 10
282.0554254634
 20
87.0102492887
 11
282.0554254634
 21
84.2113029936
  0
LINE
  5
3A4
100
AcDbEntity
  8
0
100
AcDbLine
 62
7
  6
CONTINUOUS
 10
283.3494463914
 20
133.8912432261
 11
283.3494463914
 21
135.089980349
  0
LINE
  5
3A5
100
AcDbEntity
  8
0
100
AcDbLine
 62
7
  6
CONTINUOUS
 10
284.2673490197
 20
96.9913906945
 11
284.2673490197
 21
95.7898382826
  0
LINE
  5
3A6
100
AcDbEntity
  8
0
100
AcDbLine
 62
7
  6
CONTINUOUS
 10
284.8614342043
 20
129.8106621978
 11
284.8614342043
 21
115.811026844
  0
LINE
  5
3A7
100
AcDbEntity
  8
0
100
AcDbLine
 62
7
  6
CONTINUOUS
 10
285.9924375203
 20
109.2902846836
 11
285.9924375203
 21
106.0616650029
  0
LINE
  5
3A8
100
AcDbEntity
  8
0
100
AcDbLine
 62
7
  6
CONTINUOUS
 10
285.9924375203
 20
103.2598926529
 11
285.9924375203
 21
96.9913906945
  0
LINE
  5
3A9
100
AcDbEntity
  8
0
100
AcDbLine
 62
7
  6
CONTINUOUS
 10
286.6485990191
 20
135.089980349
 11
286.6485990191
 21
133.8912432261
  0
LINE
  5
3AA
100
AcDbEntity
  8
0
100
AcDbLine
 62
7
  6
CONTINUOUS
 10
286.8179254622
 20
106.0616650029
 11
286.8179254622
 21
103.2598926529
  0
LINE
  5
3AB
100
AcDbEntity
  8
0
100
AcDbLine
 62
7
  6
CONTINUOUS
 10
287.2426842037
 20
72.6606622121
 11
287.2426842037
 21
58.6610322412
  0
LINE
  5
3AC
100
AcDbEntity
  8
0
100
AcDbLine
 62
7
  6
CONTINUOUS
 10
288.3736875197
 20
147.39169501
 11
288.3736875197
 21
144.1616596104
  0
LINE
  5
3AD
100
AcDbEntity
  8
0
100
AcDbLine
 62
7
  6
CONTINUOUS
 10
288.3736875197
 20
141.3613083623
 11
288.3736875197
 21
135.089980349
  0
LINE
  5
3AE
100
AcDbEntity
  8
0
100
AcDbLine
 62
7
  6
CONTINUOUS
 10
289.1991754616
 20
144.1616596104
 11
289.1991754616
 21
141.3613083623
  0
LINE
  5
3AF
100
AcDbEntity
  8
0
100
AcDbLine
 62
7
  6
CONTINUOUS
 10
291.7753519136
 20
57.7594368931
 11
291.7753519136
 21
92.0788634967
  0
LINE
  5
3B0
100
AcDbEntity
  8
0
100
AcDbLine
 62
7
  6
CONTINUOUS
 10
291.7753519136
 20
97.0788634967
 11
291.7753519136
 21
149.7594368693
  0
ARC
  5
3B1
100
AcDbEntity
  8
0
100
AcDbCircle
 62
7
  6
CONTINUOUS
 10
288.6035602014
 20
94.5788634967
 40
2.5001591364
100
AcDbArc
 50
90.6464589006
 51
269.3535410994
  0
ARC
  5
3B2
100
AcDbEntity
  8
0
100
AcDbCircle
 62
7
  6
CONTINUOUS
 10
9.2035602726
 20
94.560184945
 40
2.5001591364
100
AcDbArc
 50
269.3535410994
 51
90.6464589006
  0
CIRCLE
  5
3B3
100
AcDbEntity
  8
0
100
AcDbCircle
 62
7
  6
CONTINUOUS
 10
266.8253042785
 20
123.1611488277
 40
2.5
  0
CIRCLE
  5
3B4
100
AcDbEntity
  8
0
100
AcDbCircle
 62
7
  6
CONTINUOUS
 10
197.2744677752
 20
65.8608619344
 40
2.5
  0
CIRCLE
  5
3B5
100
AcDbEntity
  8
0
100
AcDbCircle
 62
7
  6
CONTINUOUS
 10
31.9751582767
 20
123.1597438747
 40
2.5
  0
CIRCLE
  5
3B6
100
AcDbEntity
  8
02___PRT_ALL_AXES
100
AcDbCircle
 62
7
  6
CONTINUOUS
 10
206.4753519136
 20
113.7594368812
 40
1.75
  0
CIRCLE
  5
3B7
100
AcDbEntity
  8
02___PRT_ALL_AXES
100
AcDbCircle
 62
7
  6
CONTINUOUS
 10
149.2753519493
 20
60.3603793334
 40
1.75
  0
CIRCLE
  5
3B8
100
AcDbEntity
  8
02___PRT_ALL_AXES
100
AcDbCircle
 62
7
  6
CONTINUOUS
 10
288.7753519136
 20
129.2594368812
 40
1.75
  0
CIRCLE
  5
3B9
100
AcDbEntity
  8
02___PRT_ALL_AXES
100
AcDbCircle
 62
7
  6
CONTINUOUS
 10
10.7753519849
 20
131.7594368812
 40
1.75
  0
CIRCLE
  5
3BA
100
AcDbEntity
  8
02___PRT_ALL_AXES
100
AcDbCircle
 62
7
  6
CONTINUOUS
 10
73.0753519849
 20
113.7594368812
 40
1.75
  0
CIRCLE
  5
3BB
100
AcDbEntity
  8
02___PRT_ALL_AXES
100
AcDbCircle
 62
7
  6
CONTINUOUS
 10
268.2753519493
 20
65.7594368812
 40
1.75
  0
CIRCLE
  5
3BC
100
AcDbEntity
  8
02___PRT_ALL_AXES
100
AcDbCircle
 62
7
  6
CONTINUOUS
 10
30.2753519493
 20
65.7594368812
 40
1.75
  0
CIRCLE
  5
3BD
100
AcDbEntity
  8
02___PRT_ALL_AXES
100
AcDbCircle
 62
7
  6
CONTINUOUS
 10
139.7753519493
 20
132.7594368812
 40
1.75
  0
ARC
  5
3BE
100
AcDbEntity
  8
0
100
AcDbCircle
 62
7
  6
CONTINUOUS
 10
8.2753519849
 20
57.7594368931
 40
1.5
100
AcDbArc
 50
180.0
 51
270.0
  0
ARC
  5
3BF
100
AcDbEntity
  8
0
100
AcDbCircle
 62
7
  6
CONTINUOUS
 10
290.2753519136
 20
57.7594368931
 40
1.5
100
AcDbArc
 50
270.0
 51
360.0
  0
ARC
  5
3C0
100
AcDbEntity
  8
0
100
AcDbCircle
 62
7
  6
CONTINUOUS
 10
290.2753519136
 20
149.7594368693
 40
1.5
100
AcDbArc
 50
0.0
 51
90.0
  0
ARC
  5
3C1
100
AcDbEntity
  8
0
100
AcDbCircle
 62
7
  6
CONTINUOUS
 10
8.2753519849
 20
149.7594368693
 40
1.5
100
AcDbArc
 50
90.0
 51
180.0
  0
CIRCLE
  5
3C2
100
AcDbEntity
  8
02___PRT_ALL_AXES
100
AcDbCircle
 62
7
  6
CONTINUOUS
 10
149.2753519136
 20
113.4594368812
 40
1.25
  0
CIRCLE
  5
3C3
100
AcDbEntity
  8
02___PRT_ALL_AXES
100
AcDbCircle
 62
7
  6
CONTINUOUS
 10
10.7753519849
 20
113.4594368812
 40
1.25
  0
ARC
  5
3C4
100
AcDbEntity
  8
0
100
AcDbCircle
 62
7
  6
CONTINUOUS
 10
136.7617935009
 20
100.0094368812
 40
0.75
100
AcDbArc
 50
0.0
 51
90.0
  0
ARC
  5
3C5
100
AcDbEntity
  8
0
100
AcDbCircle
 62
7
  6
CONTINUOUS
 10
133.2124893029
 20
100.0094368812
 40
0.75
100
AcDbArc
 50
90.0
 51
180.0
  0
ARC
  5
3C6
100
AcDbEntity
  8
0
100
AcDbCircle
 62
7
  6
CONTINUOUS
 10
133.2124893029
 20
107.5094368812
 40
0.75
100
AcDbArc
 50
180.0
 51
270.0
  0
ARC
  5
3C7
100
AcDbEntity
  8
0
100
AcDbCircle
 62
7
  6
CONTINUOUS
 10
136.7617935009
 20
107.5094368812
 40
0.75
100
AcDbArc
 50
270.0
 51
360.0
  0
ENDSEC
  0
SECTION
  2
OBJECTS
  0
DICTIONARY
  5
C
100
AcDbDictionary
280
0
281
1
  3
ACAD_GROUP
350
D
  3
ACAD_MLINESTYLE
350
17
  3
ACAD_LAYOUT
350
1A
  3
ACAD_PLOTSETTINGS
350
19
  3
ACAD_PLOTSTYLENAME
350
E
  0
DICTIONARY
  5
D
102
{ACAD_REACTORS
330
C
102
}
100
AcDbDictionary
280
0
281
1
  0
ACDBDICTIONARYWDFLT
  5
E
102
{ACAD_REACTORS
330
C
102
}
100
AcDbDictionary
281
1
  3
Normal
350
F
100
AcDbDictionaryWithDefault
340
F
  0
DICTIONARY
  5
17
102
{ACAD_REACTORS
330
C
102
}
100
AcDbDictionary
280
0
281
1
  3
Standard
350
18
  0
DICTIONARY
  5
19
102
{ACAD_REACTORS
330
C
102
}
100
AcDbDictionary
281
1
  0
DICTIONARY
  5
1A
102
{ACAD_REACTORS
330
C
102
}
100
AcDbDictionary
281
1
  3
Model
350
3C8
  3
Layout1
350
3C9
  0
ACDBPLACEHOLDER
  5
F
102
{ACAD_REACTORS
330
E
102
}
  0
MLINESTYLE
  5
18
102
{ACAD_REACTORS
330
17
102
}
100
AcDbMlineStyle
  2
STANDARD
 70
0
  3

 62
256
 51
90.0
 52
90.0
 71
2
 49
0.5
 62
256
  6
BYLAYER
 49
-0.5
 62
256
  6
BYLAYER
  0
LAYOUT
  5
3C8
102
{ACAD_REACTORS
330
1A
102
}
100
AcDbPlotSettings
  1

  2
none_device
  4
ISO_A4_(297.00_x_210.00_MM)
  6

 40
0.0
 41
0.0
 42
0.0
 43
0.0
 44
297.0
 45
210.0
 46
0.0
 47
0.0
 48
0.0
 49
0.0
140
0.0
141
0.0
142
1.0
143
1.0
 70
1024
 72
1
 73
0
 74
0
  7

 75
0
147
1.0
148
0.0
149
0.0
100
AcDbLayout
  1
Model
 70
0
 71
0
 10
0.0
 20
0.0
 11
297.0
 21
210.0
 12
0.0
 22
0.0
 32
0.0
 14
0.0
 24
0.0
 34
0.0
 15
0.0
 25
0.0
 35
0.0
146
0.0
 13
0.0
 23
0.0
 33
0.0
 16
1.0
 26
0.0
 36
0.0
 17
0.0
 27
1.0
 37
0.0
 76
0
330
208
345
0
346
0
  0
LAYOUT
  5
3C9
102
{ACAD_REACTORS
330
1A
102
}
100
AcDbPlotSettings
  1

  2
none_device
  4
ISO_A4_(297.00_x_210.00_MM)
  6

 40
0.0
 41
0.0
 42
0.0
 43
0.0
 44
297.0
 45
210.0
 46
0.0
 47
0.0
 48
0.0
 49
0.0
140
0.0
141
0.0
142
1.0
143
1.0
 70
0
 72
1
 73
0
 74
0
  7

 75
0
147
1.0
148
0.0
149
0.0
100
AcDbLayout
  1
Layout1
 70
0
 71
1
 10
0.0
 20
0.0
 11
297.0
 21
210.0
 12
0.0
 22
0.0
 32
0.0
 14
0.0
 24
0.0
 34
0.0
 15
0.0
 25
0.0
 35
0.0
146
0.0
 13
0.0
 23
0.0
 33
0.0
 16
1.0
 26
0.0
 36
0.0
 17
0.0
 27
1.0
 37
0.0
 76
0
330
209
345
0
346
0
  0
ENDSEC
  0
EOF
