999
DXF file: 60he_plate-iso_220705.dxf
999
Pro/ENGINEER 2014000 by Parametric Technology Corporation
  0
SECTION
  2
HEADER
  9
$ACADVER
  1
AC1021
  9
$DWGCODEPAGE
  3
ANSI_950
  9
$EXTMAX
 10
297.0
 20
210.0
 30
0.0
  9
$EXTMIN
 10
0.0
 20
0.0
 30
0.0
  9
$LIMMIN
 10
0.0
 20
0.0
  9
$LIMMAX
 10
297.0
 20
210.0
  9
$VIEWCTR
 10
148.5
 20
105.0
  9
$VIEWSIZE
 40
210.0
  9
$CLAYER
  8
0
  9
$LTSCALE
 40
16.335
  9
$CELTYPE
  6
BYLAYER
  9
$DIMSCALE
 40
1.0
  9
$DIMASZ
 40
3.5
  9
$DIMEXO
 40
1.0
  9
$DIMDLI
 40
11.286
  9
$DIMEXE
 40
1.5
  9
$DIMCEN
 40
2.673
  9
$DIMLFAC
 40
1.0
  9
$DIMBLK
  1
_FILLED
  9
$DIMTXT
 40
3.5
  9
$DIMTOL
 70
1
  9
$DIMLIM
 70
0
  9
$DIMTFAC
 40
1.0
  9
$DIMTP
 40
0.01
  9
$DIMTM
 40
0.01
  9
$DIMGAP
 40
0.625
  9
$DIMDSEP
 70
44
  9
$PDMODE
 70
3
  9
$PDSIZE
 40
8.0
  9
$HANDSEED
  5
3AE
  9
$TILEMODE
 70
1
  9
$MEASUREMENT
 70
1
  9
$INSUNITS
 70
4
  0
ENDSEC
  0
SECTION
  2
CLASSES
  0
CLASS
  1
ACDBDICTIONARYWDFLT
  2
AcDbDictionaryWithDefault
  3
AutoCAD 2000
 90
0
 91
1
280
0
281
0
  0
CLASS
  1
ACDBPLACEHOLDER
  2
AcDbPlaceHolder
  3
AutoCAD 2000
 90
0
 91
1
280
0
281
0
  0
CLASS
  1
LAYOUT
  2
AcDbLayout
  3
AutoCAD 2000
 90
0
 91
0
280
0
281
0
  0
ENDSEC
  0
SECTION
  2
TABLES
  0
TABLE
  2
VPORT
  5
8
100
AcDbSymbolTable
 70
2
  0
VPORT
  5
1F4
100
AcDbSymbolTableRecord
100
AcDbViewportTableRecord
  2
*ACTIVE
 70
0
 10
0.0
 20
0.0
 11
1.0
 21
1.0
 12
148.5
 22
105.0
 13
0.0
 23
0.0
 14
1.0
 24
1.0
 15
0.0
 25
0.0
 16
0.0
 26
0.0
 36
1.0
 17
0.0
 27
0.0
 37
0.0
 40
210.0
 41
1.4142857143
 42
50.0
 43
0.0
 44
0.0
 50
0.0
 51
0.0
 71
0
 72
100
 73
1
 74
1
 75
0
 76
0
 77
0
 78
0
  0
ENDTAB
  0
TABLE
  2
LTYPE
  5
5
100
AcDbSymbolTable
 70
6
  0
LTYPE
  5
14
100
AcDbSymbolTableRecord
100
AcDbLinetypeTableRecord
  2
BYBLOCK
 70
0
  3

 72
65
 73
0
 40
0.0
  0
LTYPE
  5
15
100
AcDbSymbolTableRecord
100
AcDbLinetypeTableRecord
  2
BYLAYER
 70
0
  3

 72
65
 73
0
 40
0.0
  0
LTYPE
  5
16
100
AcDbSymbolTableRecord
100
AcDbLinetypeTableRecord
  2
CONTINUOUS
 70
64
  3
Solid line
 72
65
 73
0
 40
0.0
  0
LTYPE
  5
1F5
100
AcDbSymbolTableRecord
100
AcDbLinetypeTableRecord
  2
CENTER
 70
64
  3
____ _ ____ _ ____ _ ____ _ ____ _ ____ _ ____
 72
65
 73
4
 40
0.6
 49
0.375
 74
0
 49
-0.075
 74
0
 49
0.075
 74
0
 49
-0.075
 74
0
  0
LTYPE
  5
1F6
100
AcDbSymbolTableRecord
100
AcDbLinetypeTableRecord
  2
HIDDEN
 70
64
  3
- - - - - - - - - - - - - - - - - - - -
 72
65
 73
2
 40
0.2
 49
0.1
 74
0
 49
-0.1
 74
0
  0
LTYPE
  5
1F7
100
AcDbSymbolTableRecord
100
AcDbLinetypeTableRecord
  2
PHANTOM
 70
64
  3
_____ _ _ _____ _ _ _____ _ _ _____
 72
65
 73
6
 40
0.8
 49
0.45
 74
0
 49
-0.05
 74
0
 49
0.1
 74
0
 49
-0.05
 74
0
 49
0.1
 74
0
 49
-0.05
 74
0
  0
LTYPE
  5
1F8
100
AcDbSymbolTableRecord
100
AcDbLinetypeTableRecord
  2
DOT
 70
64
  3
. . . . . . . . . . . . . . . . . . . .
 72
65
 73
2
 40
0.2
 49
0.1
 74
0
 49
-0.1
 74
0
  0
LTYPE
  5
1F9
100
AcDbSymbolTableRecord
100
AcDbLinetypeTableRecord
  2
DASHED
 70
64
  3
- - - - - - - - - - - - - - - - - - - -
 72
65
 73
2
 40
0.2
 49
0.1
 74
0
 49
-0.1
 74
0
  0
ENDTAB
  0
TABLE
  2
LAYER
  5
2
100
AcDbSymbolTable
 70
36
  0
LAYER
  5
10
100
AcDbSymbolTableRecord
100
AcDbLayerTableRecord
  2
0
 70
0
 62
7
  6
CONTINUOUS
370
-3
390
F
  0
LAYER
  5
1FA
100
AcDbSymbolTableRecord
100
AcDbLayerTableRecord
  2
DEFAULT_1
 70
0
 62
7
  6
CENTER
370
-3
390
F
  0
LAYER
  5
1FB
100
AcDbSymbolTableRecord
100
AcDbLayerTableRecord
  2
DEFAULT_2
 70
0
 62
8
  6
HIDDEN
370
-3
390
F
  0
LAYER
  5
1FC
100
AcDbSymbolTableRecord
100
AcDbLayerTableRecord
  2
DEFAULT_3
 70
0
 62
7
  6
PHANTOM
370
-3
390
F
  0
LAYER
  5
1FD
100
AcDbSymbolTableRecord
100
AcDbLayerTableRecord
  2
01___PRT_ALL_DTM_PLN
 70
0
 62
7
  6
CONTINUOUS
370
-3
390
F
  0
LAYER
  5
1FE
100
AcDbSymbolTableRecord
100
AcDbLayerTableRecord
  2
01___PRT_DEF_DTM_PLN
 70
0
 62
7
  6
CONTINUOUS
370
-3
390
F
  0
LAYER
  5
1FF
100
AcDbSymbolTableRecord
100
AcDbLayerTableRecord
  2
02___PRT_ALL_AXES
 70
0
 62
7
  6
CONTINUOUS
370
-3
390
F
  0
LAYER
  5
200
100
AcDbSymbolTableRecord
100
AcDbLayerTableRecord
  2
03___PRT_ALL_CURVES
 70
0
 62
7
  6
CONTINUOUS
370
-3
390
F
  0
LAYER
  5
201
100
AcDbSymbolTableRecord
100
AcDbLayerTableRecord
  2
04___PRT_ALL_DTM_PNT
 70
0
 62
7
  6
CONTINUOUS
370
-3
390
F
  0
LAYER
  5
202
100
AcDbSymbolTableRecord
100
AcDbLayerTableRecord
  2
05___PRT_ALL_DTM_CSYS
 70
0
 62
7
  6
CONTINUOUS
370
-3
390
F
  0
LAYER
  5
203
100
AcDbSymbolTableRecord
100
AcDbLayerTableRecord
  2
05___PRT_DEF_DTM_CSYS
 70
0
 62
7
  6
CONTINUOUS
370
-3
390
F
  0
LAYER
  5
204
100
AcDbSymbolTableRecord
100
AcDbLayerTableRecord
  2
06___PRT_ALL_SURFS
 70
0
 62
7
  6
CONTINUOUS
370
-3
390
F
  0
LAYER
  5
205
100
AcDbSymbolTableRecord
100
AcDbLayerTableRecord
  2
3_ALL_SYMBOLS
 70
0
 62
7
  6
CONTINUOUS
370
-3
390
F
  0
ENDTAB
  0
TABLE
  2
STYLE
  5
3
100
AcDbSymbolTable
 70
1
  0
STYLE
  5
11
100
AcDbSymbolTableRecord
100
AcDbTextStyleTableRecord
  2
STANDARD
 70
0
 40
0.0
 41
0.85
 50
0.0
 71
0
 42
0.2
  3
txt
  4

  0
STYLE
  5
206
100
AcDbSymbolTableRecord
100
AcDbTextStyleTableRecord
  2
TEXTSTYLE_1
 70
0
 40
0.0
 41
0.8
 50
0.0
 71
0
 42
0.2
  3
gdt
  4

  0
ENDTAB
  0
TABLE
  2
VIEW
  5
6
100
AcDbSymbolTable
 70
0
  0
ENDTAB
  0
TABLE
  2
UCS
  5
7
100
AcDbSymbolTable
 70
0
  0
ENDTAB
  0
TABLE
  2
APPID
  5
9
100
AcDbSymbolTable
 70
1
  0
APPID
  5
207
100
AcDbSymbolTableRecord
100
AcDbRegAppTableRecord
  2
ACAD
 70
0
  0
ENDTAB
  0
TABLE
  2
BLOCK_RECORD
  5
1
100
AcDbSymbolTable
 70
0
  0
BLOCK_RECORD
  5
208
100
AcDbSymbolTableRecord
100
AcDbBlockTableRecord
  2
*Model_Space
  0
BLOCK_RECORD
  5
209
100
AcDbSymbolTableRecord
100
AcDbBlockTableRecord
  2
*Paper_Space
  0
ENDTAB
  0
TABLE
  2
DIMSTYLE
  5
A
100
AcDbSymbolTable
 70
1
100
AcDbDimStyleTable
 71
0
  0
DIMSTYLE
105
20A
100
AcDbSymbolTableRecord
100
AcDbDimStyleTableRecord
  2
STANDARD
 70
0
  3

  4

 40
1.0
 41
3.5
 42
1.0
 43
0.38
 44
1.5
 45
0.0
 46
0.0
 47
0.01
 48
0.01
140
3.5
141
0.09
142
0.0
143
25.4
144
1.0
145
0.0
146
1.0
147
0.625
 71
1.0
 72
0.0
 73
0
 74
0
 75
0
 76
0
 77
1
 78
8
170
0
171
2
172
0
173
0
174
0
175
0
176
0
177
0
178
0
270
2
271
2
272
2
273
2
274
2
275
0
280
0
281
0
282
0
283
1
284
8
285
0
286
0
287
3
288
0
340
11
278
44
  0
ENDTAB
  0
ENDSEC
  0
SECTION
  2
BLOCKS
  0
BLOCK
  5
20
100
AcDbEntity
  8
0
100
AcDbBlockBegin
  2
*Model_Space
 70
0
 10
0.0
 20
0.0
 30
0.0
  3
*Model_Space
  1

  0
ENDBLK
  5
21
100
AcDbEntity
  8
0
100
AcDbBlockEnd
  0
BLOCK
  5
1C
100
AcDbEntity
  8
0
100
AcDbBlockBegin
  2
*Paper_Space
 70
0
 10
0.0
 20
0.0
 30
0.0
  3
*Paper_Space
  1

  0
ENDBLK
  5
1D
100
AcDbEntity
  8
0
100
AcDbBlockEnd
  0
ENDSEC
  0
SECTION
  2
ENTITIES
  0
LINE
  5
20B
100
AcDbEntity
  8
0
100
AcDbLine
 62
7
  6
CONTINUOUS
 10
0.0
 20
0.0
 11
0.0
 21
210.0
  0
LINE
  5
20C
100
AcDbEntity
  8
0
100
AcDbLine
 62
7
  6
CONTINUOUS
 10
0.0
 20
0.0
 11
297.0
 21
0.0
  0
LINE
  5
20D
100
AcDbEntity
  8
0
100
AcDbLine
 62
7
  6
CONTINUOUS
 10
0.0
 20
210.0
 11
297.0
 21
210.0
  0
LINE
  5
20E
100
AcDbEntity
  8
0
100
AcDbLine
 62
7
  6
CONTINUOUS
 10
297.0
 20
0.0
 11
297.0
 21
210.0
  0
LINE
  5
20F
100
AcDbEntity
  8
0
100
AcDbLine
 62
7
  6
CONTINUOUS
 10
7.0854927646
 20
141.695776597
 11
7.0854927646
 21
88.9972271492
  0
LINE
  5
210
100
AcDbEntity
  8
0
100
AcDbLine
 62
7
  6
CONTINUOUS
 10
7.0854927646
 20
83.9972271492
 11
7.0854927646
 21
49.6957766208
  0
LINE
  5
211
100
AcDbEntity
  8
02___PRT_ALL_AXES
100
AcDbLine
 62
7
  6
CONTINUOUS
 10
9.2344450786
 20
126.797366567
 11
9.2344450786
 21
140.7970019208
  0
LINE
  5
212
100
AcDbEntity
  8
02___PRT_ALL_AXES
100
AcDbLine
 62
7
  6
CONTINUOUS
 10
11.615695078
 20
50.597371969
 11
11.615695078
 21
64.5970019398
  0
LINE
  5
213
100
AcDbEntity
  8
02___PRT_ALL_AXES
100
AcDbLine
 62
7
  6
CONTINUOUS
 10
11.615695078
 20
69.6473719642
 11
11.615695078
 21
83.6470019351
  0
LINE
  5
214
100
AcDbEntity
  8
02___PRT_ALL_AXES
100
AcDbLine
 62
7
  6
CONTINUOUS
 10
13.9983554134
 20
107.7473665717
 11
13.9983554134
 21
121.7470019255
  0
LINE
  5
215
100
AcDbEntity
  8
02___PRT_ALL_AXES
100
AcDbLine
 62
7
  6
CONTINUOUS
 10
16.3796054128
 20
88.6959616235
 11
16.3796054128
 21
102.6969965473
  0
LINE
  5
216
100
AcDbEntity
  8
02___PRT_ALL_AXES
100
AcDbLine
 62
7
  6
CONTINUOUS
 10
23.2354961514
 20
140.7970019208
 11
23.2354961514
 21
126.797366567
  0
LINE
  5
217
100
AcDbEntity
  8
02___PRT_ALL_AXES
100
AcDbLine
 62
7
  6
CONTINUOUS
 10
25.6167461508
 20
83.6470019351
 11
25.6167461508
 21
69.6473719642
  0
LINE
  5
218
100
AcDbEntity
  8
02___PRT_ALL_AXES
100
AcDbLine
 62
7
  6
CONTINUOUS
 10
25.6167461508
 20
64.5970019398
 11
25.6167461508
 21
50.597371969
  0
LINE
  5
219
100
AcDbEntity
  8
02___PRT_ALL_AXES
100
AcDbLine
 62
7
  6
CONTINUOUS
 10
27.9979853843
 20
121.7470019255
 11
27.9979853843
 21
107.7473665717
  0
LINE
  5
21A
100
AcDbEntity
  8
02___PRT_ALL_AXES
100
AcDbLine
 62
7
  6
CONTINUOUS
 10
28.2844450739
 20
126.797366567
 11
28.2844450739
 21
140.7970019208
  0
LINE
  5
21B
100
AcDbEntity
  8
02___PRT_ALL_AXES
100
AcDbLine
 62
7
  6
CONTINUOUS
 10
30.3792353837
 20
102.6969965473
 11
30.3792353837
 21
88.6959616235
  0
LINE
  5
21C
100
AcDbEntity
  8
02___PRT_ALL_AXES
100
AcDbLine
 62
7
  6
CONTINUOUS
 10
33.0469450727
 20
69.6473719642
 11
33.0469450727
 21
83.6470019351
  0
LINE
  5
21D
100
AcDbEntity
  8
02___PRT_ALL_AXES
100
AcDbLine
 62
7
  6
CONTINUOUS
 10
35.4281950721
 20
50.597371969
 11
35.4281950721
 21
64.5970019398
  0
LINE
  5
21E
100
AcDbEntity
  8
02___PRT_ALL_AXES
100
AcDbLine
 62
7
  6
CONTINUOUS
 10
37.8094450715
 20
107.7473665717
 11
37.8094450715
 21
121.7470019255
  0
LINE
  5
21F
100
AcDbEntity
  8
02___PRT_ALL_AXES
100
AcDbLine
 62
7
  6
CONTINUOUS
 10
42.2854961466
 20
140.7970019208
 11
42.2854961466
 21
126.797366567
  0
LINE
  5
220
100
AcDbEntity
  8
02___PRT_ALL_AXES
100
AcDbLine
 62
7
  6
CONTINUOUS
 10
42.5733554063
 20
88.6959616235
 11
42.5733554063
 21
102.6969965473
  0
LINE
  5
221
100
AcDbEntity
  8
02___PRT_ALL_AXES
100
AcDbLine
 62
7
  6
CONTINUOUS
 10
47.0465750435
 20
83.6470019351
 11
47.0465750435
 21
69.6473719642
  0
LINE
  5
222
100
AcDbEntity
  8
02___PRT_ALL_AXES
100
AcDbLine
 62
7
  6
CONTINUOUS
 10
47.3344343032
 20
126.797366567
 11
47.3344343032
 21
140.7970019208
  0
LINE
  5
223
100
AcDbEntity
  8
02___PRT_ALL_AXES
100
AcDbLine
 62
7
  6
CONTINUOUS
 10
49.427825043
 20
64.5970019398
 11
49.427825043
 21
50.597371969
  0
LINE
  5
224
100
AcDbEntity
  8
02___PRT_ALL_AXES
100
AcDbLine
 62
7
  6
CONTINUOUS
 10
51.8090750424
 20
121.7470019255
 11
51.8090750424
 21
107.7473665717
  0
LINE
  5
225
100
AcDbEntity
  8
02___PRT_ALL_AXES
100
AcDbLine
 62
7
  6
CONTINUOUS
 10
52.0983661698
 20
69.6473719642
 11
52.0983661698
 21
83.6470019351
  0
LINE
  5
226
100
AcDbEntity
  8
02___PRT_ALL_AXES
100
AcDbLine
 62
7
  6
CONTINUOUS
 10
56.5729853771
 20
102.6969965473
 11
56.5729853771
 21
88.6959616235
  0
LINE
  5
227
100
AcDbEntity
  8
02___PRT_ALL_AXES
100
AcDbLine
 62
7
  6
CONTINUOUS
 10
56.8594450667
 20
107.7473665717
 11
56.8594450667
 21
121.7470019255
  0
LINE
  5
228
100
AcDbEntity
  8
02___PRT_ALL_AXES
100
AcDbLine
 62
7
  6
CONTINUOUS
 10
59.2406950661
 20
50.597371969
 11
59.2406950661
 21
64.5970019398
  0
LINE
  5
229
100
AcDbEntity
  8
02___PRT_ALL_AXES
100
AcDbLine
 62
7
  6
CONTINUOUS
 10
61.3354853759
 20
140.7970019208
 11
61.3354853759
 21
126.797366567
  0
LINE
  5
22A
100
AcDbEntity
  8
02___PRT_ALL_AXES
100
AcDbLine
 62
7
  6
CONTINUOUS
 10
61.6205293466
 20
88.6959616235
 11
61.6205293466
 21
102.6969965473
  0
LINE
  5
22B
100
AcDbEntity
  8
02___PRT_ALL_AXES
100
AcDbLine
 62
7
  6
CONTINUOUS
 10
66.0979961407
 20
83.6470019351
 11
66.0979961407
 21
69.6473719642
  0
LINE
  5
22C
100
AcDbEntity
  8
02___PRT_ALL_AXES
100
AcDbLine
 62
7
  6
CONTINUOUS
 10
66.3844450643
 20
126.797366567
 11
66.3844450643
 21
140.7970019208
  0
LINE
  5
22D
100
AcDbEntity
  8
02___PRT_ALL_AXES
100
AcDbLine
 62
7
  6
CONTINUOUS
 10
70.8604907565
 20
121.7470019255
 11
70.8604907565
 21
107.7473665717
  0
LINE
  5
22E
100
AcDbEntity
  8
02___PRT_ALL_AXES
100
AcDbLine
 62
7
  6
CONTINUOUS
 10
71.1483553991
 20
69.6473719642
 11
71.1483553991
 21
83.6470019351
  0
LINE
  5
22F
100
AcDbEntity
  8
02___PRT_ALL_AXES
100
AcDbLine
 62
7
  6
CONTINUOUS
 10
73.2417407559
 20
64.5970019398
 11
73.2417407559
 21
50.597371969
  0
LINE
  5
230
100
AcDbEntity
  8
02___PRT_ALL_AXES
100
AcDbLine
 62
7
  6
CONTINUOUS
 10
75.6215750364
 20
102.6969965473
 11
75.6215750364
 21
88.6959616235
  0
LINE
  5
231
100
AcDbEntity
  8
02___PRT_ALL_AXES
100
AcDbLine
 62
7
  6
CONTINUOUS
 10
75.909445062
 20
107.7473665717
 11
75.909445062
 21
121.7470019255
  0
LINE
  5
232
100
AcDbEntity
  8
02___PRT_ALL_AXES
100
AcDbLine
 62
7
  6
CONTINUOUS
 10
80.3840804182
 20
140.7970019208
 11
80.3840804182
 21
126.797366567
  0
LINE
  5
233
100
AcDbEntity
  8
02___PRT_ALL_AXES
100
AcDbLine
 62
7
  6
CONTINUOUS
 10
80.6719396778
 20
88.6959616235
 11
80.6719396778
 21
102.6969965473
  0
LINE
  5
234
100
AcDbEntity
  8
0
100
AcDbLine
 62
7
  6
CONTINUOUS
 10
83.4804191981
 20
58.0970756923
 11
83.4804191981
 21
55.2967190612
  0
LINE
  5
235
100
AcDbEntity
  8
0
100
AcDbLine
 62
7
  6
CONTINUOUS
 10
84.30450757
 20
64.3669987525
 11
84.30450757
 21
58.0970756923
  0
LINE
  5
236
100
AcDbEntity
  8
0
100
AcDbLine
 62
7
  6
CONTINUOUS
 10
84.30450757
 20
55.2967190612
 11
84.30450757
 21
52.0666944275
  0
LINE
  5
237
100
AcDbEntity
  8
02___PRT_ALL_AXES
100
AcDbLine
 62
7
  6
CONTINUOUS
 10
85.14798537
 20
83.6470019351
 11
85.14798537
 21
69.6473719642
  0
LINE
  5
238
100
AcDbEntity
  8
02___PRT_ALL_AXES
100
AcDbLine
 62
7
  6
CONTINUOUS
 10
85.4344450596
 20
126.797366567
 11
85.4344450596
 21
140.7970019208
  0
LINE
  5
239
100
AcDbEntity
  8
0
100
AcDbLine
 62
7
  6
CONTINUOUS
 10
86.0295745387
 20
65.5671408285
 11
86.0295745387
 21
64.3669987525
  0
LINE
  5
23A
100
AcDbEntity
  8
0
100
AcDbLine
 62
7
  6
CONTINUOUS
 10
89.3301698002
 20
64.3669987525
 11
89.3301698002
 21
65.5671408285
  0
LINE
  5
23B
100
AcDbEntity
  8
02___PRT_ALL_AXES
100
AcDbLine
 62
7
  6
CONTINUOUS
 10
89.9104907518
 20
121.7470019255
 11
89.9104907518
 21
107.7473665717
  0
LINE
  5
23C
100
AcDbEntity
  8
02___PRT_ALL_AXES
100
AcDbLine
 62
7
  6
CONTINUOUS
 10
90.1983553944
 20
69.6473719642
 11
90.1983553944
 21
83.6470019351
  0
LINE
  5
23D
100
AcDbEntity
  8
0
100
AcDbLine
 62
7
  6
CONTINUOUS
 10
91.0541924744
 20
52.0666944275
 11
91.0541924744
 21
55.2967190612
  0
LINE
  5
23E
100
AcDbEntity
  8
0
100
AcDbLine
 62
7
  6
CONTINUOUS
 10
91.0541924744
 20
59.8965890212
 11
91.0541924744
 21
64.3669987525
  0
LINE
  5
23F
100
AcDbEntity
  8
02___PRT_ALL_AXES
100
AcDbLine
 62
7
  6
CONTINUOUS
 10
94.6715750316
 20
102.6969965473
 11
94.6715750316
 21
88.6959616235
  0
LINE
  5
240
100
AcDbEntity
  8
02___PRT_ALL_AXES
100
AcDbLine
 62
7
  6
CONTINUOUS
 10
94.9594504402
 20
107.7473665717
 11
94.9594504402
 21
121.7470019255
  0
LINE
  5
241
100
AcDbEntity
  8
02___PRT_ALL_AXES
100
AcDbLine
 62
7
  6
CONTINUOUS
 10
99.4354853664
 20
140.7970019208
 11
99.4354853664
 21
126.797366567
  0
LINE
  5
242
100
AcDbEntity
  8
02___PRT_ALL_AXES
100
AcDbLine
 62
7
  6
CONTINUOUS
 10
99.7219342901
 20
88.6959616235
 11
99.7219342901
 21
102.6969965473
  0
LINE
  5
243
100
AcDbEntity
  8
02___PRT_ALL_AXES
100
AcDbLine
 62
7
  6
CONTINUOUS
 10
104.1979853652
 20
83.6470019351
 11
104.1979853652
 21
69.6473719642
  0
LINE
  5
244
100
AcDbEntity
  8
02___PRT_ALL_AXES
100
AcDbLine
 62
7
  6
CONTINUOUS
 10
104.4844342889
 20
126.797366567
 11
104.4844342889
 21
140.7970019208
  0
LINE
  5
245
100
AcDbEntity
  8
02___PRT_ALL_AXES
100
AcDbLine
 62
7
  6
CONTINUOUS
 10
108.96049613
 20
121.7470019255
 11
108.96049613
 21
107.7473665717
  0
LINE
  5
246
100
AcDbEntity
  8
02___PRT_ALL_AXES
100
AcDbLine
 62
7
  6
CONTINUOUS
 10
109.2469342877
 20
69.6473719642
 11
109.2469342877
 21
83.6470019351
  0
LINE
  5
247
100
AcDbEntity
  8
0
100
AcDbLine
 62
7
  6
CONTINUOUS
 10
8.5854927646
 20
48.1957766208
 11
290.5854926933
 21
48.1957766208
  0
LINE
  5
248
100
AcDbEntity
  8
02___PRT_ALL_AXES
100
AcDbLine
 62
7
  6
CONTINUOUS
 10
287.5528249834
 20
50.597371969
 11
273.5531842466
 21
50.597371969
  0
LINE
  5
249
100
AcDbEntity
  8
02___PRT_ALL_AXES
100
AcDbLine
 62
7
  6
CONTINUOUS
 10
263.7403249894
 20
50.597371969
 11
249.7406842526
 21
50.597371969
  0
LINE
  5
24A
100
AcDbEntity
  8
02___PRT_ALL_AXES
100
AcDbLine
 62
7
  6
CONTINUOUS
 10
239.9292460972
 20
50.597371969
 11
225.9296268923
 21
50.597371969
  0
LINE
  5
24B
100
AcDbEntity
  8
02___PRT_ALL_AXES
100
AcDbLine
 62
7
  6
CONTINUOUS
 10
216.1153250013
 20
50.597371969
 11
202.1156842645
 21
50.597371969
  0
LINE
  5
24C
100
AcDbEntity
  8
02___PRT_ALL_AXES
100
AcDbLine
 62
7
  6
CONTINUOUS
 10
73.2417407559
 20
50.597371969
 11
59.2406950661
 21
50.597371969
  0
LINE
  5
24D
100
AcDbEntity
  8
02___PRT_ALL_AXES
100
AcDbLine
 62
7
  6
CONTINUOUS
 10
49.427825043
 20
50.597371969
 11
35.4281950721
 21
50.597371969
  0
LINE
  5
24E
100
AcDbEntity
  8
02___PRT_ALL_AXES
100
AcDbLine
 62
7
  6
CONTINUOUS
 10
25.6167461508
 20
50.597371969
 11
11.615695078
 21
50.597371969
  0
LINE
  5
24F
100
AcDbEntity
  8
0
100
AcDbLine
 62
7
  6
CONTINUOUS
 10
130.6796053842
 20
50.5977164785
 11
144.6788800796
 21
50.5977164785
  0
LINE
  5
250
100
AcDbEntity
  8
0
100
AcDbLine
 62
7
  6
CONTINUOUS
 10
84.30450757
 20
52.0666944275
 11
91.0541924744
 21
52.0666944275
  0
LINE
  5
251
100
AcDbEntity
  8
0
100
AcDbLine
 62
7
  6
CONTINUOUS
 10
184.304642882
 20
52.0666944275
 11
191.0539886598
 21
52.0666944275
  0
LINE
  5
252
100
AcDbEntity
  8
0
100
AcDbLine
 62
7
  6
CONTINUOUS
 10
83.4804191981
 20
55.2967190612
 11
84.30450757
 21
55.2967190612
  0
LINE
  5
253
100
AcDbEntity
  8
0
100
AcDbLine
 62
7
  6
CONTINUOUS
 10
91.0541924744
 20
55.2967190612
 11
130.6796053842
 21
55.2967190612
  0
LINE
  5
254
100
AcDbEntity
  8
0
100
AcDbLine
 62
7
  6
CONTINUOUS
 10
144.6788800796
 20
55.2967190612
 11
184.304642882
 21
55.2967190612
  0
LINE
  5
255
100
AcDbEntity
  8
0
100
AcDbLine
 62
7
  6
CONTINUOUS
 10
191.0539886598
 20
55.2967190612
 11
191.8794873676
 21
55.2967190612
  0
LINE
  5
256
100
AcDbEntity
  8
02___PRT_ALL_AXES
100
AcDbLine
 62
7
  6
CONTINUOUS
 10
113.7215750269
 20
102.6969965473
 11
113.7215750269
 21
88.6959616235
  0
LINE
  5
257
100
AcDbEntity
  8
02___PRT_ALL_AXES
100
AcDbLine
 62
7
  6
CONTINUOUS
 10
114.0094342865
 20
107.7473665717
 11
114.0094342865
 21
121.7470019255
  0
LINE
  5
258
100
AcDbEntity
  8
02___PRT_ALL_AXES
100
AcDbLine
 62
7
  6
CONTINUOUS
 10
118.4854745957
 20
140.7970019208
 11
118.4854745957
 21
126.797366567
  0
LINE
  5
259
100
AcDbEntity
  8
02___PRT_ALL_AXES
100
AcDbLine
 62
7
  6
CONTINUOUS
 10
118.7705347153
 20
88.6959616235
 11
118.7705347153
 21
102.6969965473
  0
LINE
  5
25A
100
AcDbEntity
  8
0
100
AcDbLine
 62
7
  6
CONTINUOUS
 10
191.8794873676
 20
58.0970756923
 11
191.0539886598
 21
58.0970756923
  0
LINE
  5
25B
100
AcDbEntity
  8
0
100
AcDbLine
 62
7
  6
CONTINUOUS
 10
84.30450757
 20
58.0970756923
 11
83.4804191981
 21
58.0970756923
  0
LINE
  5
25C
100
AcDbEntity
  8
0
100
AcDbLine
 62
7
  6
CONTINUOUS
 10
184.304642882
 20
59.8965890212
 11
144.6788800796
 21
59.8965890212
  0
LINE
  5
25D
100
AcDbEntity
  8
0
100
AcDbLine
 62
7
  6
CONTINUOUS
 10
130.6796053842
 20
59.8965890212
 11
91.0541924744
 21
59.8965890212
  0
LINE
  5
25E
100
AcDbEntity
  8
0
100
AcDbLine
 62
7
  6
CONTINUOUS
 10
191.0539886598
 20
64.3669987525
 11
189.3289055422
 21
64.3669987525
  0
LINE
  5
25F
100
AcDbEntity
  8
0
100
AcDbLine
 62
7
  6
CONTINUOUS
 10
186.0297313826
 20
64.3669987525
 11
184.304642882
 21
64.3669987525
  0
LINE
  5
260
100
AcDbEntity
  8
0
100
AcDbLine
 62
7
  6
CONTINUOUS
 10
91.0541924744
 20
64.3669987525
 11
89.3301698002
 21
64.3669987525
  0
LINE
  5
261
100
AcDbEntity
  8
0
100
AcDbLine
 62
7
  6
CONTINUOUS
 10
86.0295745387
 20
64.3669987525
 11
84.30450757
 21
64.3669987525
  0
LINE
  5
262
100
AcDbEntity
  8
0
100
AcDbLine
 62
7
  6
CONTINUOUS
 10
144.6788800796
 20
64.5970019398
 11
130.6796053842
 21
64.5970019398
  0
LINE
  5
263
100
AcDbEntity
  8
02___PRT_ALL_AXES
100
AcDbLine
 62
7
  6
CONTINUOUS
 10
11.615695078
 20
64.5970019398
 11
25.6167461508
 21
64.5970019398
  0
LINE
  5
264
100
AcDbEntity
  8
02___PRT_ALL_AXES
100
AcDbLine
 62
7
  6
CONTINUOUS
 10
35.4281950721
 20
64.5970019398
 11
49.427825043
 21
64.5970019398
  0
LINE
  5
265
100
AcDbEntity
  8
02___PRT_ALL_AXES
100
AcDbLine
 62
7
  6
CONTINUOUS
 10
59.2406950661
 20
64.5970019398
 11
73.2417407559
 21
64.5970019398
  0
LINE
  5
266
100
AcDbEntity
  8
02___PRT_ALL_AXES
100
AcDbLine
 62
7
  6
CONTINUOUS
 10
202.1156842645
 20
64.5970019398
 11
216.1153250013
 21
64.5970019398
  0
LINE
  5
267
100
AcDbEntity
  8
02___PRT_ALL_AXES
100
AcDbLine
 62
7
  6
CONTINUOUS
 10
225.9296268923
 20
64.5970019398
 11
239.9292460972
 21
64.5970019398
  0
LINE
  5
268
100
AcDbEntity
  8
02___PRT_ALL_AXES
100
AcDbLine
 62
7
  6
CONTINUOUS
 10
249.7406842526
 20
64.5970019398
 11
263.7403249894
 21
64.5970019398
  0
LINE
  5
269
100
AcDbEntity
  8
02___PRT_ALL_AXES
100
AcDbLine
 62
7
  6
CONTINUOUS
 10
273.5531842466
 20
64.5970019398
 11
287.5528249834
 21
64.5970019398
  0
LINE
  5
26A
100
AcDbEntity
  8
0
100
AcDbLine
 62
7
  6
CONTINUOUS
 10
189.3289055422
 20
65.5671408285
 11
186.0297313826
 21
65.5671408285
  0
LINE
  5
26B
100
AcDbEntity
  8
0
100
AcDbLine
 62
7
  6
CONTINUOUS
 10
89.3301698002
 20
65.5671408285
 11
86.0295745387
 21
65.5671408285
  0
LINE
  5
26C
100
AcDbEntity
  8
02___PRT_ALL_AXES
100
AcDbLine
 62
7
  6
CONTINUOUS
 10
123.2465750245
 20
83.6470019351
 11
123.2465750245
 21
69.6473719642
  0
LINE
  5
26D
100
AcDbEntity
  8
02___PRT_ALL_AXES
100
AcDbLine
 62
7
  6
CONTINUOUS
 10
123.5344342841
 20
126.797366567
 11
123.5344342841
 21
140.7970019208
  0
LINE
  5
26E
100
AcDbEntity
  8
02___PRT_ALL_AXES
100
AcDbLine
 62
7
  6
CONTINUOUS
 10
128.0090750233
 20
121.7470019255
 11
128.0090750233
 21
107.7473665717
  0
LINE
  5
26F
100
AcDbEntity
  8
02___PRT_ALL_AXES
100
AcDbLine
 62
7
  6
CONTINUOUS
 10
128.2983553848
 20
69.6473719642
 11
128.2983553848
 21
83.6470019351
  0
LINE
  5
270
100
AcDbEntity
  8
0
100
AcDbLine
 62
7
  6
CONTINUOUS
 10
130.6796053842
 20
64.5970019398
 11
130.6796053842
 21
59.8965890212
  0
LINE
  5
271
100
AcDbEntity
  8
0
100
AcDbLine
 62
7
  6
CONTINUOUS
 10
130.6796053842
 20
55.2967190612
 11
130.6796053842
 21
50.5977164785
  0
LINE
  5
272
100
AcDbEntity
  8
02___PRT_ALL_AXES
100
AcDbLine
 62
7
  6
CONTINUOUS
 10
279.8149898006
 20
68.6775775851
 11
276.5143945391
 21
68.6775775851
  0
LINE
  5
273
100
AcDbEntity
  8
02___PRT_ALL_AXES
100
AcDbLine
 62
7
  6
CONTINUOUS
 10
256.0148490866
 20
68.6775775851
 11
252.7156533952
 21
68.6775775851
  0
LINE
  5
274
100
AcDbEntity
  8
02___PRT_ALL_AXES
100
AcDbLine
 62
7
  6
CONTINUOUS
 10
237.5479960978
 20
69.6473719642
 11
223.5483768929
 21
69.6473719642
  0
LINE
  5
275
100
AcDbEntity
  8
02___PRT_ALL_AXES
100
AcDbLine
 62
7
  6
CONTINUOUS
 10
218.4965750007
 20
69.6473719642
 11
204.4969342639
 21
69.6473719642
  0
LINE
  5
276
100
AcDbEntity
  8
02___PRT_ALL_AXES
100
AcDbLine
 62
7
  6
CONTINUOUS
 10
199.4479745755
 20
69.6473719642
 11
185.4483446046
 21
69.6473719642
  0
LINE
  5
277
100
AcDbEntity
  8
02___PRT_ALL_AXES
100
AcDbLine
 62
7
  6
CONTINUOUS
 10
180.3979745803
 20
69.6473719642
 11
166.3983446094
 21
69.6473719642
  0
LINE
  5
278
100
AcDbEntity
  8
02___PRT_ALL_AXES
100
AcDbLine
 62
7
  6
CONTINUOUS
 10
161.346575015
 20
69.6473719642
 11
147.3469450441
 21
69.6473719642
  0
LINE
  5
279
100
AcDbEntity
  8
02___PRT_ALL_AXES
100
AcDbLine
 62
7
  6
CONTINUOUS
 10
142.2979853557
 20
69.6473719642
 11
128.2983553848
 21
69.6473719642
  0
LINE
  5
27A
100
AcDbEntity
  8
02___PRT_ALL_AXES
100
AcDbLine
 62
7
  6
CONTINUOUS
 10
123.2465750245
 20
69.6473719642
 11
109.2469342877
 21
69.6473719642
  0
LINE
  5
27B
100
AcDbEntity
  8
02___PRT_ALL_AXES
100
AcDbLine
 62
7
  6
CONTINUOUS
 10
104.1979853652
 20
69.6473719642
 11
90.1983553944
 21
69.6473719642
  0
LINE
  5
27C
100
AcDbEntity
  8
02___PRT_ALL_AXES
100
AcDbLine
 62
7
  6
CONTINUOUS
 10
85.14798537
 20
69.6473719642
 11
71.1483553991
 21
69.6473719642
  0
LINE
  5
27D
100
AcDbEntity
  8
02___PRT_ALL_AXES
100
AcDbLine
 62
7
  6
CONTINUOUS
 10
66.0979961407
 20
69.6473719642
 11
52.0983661698
 21
69.6473719642
  0
LINE
  5
27E
100
AcDbEntity
  8
02___PRT_ALL_AXES
100
AcDbLine
 62
7
  6
CONTINUOUS
 10
47.0465750435
 20
69.6473719642
 11
33.0469450727
 21
69.6473719642
  0
LINE
  5
27F
100
AcDbEntity
  8
02___PRT_ALL_AXES
100
AcDbLine
 62
7
  6
CONTINUOUS
 10
25.6167461508
 20
69.6473719642
 11
11.615695078
 21
69.6473719642
  0
LINE
  5
280
100
AcDbEntity
  8
02___PRT_ALL_AXES
100
AcDbLine
 62
7
  6
CONTINUOUS
 10
273.2649589456
 20
69.6477164738
 11
259.2656842502
 21
69.6477164738
  0
LINE
  5
281
100
AcDbEntity
  8
02___PRT_ALL_AXES
100
AcDbLine
 62
7
  6
CONTINUOUS
 10
281.5400783012
 20
69.877730427
 11
279.8149898006
 21
69.877730427
  0
LINE
  5
282
100
AcDbEntity
  8
02___PRT_ALL_AXES
100
AcDbLine
 62
7
  6
CONTINUOUS
 10
276.5143945391
 20
69.877730427
 11
274.7904041628
 21
69.877730427
  0
LINE
  5
283
100
AcDbEntity
  8
02___PRT_ALL_AXES
100
AcDbLine
 62
7
  6
CONTINUOUS
 10
257.7399160553
 20
69.877730427
 11
256.0148490866
 21
69.877730427
  0
LINE
  5
284
100
AcDbEntity
  8
02___PRT_ALL_AXES
100
AcDbLine
 62
7
  6
CONTINUOUS
 10
252.7156533952
 20
69.877730427
 11
250.9906079583
 21
69.877730427
  0
LINE
  5
285
100
AcDbEntity
  8
02___PRT_ALL_AXES
100
AcDbLine
 62
7
  6
CONTINUOUS
 10
274.7904041628
 20
74.3481293924
 11
273.2649589456
 21
74.3481293924
  0
LINE
  5
286
100
AcDbEntity
  8
02___PRT_ALL_AXES
100
AcDbLine
 62
7
  6
CONTINUOUS
 10
259.2656842502
 20
74.3481293924
 11
257.7399160553
 21
74.3481293924
  0
LINE
  5
287
100
AcDbEntity
  8
02___PRT_ALL_AXES
100
AcDbLine
 62
7
  6
CONTINUOUS
 10
282.3655662431
 20
76.1476427213
 11
281.5400783012
 21
76.1476427213
  0
LINE
  5
288
100
AcDbEntity
  8
02___PRT_ALL_AXES
100
AcDbLine
 62
7
  6
CONTINUOUS
 10
250.9906079583
 20
76.1476427213
 11
250.1664980546
 21
76.1476427213
  0
LINE
  5
289
100
AcDbEntity
  8
0
100
AcDbLine
 62
7
  6
CONTINUOUS
 10
132.7726300826
 20
102.6969965473
 11
132.7726300826
 21
99.4464790854
  0
LINE
  5
28A
100
AcDbEntity
  8
0
100
AcDbLine
 62
7
  6
CONTINUOUS
 10
132.7726300826
 20
91.9464790854
 11
132.7726300826
 21
88.6959616235
  0
LINE
  5
28B
100
AcDbEntity
  8
02___PRT_ALL_AXES
100
AcDbLine
 62
7
  6
CONTINUOUS
 10
133.0594342818
 20
107.7473665717
 11
133.0594342818
 21
121.7470019255
  0
LINE
  5
28C
100
AcDbEntity
  8
02___PRT_ALL_AXES
100
AcDbLine
 62
7
  6
CONTINUOUS
 10
137.5354853569
 20
140.7970019208
 11
137.5354853569
 21
126.797366567
  0
LINE
  5
28D
100
AcDbEntity
  8
0
100
AcDbLine
 62
7
  6
CONTINUOUS
 10
137.8219342806
 20
88.6959616235
 11
137.8219342806
 21
91.9464790854
  0
LINE
  5
28E
100
AcDbEntity
  8
0
100
AcDbLine
 62
7
  6
CONTINUOUS
 10
137.8219342806
 20
99.4464790854
 11
137.8219342806
 21
102.6969965473
  0
LINE
  5
28F
100
AcDbEntity
  8
02___PRT_ALL_AXES
100
AcDbLine
 62
7
  6
CONTINUOUS
 10
250.1664980546
 20
78.9465890165
 11
250.9906079583
 21
78.9465890165
  0
LINE
  5
290
100
AcDbEntity
  8
02___PRT_ALL_AXES
100
AcDbLine
 62
7
  6
CONTINUOUS
 10
257.7399160553
 20
78.9465890165
 11
259.2656842502
 21
78.9465890165
  0
LINE
  5
291
100
AcDbEntity
  8
02___PRT_ALL_AXES
100
AcDbLine
 62
7
  6
CONTINUOUS
 10
273.2649589456
 20
78.9465890165
 11
274.7904041628
 21
78.9465890165
  0
LINE
  5
292
100
AcDbEntity
  8
02___PRT_ALL_AXES
100
AcDbLine
 62
7
  6
CONTINUOUS
 10
281.5400783012
 20
78.9465890165
 11
282.3655662431
 21
78.9465890165
  0
LINE
  5
293
100
AcDbEntity
  8
02___PRT_ALL_AXES
100
AcDbLine
 62
7
  6
CONTINUOUS
 10
250.9906079583
 20
82.1780239861
 11
257.7399160553
 21
82.1780239861
  0
LINE
  5
294
100
AcDbEntity
  8
02___PRT_ALL_AXES
100
AcDbLine
 62
7
  6
CONTINUOUS
 10
274.7904041628
 20
82.1780239861
 11
281.5400783012
 21
82.1780239861
  0
LINE
  5
295
100
AcDbEntity
  8
02___PRT_ALL_AXES
100
AcDbLine
 62
7
  6
CONTINUOUS
 10
11.615695078
 20
83.6470019351
 11
25.6167461508
 21
83.6470019351
  0
LINE
  5
296
100
AcDbEntity
  8
02___PRT_ALL_AXES
100
AcDbLine
 62
7
  6
CONTINUOUS
 10
33.0469450727
 20
83.6470019351
 11
47.0465750435
 21
83.6470019351
  0
LINE
  5
297
100
AcDbEntity
  8
02___PRT_ALL_AXES
100
AcDbLine
 62
7
  6
CONTINUOUS
 10
52.0983661698
 20
83.6470019351
 11
66.0979961407
 21
83.6470019351
  0
LINE
  5
298
100
AcDbEntity
  8
02___PRT_ALL_AXES
100
AcDbLine
 62
7
  6
CONTINUOUS
 10
71.1483553991
 20
83.6470019351
 11
85.14798537
 21
83.6470019351
  0
LINE
  5
299
100
AcDbEntity
  8
02___PRT_ALL_AXES
100
AcDbLine
 62
7
  6
CONTINUOUS
 10
90.1983553944
 20
83.6470019351
 11
104.1979853652
 21
83.6470019351
  0
LINE
  5
29A
100
AcDbEntity
  8
02___PRT_ALL_AXES
100
AcDbLine
 62
7
  6
CONTINUOUS
 10
109.2469342877
 20
83.6470019351
 11
123.2465750245
 21
83.6470019351
  0
LINE
  5
29B
100
AcDbEntity
  8
02___PRT_ALL_AXES
100
AcDbLine
 62
7
  6
CONTINUOUS
 10
128.2983553848
 20
83.6470019351
 11
142.2979853557
 21
83.6470019351
  0
LINE
  5
29C
100
AcDbEntity
  8
02___PRT_ALL_AXES
100
AcDbLine
 62
7
  6
CONTINUOUS
 10
147.3469450441
 20
83.6470019351
 11
161.346575015
 21
83.6470019351
  0
LINE
  5
29D
100
AcDbEntity
  8
02___PRT_ALL_AXES
100
AcDbLine
 62
7
  6
CONTINUOUS
 10
166.3983446094
 20
83.6470019351
 11
180.3979745803
 21
83.6470019351
  0
LINE
  5
29E
100
AcDbEntity
  8
02___PRT_ALL_AXES
100
AcDbLine
 62
7
  6
CONTINUOUS
 10
185.4483446046
 20
83.6470019351
 11
199.4479745755
 21
83.6470019351
  0
LINE
  5
29F
100
AcDbEntity
  8
02___PRT_ALL_AXES
100
AcDbLine
 62
7
  6
CONTINUOUS
 10
204.4969342639
 20
83.6470019351
 11
218.4965750007
 21
83.6470019351
  0
LINE
  5
2A0
100
AcDbEntity
  8
02___PRT_ALL_AXES
100
AcDbLine
 62
7
  6
CONTINUOUS
 10
223.5483768929
 20
83.6470019351
 11
237.5479960978
 21
83.6470019351
  0
LINE
  5
2A1
100
AcDbEntity
  8
02___PRT_ALL_AXES
100
AcDbLine
 62
7
  6
CONTINUOUS
 10
259.2656842502
 20
83.6470019351
 11
273.2649589456
 21
83.6470019351
  0
LINE
  5
2A2
100
AcDbEntity
  8
0
100
AcDbLine
 62
7
  6
CONTINUOUS
 10
7.0854927646
 20
83.9972271492
 11
9.4854927646
 21
83.9972271492
  0
LINE
  5
2A3
100
AcDbEntity
  8
0
100
AcDbLine
 62
7
  6
CONTINUOUS
 10
292.0854926933
 20
84.015905701
 11
288.8854926933
 21
84.015905701
  0
LINE
  5
2A4
100
AcDbEntity
  8
02___PRT_ALL_AXES
100
AcDbLine
 62
7
  6
CONTINUOUS
 10
142.2979853557
 20
83.6470019351
 11
142.2979853557
 21
69.6473719642
  0
LINE
  5
2A5
100
AcDbEntity
  8
02___PRT_ALL_AXES
100
AcDbLine
 62
7
  6
CONTINUOUS
 10
142.5844342794
 20
126.797366567
 11
142.5844342794
 21
140.7970019208
  0
LINE
  5
2A6
100
AcDbEntity
  8
0
100
AcDbLine
 62
7
  6
CONTINUOUS
 10
144.6788800796
 20
50.5977164785
 11
144.6788800796
 21
55.2967190612
  0
LINE
  5
2A7
100
AcDbEntity
  8
0
100
AcDbLine
 62
7
  6
CONTINUOUS
 10
144.6788800796
 20
59.8965890212
 11
144.6788800796
 21
64.5970019398
  0
LINE
  5
2A8
100
AcDbEntity
  8
02___PRT_ALL_AXES
100
AcDbLine
 62
7
  6
CONTINUOUS
 10
147.0604853545
 20
121.7470019255
 11
147.0604853545
 21
107.7473665717
  0
LINE
  5
2A9
100
AcDbEntity
  8
02___PRT_ALL_AXES
100
AcDbLine
 62
7
  6
CONTINUOUS
 10
147.3469450441
 20
69.6473719642
 11
147.3469450441
 21
83.6470019351
  0
LINE
  5
2AA
100
AcDbEntity
  8
02___PRT_ALL_AXES
100
AcDbLine
 62
7
  6
CONTINUOUS
 10
266.1215749888
 20
88.6959616235
 11
252.121934252
 21
88.6959616235
  0
LINE
  5
2AB
100
AcDbEntity
  8
02___PRT_ALL_AXES
100
AcDbLine
 62
7
  6
CONTINUOUS
 10
247.0729960954
 20
88.6959616235
 11
233.0733768905
 21
88.6959616235
  0
LINE
  5
2AC
100
AcDbEntity
  8
02___PRT_ALL_AXES
100
AcDbLine
 62
7
  6
CONTINUOUS
 10
228.0229961002
 20
88.6959616235
 11
214.0233553634
 21
88.6959616235
  0
LINE
  5
2AD
100
AcDbEntity
  8
02___PRT_ALL_AXES
100
AcDbLine
 62
7
  6
CONTINUOUS
 10
208.9715750031
 20
88.6959616235
 11
194.9719342663
 21
88.6959616235
  0
LINE
  5
2AE
100
AcDbEntity
  8
02___PRT_ALL_AXES
100
AcDbLine
 62
7
  6
CONTINUOUS
 10
189.9229745779
 20
88.6959616235
 11
175.923344607
 21
88.6959616235
  0
LINE
  5
2AF
100
AcDbEntity
  8
02___PRT_ALL_AXES
100
AcDbLine
 62
7
  6
CONTINUOUS
 10
170.8715750126
 20
88.6959616235
 11
156.8719450417
 21
88.6959616235
  0
LINE
  5
2B0
100
AcDbEntity
  8
02___PRT_ALL_AXES
100
AcDbLine
 62
7
  6
CONTINUOUS
 10
151.8215750174
 20
88.6959616235
 11
137.8219342806
 21
88.6959616235
  0
LINE
  5
2B1
100
AcDbEntity
  8
02___PRT_ALL_AXES
100
AcDbLine
 62
7
  6
CONTINUOUS
 10
132.7726300826
 20
88.6959616235
 11
118.7705347153
 21
88.6959616235
  0
LINE
  5
2B2
100
AcDbEntity
  8
02___PRT_ALL_AXES
100
AcDbLine
 62
7
  6
CONTINUOUS
 10
113.7215750269
 20
88.6959616235
 11
99.7219342901
 21
88.6959616235
  0
LINE
  5
2B3
100
AcDbEntity
  8
02___PRT_ALL_AXES
100
AcDbLine
 62
7
  6
CONTINUOUS
 10
94.6715750316
 20
88.6959616235
 11
80.6719396778
 21
88.6959616235
  0
LINE
  5
2B4
100
AcDbEntity
  8
02___PRT_ALL_AXES
100
AcDbLine
 62
7
  6
CONTINUOUS
 10
75.6215750364
 20
88.6959616235
 11
61.6205293466
 21
88.6959616235
  0
LINE
  5
2B5
100
AcDbEntity
  8
02___PRT_ALL_AXES
100
AcDbLine
 62
7
  6
CONTINUOUS
 10
56.5729853771
 20
88.6959616235
 11
42.5733554063
 21
88.6959616235
  0
LINE
  5
2B6
100
AcDbEntity
  8
02___PRT_ALL_AXES
100
AcDbLine
 62
7
  6
CONTINUOUS
 10
30.3792353837
 20
88.6959616235
 11
16.3796054128
 21
88.6959616235
  0
LINE
  5
2B7
100
AcDbEntity
  8
0
100
AcDbLine
 62
7
  6
CONTINUOUS
 10
7.0854927646
 20
88.9972271492
 11
9.4854927646
 21
88.9972271492
  0
LINE
  5
2B8
100
AcDbEntity
  8
0
100
AcDbLine
 62
7
  6
CONTINUOUS
 10
292.0854926933
 20
89.015905701
 11
288.8854926933
 21
89.015905701
  0
LINE
  5
2B9
100
AcDbEntity
  8
02___PRT_ALL_AXES
100
AcDbLine
 62
7
  6
CONTINUOUS
 10
282.8534778912
 20
89.1220984032
 11
280.053132026
 21
89.1220984032
  0
LINE
  5
2BA
100
AcDbEntity
  8
02___PRT_ALL_AXES
100
AcDbLine
 62
7
  6
CONTINUOUS
 10
286.083491759
 20
89.946197541
 11
282.8534778912
 21
89.946197541
  0
LINE
  5
2BB
100
AcDbEntity
  8
02___PRT_ALL_AXES
100
AcDbLine
 62
7
  6
CONTINUOUS
 10
280.053132026
 20
89.946197541
 11
273.7846085359
 21
89.946197541
  0
LINE
  5
2BC
100
AcDbEntity
  8
02___PRT_ALL_AXES
100
AcDbLine
 62
7
  6
CONTINUOUS
 10
273.7846085359
 20
91.6712752756
 11
272.583045358
 21
91.6712752756
  0
LINE
  5
2BD
100
AcDbEntity
  8
0
100
AcDbLine
 62
7
  6
CONTINUOUS
 10
137.0719342806
 20
92.6964790854
 11
133.5226300826
 21
92.6964790854
  0
LINE
  5
2BE
100
AcDbEntity
  8
02___PRT_ALL_AXES
100
AcDbLine
 62
7
  6
CONTINUOUS
 10
272.583045358
 20
94.9732808731
 11
273.7846085359
 21
94.9732808731
  0
LINE
  5
2BF
100
AcDbEntity
  8
02___PRT_ALL_AXES
100
AcDbLine
 62
7
  6
CONTINUOUS
 10
273.7846085359
 20
96.6969590377
 11
278.253629463
 21
96.6969590377
  0
LINE
  5
2C0
100
AcDbEntity
  8
02___PRT_ALL_AXES
100
AcDbLine
 62
7
  6
CONTINUOUS
 10
282.8534778912
 20
96.6969590377
 11
286.083491759
 21
96.6969590377
  0
LINE
  5
2C1
100
AcDbEntity
  8
02___PRT_ALL_AXES
100
AcDbLine
 62
7
  6
CONTINUOUS
 10
151.8215750174
 20
102.6969965473
 11
151.8215750174
 21
88.6959616235
  0
LINE
  5
2C2
100
AcDbEntity
  8
02___PRT_ALL_AXES
100
AcDbLine
 62
7
  6
CONTINUOUS
 10
152.1094450429
 20
107.7473665717
 11
152.1094450429
 21
121.7470019255
  0
LINE
  5
2C3
100
AcDbEntity
  8
02___PRT_ALL_AXES
100
AcDbLine
 62
7
  6
CONTINUOUS
 10
156.5854853521
 20
140.7970019208
 11
156.5854853521
 21
126.797366567
  0
LINE
  5
2C4
100
AcDbEntity
  8
02___PRT_ALL_AXES
100
AcDbLine
 62
7
  6
CONTINUOUS
 10
156.8719450417
 20
88.6959616235
 11
156.8719450417
 21
102.6969965473
  0
LINE
  5
2C5
100
AcDbEntity
  8
02___PRT_ALL_AXES
100
AcDbLine
 62
7
  6
CONTINUOUS
 10
287.552458942
 20
98.2227110836
 11
282.8534778912
 21
98.2227110836
  0
LINE
  5
2C6
100
AcDbEntity
  8
02___PRT_ALL_AXES
100
AcDbLine
 62
7
  6
CONTINUOUS
 10
278.253629463
 20
98.2227110836
 11
273.5531842466
 21
98.2227110836
  0
LINE
  5
2C7
100
AcDbEntity
  8
0
100
AcDbLine
 62
7
  6
CONTINUOUS
 10
133.5226300826
 20
98.6964790854
 11
137.0719342806
 21
98.6964790854
  0
LINE
  5
2C8
100
AcDbEntity
  8
02___PRT_ALL_AXES
100
AcDbLine
 62
7
  6
CONTINUOUS
 10
16.3796054128
 20
102.6969965473
 11
30.3792353837
 21
102.6969965473
  0
LINE
  5
2C9
100
AcDbEntity
  8
02___PRT_ALL_AXES
100
AcDbLine
 62
7
  6
CONTINUOUS
 10
42.5733554063
 20
102.6969965473
 11
56.5729853771
 21
102.6969965473
  0
LINE
  5
2CA
100
AcDbEntity
  8
02___PRT_ALL_AXES
100
AcDbLine
 62
7
  6
CONTINUOUS
 10
61.6205293466
 20
102.6969965473
 11
75.6215750364
 21
102.6969965473
  0
LINE
  5
2CB
100
AcDbEntity
  8
02___PRT_ALL_AXES
100
AcDbLine
 62
7
  6
CONTINUOUS
 10
80.6719396778
 20
102.6969965473
 11
94.6715750316
 21
102.6969965473
  0
LINE
  5
2CC
100
AcDbEntity
  8
02___PRT_ALL_AXES
100
AcDbLine
 62
7
  6
CONTINUOUS
 10
99.7219342901
 20
102.6969965473
 11
113.7215750269
 21
102.6969965473
  0
LINE
  5
2CD
100
AcDbEntity
  8
02___PRT_ALL_AXES
100
AcDbLine
 62
7
  6
CONTINUOUS
 10
118.7705347153
 20
102.6969965473
 11
132.7726300826
 21
102.6969965473
  0
LINE
  5
2CE
100
AcDbEntity
  8
02___PRT_ALL_AXES
100
AcDbLine
 62
7
  6
CONTINUOUS
 10
137.8219342806
 20
102.6969965473
 11
151.8215750174
 21
102.6969965473
  0
LINE
  5
2CF
100
AcDbEntity
  8
02___PRT_ALL_AXES
100
AcDbLine
 62
7
  6
CONTINUOUS
 10
156.8719450417
 20
102.6969965473
 11
170.8715750126
 21
102.6969965473
  0
LINE
  5
2D0
100
AcDbEntity
  8
02___PRT_ALL_AXES
100
AcDbLine
 62
7
  6
CONTINUOUS
 10
175.923344607
 20
102.6969965473
 11
189.9229745779
 21
102.6969965473
  0
LINE
  5
2D1
100
AcDbEntity
  8
02___PRT_ALL_AXES
100
AcDbLine
 62
7
  6
CONTINUOUS
 10
194.9719342663
 20
102.6969965473
 11
208.9715750031
 21
102.6969965473
  0
LINE
  5
2D2
100
AcDbEntity
  8
02___PRT_ALL_AXES
100
AcDbLine
 62
7
  6
CONTINUOUS
 10
214.0233553634
 20
102.6969965473
 11
228.0229961002
 21
102.6969965473
  0
LINE
  5
2D3
100
AcDbEntity
  8
02___PRT_ALL_AXES
100
AcDbLine
 62
7
  6
CONTINUOUS
 10
233.0733768905
 20
102.6969965473
 11
247.0729960954
 21
102.6969965473
  0
LINE
  5
2D4
100
AcDbEntity
  8
02___PRT_ALL_AXES
100
AcDbLine
 62
7
  6
CONTINUOUS
 10
252.121934252
 20
102.6969965473
 11
266.1215749888
 21
102.6969965473
  0
LINE
  5
2D5
100
AcDbEntity
  8
02___PRT_ALL_AXES
100
AcDbLine
 62
7
  6
CONTINUOUS
 10
161.346575015
 20
83.6470019351
 11
161.346575015
 21
69.6473719642
  0
LINE
  5
2D6
100
AcDbEntity
  8
02___PRT_ALL_AXES
100
AcDbLine
 62
7
  6
CONTINUOUS
 10
161.6344450405
 20
126.797366567
 11
161.6344450405
 21
140.7970019208
  0
LINE
  5
2D7
100
AcDbEntity
  8
02___PRT_ALL_AXES
100
AcDbLine
 62
7
  6
CONTINUOUS
 10
166.1090750138
 20
121.7470019255
 11
166.1090750138
 21
107.7473665717
  0
LINE
  5
2D8
100
AcDbEntity
  8
02___PRT_ALL_AXES
100
AcDbLine
 62
7
  6
CONTINUOUS
 10
166.3983446094
 20
69.6473719642
 11
166.3983446094
 21
83.6470019351
  0
LINE
  5
2D9
100
AcDbEntity
  8
02___PRT_ALL_AXES
100
AcDbLine
 62
7
  6
CONTINUOUS
 10
170.8715750126
 20
102.6969965473
 11
170.8715750126
 21
88.6959616235
  0
LINE
  5
2DA
100
AcDbEntity
  8
02___PRT_ALL_AXES
100
AcDbLine
 62
7
  6
CONTINUOUS
 10
261.35907499
 20
107.7473665717
 11
247.3594342532
 21
107.7473665717
  0
LINE
  5
2DB
100
AcDbEntity
  8
02___PRT_ALL_AXES
100
AcDbLine
 62
7
  6
CONTINUOUS
 10
242.3104960966
 20
107.7473665717
 11
228.3094557898
 21
107.7473665717
  0
LINE
  5
2DC
100
AcDbEntity
  8
02___PRT_ALL_AXES
100
AcDbLine
 62
7
  6
CONTINUOUS
 10
223.2590749995
 20
107.7473665717
 11
209.2594342627
 21
107.7473665717
  0
LINE
  5
2DD
100
AcDbEntity
  8
02___PRT_ALL_AXES
100
AcDbLine
 62
7
  6
CONTINUOUS
 10
204.2104745743
 20
107.7473665717
 11
190.2094342675
 21
107.7473665717
  0
LINE
  5
2DE
100
AcDbEntity
  8
02___PRT_ALL_AXES
100
AcDbLine
 62
7
  6
CONTINUOUS
 10
185.160485345
 20
107.7473665717
 11
171.1594450382
 21
107.7473665717
  0
LINE
  5
2DF
100
AcDbEntity
  8
02___PRT_ALL_AXES
100
AcDbLine
 62
7
  6
CONTINUOUS
 10
166.1090750138
 20
107.7473665717
 11
152.1094450429
 21
107.7473665717
  0
LINE
  5
2E0
100
AcDbEntity
  8
02___PRT_ALL_AXES
100
AcDbLine
 62
7
  6
CONTINUOUS
 10
147.0604853545
 20
107.7473665717
 11
133.0594342818
 21
107.7473665717
  0
LINE
  5
2E1
100
AcDbEntity
  8
02___PRT_ALL_AXES
100
AcDbLine
 62
7
  6
CONTINUOUS
 10
128.0090750233
 20
107.7473665717
 11
114.0094342865
 21
107.7473665717
  0
LINE
  5
2E2
100
AcDbEntity
  8
02___PRT_ALL_AXES
100
AcDbLine
 62
7
  6
CONTINUOUS
 10
108.96049613
 20
107.7473665717
 11
94.9594504402
 21
107.7473665717
  0
LINE
  5
2E3
100
AcDbEntity
  8
02___PRT_ALL_AXES
100
AcDbLine
 62
7
  6
CONTINUOUS
 10
89.9104907518
 20
107.7473665717
 11
75.909445062
 21
107.7473665717
  0
LINE
  5
2E4
100
AcDbEntity
  8
02___PRT_ALL_AXES
100
AcDbLine
 62
7
  6
CONTINUOUS
 10
70.8604907565
 20
107.7473665717
 11
56.8594450667
 21
107.7473665717
  0
LINE
  5
2E5
100
AcDbEntity
  8
02___PRT_ALL_AXES
100
AcDbLine
 62
7
  6
CONTINUOUS
 10
51.8090750424
 20
107.7473665717
 11
37.8094450715
 21
107.7473665717
  0
LINE
  5
2E6
100
AcDbEntity
  8
02___PRT_ALL_AXES
100
AcDbLine
 62
7
  6
CONTINUOUS
 10
27.9979853843
 20
107.7473665717
 11
13.9983554134
 21
107.7473665717
  0
LINE
  5
2E7
100
AcDbEntity
  8
02___PRT_ALL_AXES
100
AcDbLine
 62
7
  6
CONTINUOUS
 10
273.5531842466
 20
112.2220019279
 11
278.253629463
 21
112.2220019279
  0
LINE
  5
2E8
100
AcDbEntity
  8
02___PRT_ALL_AXES
100
AcDbLine
 62
7
  6
CONTINUOUS
 10
282.8534778912
 20
112.2220019279
 11
287.552458942
 21
112.2220019279
  0
LINE
  5
2E9
100
AcDbEntity
  8
02___PRT_ALL_AXES
100
AcDbLine
 62
7
  6
CONTINUOUS
 10
286.083491759
 20
113.7474094644
 11
282.8534778912
 21
113.7474094644
  0
LINE
  5
2EA
100
AcDbEntity
  8
02___PRT_ALL_AXES
100
AcDbLine
 62
7
  6
CONTINUOUS
 10
278.253629463
 20
113.7474094644
 11
273.7846085359
 21
113.7474094644
  0
LINE
  5
2EB
100
AcDbEntity
  8
02___PRT_ALL_AXES
100
AcDbLine
 62
7
  6
CONTINUOUS
 10
273.7846085359
 20
115.4742581934
 11
272.583045358
 21
115.4742581934
  0
LINE
  5
2EC
100
AcDbEntity
  8
02___PRT_ALL_AXES
100
AcDbLine
 62
7
  6
CONTINUOUS
 10
171.1594450382
 20
107.7473665717
 11
171.1594450382
 21
121.7470019255
  0
LINE
  5
2ED
100
AcDbEntity
  8
02___PRT_ALL_AXES
100
AcDbLine
 62
7
  6
CONTINUOUS
 10
175.6340750114
 20
140.7970019208
 11
175.6340750114
 21
126.797366567
  0
LINE
  5
2EE
100
AcDbEntity
  8
02___PRT_ALL_AXES
100
AcDbLine
 62
7
  6
CONTINUOUS
 10
175.923344607
 20
88.6959616235
 11
175.923344607
 21
102.6969965473
  0
LINE
  5
2EF
100
AcDbEntity
  8
02___PRT_ALL_AXES
100
AcDbLine
 62
7
  6
CONTINUOUS
 10
180.3979745803
 20
83.6470019351
 11
180.3979745803
 21
69.6473719642
  0
LINE
  5
2F0
100
AcDbEntity
  8
02___PRT_ALL_AXES
100
AcDbLine
 62
7
  6
CONTINUOUS
 10
180.6844450358
 20
126.797366567
 11
180.6844450358
 21
140.7970019208
  0
LINE
  5
2F1
100
AcDbEntity
  8
02___PRT_ALL_AXES
100
AcDbLine
 62
7
  6
CONTINUOUS
 10
272.583045358
 20
118.7730824605
 11
273.7846085359
 21
118.7730824605
  0
LINE
  5
2F2
100
AcDbEntity
  8
02___PRT_ALL_AXES
100
AcDbLine
 62
7
  6
CONTINUOUS
 10
273.7846085359
 20
120.4971051346
 11
280.053132026
 21
120.4971051346
  0
LINE
  5
2F3
100
AcDbEntity
  8
02___PRT_ALL_AXES
100
AcDbLine
 62
7
  6
CONTINUOUS
 10
282.8534778912
 20
120.4971051346
 11
286.083491759
 21
120.4971051346
  0
LINE
  5
2F4
100
AcDbEntity
  8
02___PRT_ALL_AXES
100
AcDbLine
 62
7
  6
CONTINUOUS
 10
280.053132026
 20
121.3226092255
 11
282.8534778912
 21
121.3226092255
  0
LINE
  5
2F5
100
AcDbEntity
  8
02___PRT_ALL_AXES
100
AcDbLine
 62
7
  6
CONTINUOUS
 10
13.9983554134
 20
121.7470019255
 11
27.9979853843
 21
121.7470019255
  0
LINE
  5
2F6
100
AcDbEntity
  8
02___PRT_ALL_AXES
100
AcDbLine
 62
7
  6
CONTINUOUS
 10
37.8094450715
 20
121.7470019255
 11
51.8090750424
 21
121.7470019255
  0
LINE
  5
2F7
100
AcDbEntity
  8
02___PRT_ALL_AXES
100
AcDbLine
 62
7
  6
CONTINUOUS
 10
56.8594450667
 20
121.7470019255
 11
70.8604907565
 21
121.7470019255
  0
LINE
  5
2F8
100
AcDbEntity
  8
02___PRT_ALL_AXES
100
AcDbLine
 62
7
  6
CONTINUOUS
 10
75.909445062
 20
121.7470019255
 11
89.9104907518
 21
121.7470019255
  0
LINE
  5
2F9
100
AcDbEntity
  8
02___PRT_ALL_AXES
100
AcDbLine
 62
7
  6
CONTINUOUS
 10
94.9594504402
 20
121.7470019255
 11
108.96049613
 21
121.7470019255
  0
LINE
  5
2FA
100
AcDbEntity
  8
02___PRT_ALL_AXES
100
AcDbLine
 62
7
  6
CONTINUOUS
 10
114.0094342865
 20
121.7470019255
 11
128.0090750233
 21
121.7470019255
  0
LINE
  5
2FB
100
AcDbEntity
  8
02___PRT_ALL_AXES
100
AcDbLine
 62
7
  6
CONTINUOUS
 10
133.0594342818
 20
121.7470019255
 11
147.0604853545
 21
121.7470019255
  0
LINE
  5
2FC
100
AcDbEntity
  8
02___PRT_ALL_AXES
100
AcDbLine
 62
7
  6
CONTINUOUS
 10
152.1094450429
 20
121.7470019255
 11
166.1090750138
 21
121.7470019255
  0
LINE
  5
2FD
100
AcDbEntity
  8
02___PRT_ALL_AXES
100
AcDbLine
 62
7
  6
CONTINUOUS
 10
171.1594450382
 20
121.7470019255
 11
185.160485345
 21
121.7470019255
  0
LINE
  5
2FE
100
AcDbEntity
  8
02___PRT_ALL_AXES
100
AcDbLine
 62
7
  6
CONTINUOUS
 10
190.2094342675
 20
121.7470019255
 11
204.2104745743
 21
121.7470019255
  0
LINE
  5
2FF
100
AcDbEntity
  8
02___PRT_ALL_AXES
100
AcDbLine
 62
7
  6
CONTINUOUS
 10
209.2594342627
 20
121.7470019255
 11
223.2590749995
 21
121.7470019255
  0
LINE
  5
300
100
AcDbEntity
  8
02___PRT_ALL_AXES
100
AcDbLine
 62
7
  6
CONTINUOUS
 10
228.3094342579
 20
121.7470019255
 11
242.3104960966
 21
121.7470019255
  0
LINE
  5
301
100
AcDbEntity
  8
02___PRT_ALL_AXES
100
AcDbLine
 62
7
  6
CONTINUOUS
 10
247.3594342532
 20
121.7470019255
 11
261.35907499
 21
121.7470019255
  0
LINE
  5
302
100
AcDbEntity
  8
02___PRT_ALL_AXES
100
AcDbLine
 62
7
  6
CONTINUOUS
 10
286.9587397988
 20
125.8275829538
 11
283.6595871711
 21
125.8275829538
  0
LINE
  5
303
100
AcDbEntity
  8
02___PRT_ALL_AXES
100
AcDbLine
 62
7
  6
CONTINUOUS
 10
263.1585990848
 20
125.8275829538
 11
259.8594033934
 21
125.8275829538
  0
LINE
  5
304
100
AcDbEntity
  8
02___PRT_ALL_AXES
100
AcDbLine
 62
7
  6
CONTINUOUS
 10
251.8354960942
 20
126.797366567
 11
237.8344342556
 21
126.797366567
  0
LINE
  5
305
100
AcDbEntity
  8
02___PRT_ALL_AXES
100
AcDbLine
 62
7
  6
CONTINUOUS
 10
232.7854745672
 20
126.797366567
 11
218.7844342603
 21
126.797366567
  0
LINE
  5
306
100
AcDbEntity
  8
02___PRT_ALL_AXES
100
AcDbLine
 62
7
  6
CONTINUOUS
 10
213.7340750019
 20
126.797366567
 11
199.7344342651
 21
126.797366567
  0
LINE
  5
307
100
AcDbEntity
  8
02___PRT_ALL_AXES
100
AcDbLine
 62
7
  6
CONTINUOUS
 10
194.6854745767
 20
126.797366567
 11
180.6844450358
 21
126.797366567
  0
LINE
  5
308
100
AcDbEntity
  8
02___PRT_ALL_AXES
100
AcDbLine
 62
7
  6
CONTINUOUS
 10
175.6340750114
 20
126.797366567
 11
161.6344450405
 21
126.797366567
  0
LINE
  5
309
100
AcDbEntity
  8
02___PRT_ALL_AXES
100
AcDbLine
 62
7
  6
CONTINUOUS
 10
156.5854853521
 20
126.797366567
 11
142.5844342794
 21
126.797366567
  0
LINE
  5
30A
100
AcDbEntity
  8
02___PRT_ALL_AXES
100
AcDbLine
 62
7
  6
CONTINUOUS
 10
137.5354853569
 20
126.797366567
 11
123.5344342841
 21
126.797366567
  0
LINE
  5
30B
100
AcDbEntity
  8
02___PRT_ALL_AXES
100
AcDbLine
 62
7
  6
CONTINUOUS
 10
118.4854745957
 20
126.797366567
 11
104.4844342889
 21
126.797366567
  0
LINE
  5
30C
100
AcDbEntity
  8
02___PRT_ALL_AXES
100
AcDbLine
 62
7
  6
CONTINUOUS
 10
99.4354853664
 20
126.797366567
 11
85.4344450596
 21
126.797366567
  0
LINE
  5
30D
100
AcDbEntity
  8
02___PRT_ALL_AXES
100
AcDbLine
 62
7
  6
CONTINUOUS
 10
80.3840804182
 20
126.797366567
 11
66.3844450643
 21
126.797366567
  0
LINE
  5
30E
100
AcDbEntity
  8
02___PRT_ALL_AXES
100
AcDbLine
 62
7
  6
CONTINUOUS
 10
61.3354853759
 20
126.797366567
 11
47.3344343032
 21
126.797366567
  0
LINE
  5
30F
100
AcDbEntity
  8
02___PRT_ALL_AXES
100
AcDbLine
 62
7
  6
CONTINUOUS
 10
42.2854961466
 20
126.797366567
 11
28.2844450739
 21
126.797366567
  0
LINE
  5
310
100
AcDbEntity
  8
02___PRT_ALL_AXES
100
AcDbLine
 62
7
  6
CONTINUOUS
 10
23.2354961514
 20
126.797366567
 11
9.2344450786
 21
126.797366567
  0
LINE
  5
311
100
AcDbEntity
  8
02___PRT_ALL_AXES
100
AcDbLine
 62
7
  6
CONTINUOUS
 10
280.4087089438
 20
126.7977218424
 11
266.4094342484
 21
126.7977218424
  0
LINE
  5
312
100
AcDbEntity
  8
02___PRT_ALL_AXES
100
AcDbLine
 62
7
  6
CONTINUOUS
 10
288.6838282994
 20
127.0263200768
 11
286.9587397988
 21
127.0263200768
  0
LINE
  5
313
100
AcDbEntity
  8
02___PRT_ALL_AXES
100
AcDbLine
 62
7
  6
CONTINUOUS
 10
283.6595871711
 20
127.0263200768
 11
281.934154161
 21
127.0263200768
  0
LINE
  5
314
100
AcDbEntity
  8
02___PRT_ALL_AXES
100
AcDbLine
 62
7
  6
CONTINUOUS
 10
264.8836660535
 20
127.0263200768
 11
263.1585990848
 21
127.0263200768
  0
LINE
  5
315
100
AcDbEntity
  8
02___PRT_ALL_AXES
100
AcDbLine
 62
7
  6
CONTINUOUS
 10
259.8594033934
 20
127.0263200768
 11
258.1343364247
 21
127.0263200768
  0
LINE
  5
316
100
AcDbEntity
  8
0
100
AcDbLine
 62
7
  6
CONTINUOUS
 10
184.304642882
 20
64.3669987525
 11
184.304642882
 21
59.8965890212
  0
LINE
  5
317
100
AcDbEntity
  8
0
100
AcDbLine
 62
7
  6
CONTINUOUS
 10
184.304642882
 20
55.2967190612
 11
184.304642882
 21
52.0666944275
  0
LINE
  5
318
100
AcDbEntity
  8
02___PRT_ALL_AXES
100
AcDbLine
 62
7
  6
CONTINUOUS
 10
185.160485345
 20
121.7470019255
 11
185.160485345
 21
107.7473665717
  0
LINE
  5
319
100
AcDbEntity
  8
02___PRT_ALL_AXES
100
AcDbLine
 62
7
  6
CONTINUOUS
 10
185.4483446046
 20
69.6473719642
 11
185.4483446046
 21
83.6470019351
  0
LINE
  5
31A
100
AcDbEntity
  8
0
100
AcDbLine
 62
7
  6
CONTINUOUS
 10
186.0297313826
 20
65.5671408285
 11
186.0297313826
 21
64.3669987525
  0
LINE
  5
31B
100
AcDbEntity
  8
0
100
AcDbLine
 62
7
  6
CONTINUOUS
 10
189.3289055422
 20
64.3669987525
 11
189.3289055422
 21
65.5671408285
  0
LINE
  5
31C
100
AcDbEntity
  8
02___PRT_ALL_AXES
100
AcDbLine
 62
7
  6
CONTINUOUS
 10
189.9229745779
 20
102.6969965473
 11
189.9229745779
 21
88.6959616235
  0
LINE
  5
31D
100
AcDbEntity
  8
02___PRT_ALL_AXES
100
AcDbLine
 62
7
  6
CONTINUOUS
 10
190.2094342675
 20
107.7473665717
 11
190.2094342675
 21
121.7470019255
  0
LINE
  5
31E
100
AcDbEntity
  8
02___PRT_ALL_AXES
100
AcDbLine
 62
7
  6
CONTINUOUS
 10
281.934154161
 20
131.4981293781
 11
280.4087089438
 21
131.4981293781
  0
LINE
  5
31F
100
AcDbEntity
  8
02___PRT_ALL_AXES
100
AcDbLine
 62
7
  6
CONTINUOUS
 10
266.4094342484
 20
131.4981293781
 11
264.8836660535
 21
131.4981293781
  0
LINE
  5
320
100
AcDbEntity
  8
02___PRT_ALL_AXES
100
AcDbLine
 62
7
  6
CONTINUOUS
 10
289.5093162413
 20
133.29764809
 11
288.6838282994
 21
133.29764809
  0
LINE
  5
321
100
AcDbEntity
  8
02___PRT_ALL_AXES
100
AcDbLine
 62
7
  6
CONTINUOUS
 10
258.1343364247
 20
133.29764809
 11
257.3102480528
 21
133.29764809
  0
LINE
  5
322
100
AcDbEntity
  8
02___PRT_ALL_AXES
100
AcDbLine
 62
7
  6
CONTINUOUS
 10
257.3102480528
 20
136.0979993381
 11
258.1343364247
 21
136.0979993381
  0
LINE
  5
323
100
AcDbEntity
  8
02___PRT_ALL_AXES
100
AcDbLine
 62
7
  6
CONTINUOUS
 10
264.8836660535
 20
136.0979993381
 11
266.4094342484
 21
136.0979993381
  0
LINE
  5
324
100
AcDbEntity
  8
02___PRT_ALL_AXES
100
AcDbLine
 62
7
  6
CONTINUOUS
 10
280.4087089438
 20
136.0979993381
 11
281.934154161
 21
136.0979993381
  0
LINE
  5
325
100
AcDbEntity
  8
02___PRT_ALL_AXES
100
AcDbLine
 62
7
  6
CONTINUOUS
 10
288.6838282994
 20
136.0979993381
 11
289.5093162413
 21
136.0979993381
  0
LINE
  5
326
100
AcDbEntity
  8
0
100
AcDbLine
 62
7
  6
CONTINUOUS
 10
191.0539886598
 20
52.0666944275
 11
191.0539886598
 21
55.2967190612
  0
LINE
  5
327
100
AcDbEntity
  8
0
100
AcDbLine
 62
7
  6
CONTINUOUS
 10
191.0539886598
 20
58.0970756923
 11
191.0539886598
 21
64.3669987525
  0
LINE
  5
328
100
AcDbEntity
  8
0
100
AcDbLine
 62
7
  6
CONTINUOUS
 10
191.8794873676
 20
55.2967190612
 11
191.8794873676
 21
58.0970756923
  0
LINE
  5
329
100
AcDbEntity
  8
02___PRT_ALL_AXES
100
AcDbLine
 62
7
  6
CONTINUOUS
 10
194.6854745767
 20
140.7970019208
 11
194.6854745767
 21
126.797366567
  0
LINE
  5
32A
100
AcDbEntity
  8
02___PRT_ALL_AXES
100
AcDbLine
 62
7
  6
CONTINUOUS
 10
194.9719342663
 20
88.6959616235
 11
194.9719342663
 21
102.6969965473
  0
LINE
  5
32B
100
AcDbEntity
  8
02___PRT_ALL_AXES
100
AcDbLine
 62
7
  6
CONTINUOUS
 10
199.4479745755
 20
83.6470019351
 11
199.4479745755
 21
69.6473719642
  0
LINE
  5
32C
100
AcDbEntity
  8
02___PRT_ALL_AXES
100
AcDbLine
 62
7
  6
CONTINUOUS
 10
199.7344342651
 20
126.797366567
 11
199.7344342651
 21
140.7970019208
  0
LINE
  5
32D
100
AcDbEntity
  8
02___PRT_ALL_AXES
100
AcDbLine
 62
7
  6
CONTINUOUS
 10
258.1343364247
 20
139.3280347377
 11
264.8836660535
 21
139.3280347377
  0
LINE
  5
32E
100
AcDbEntity
  8
02___PRT_ALL_AXES
100
AcDbLine
 62
7
  6
CONTINUOUS
 10
281.934154161
 20
139.3280347377
 11
288.6838282994
 21
139.3280347377
  0
LINE
  5
32F
100
AcDbEntity
  8
02___PRT_ALL_AXES
100
AcDbLine
 62
7
  6
CONTINUOUS
 10
9.2344450786
 20
140.7970019208
 11
23.2354961514
 21
140.7970019208
  0
LINE
  5
330
100
AcDbEntity
  8
02___PRT_ALL_AXES
100
AcDbLine
 62
7
  6
CONTINUOUS
 10
28.2844450739
 20
140.7970019208
 11
42.2854961466
 21
140.7970019208
  0
LINE
  5
331
100
AcDbEntity
  8
02___PRT_ALL_AXES
100
AcDbLine
 62
7
  6
CONTINUOUS
 10
47.3344343032
 20
140.7970019208
 11
61.3354853759
 21
140.7970019208
  0
LINE
  5
332
100
AcDbEntity
  8
02___PRT_ALL_AXES
100
AcDbLine
 62
7
  6
CONTINUOUS
 10
66.3844450643
 20
140.7970019208
 11
80.3840804182
 21
140.7970019208
  0
LINE
  5
333
100
AcDbEntity
  8
02___PRT_ALL_AXES
100
AcDbLine
 62
7
  6
CONTINUOUS
 10
85.4344450596
 20
140.7970019208
 11
99.4354853664
 21
140.7970019208
  0
LINE
  5
334
100
AcDbEntity
  8
02___PRT_ALL_AXES
100
AcDbLine
 62
7
  6
CONTINUOUS
 10
104.4844342889
 20
140.7970019208
 11
118.4854745957
 21
140.7970019208
  0
LINE
  5
335
100
AcDbEntity
  8
02___PRT_ALL_AXES
100
AcDbLine
 62
7
  6
CONTINUOUS
 10
123.5344342841
 20
140.7970019208
 11
137.5354853569
 21
140.7970019208
  0
LINE
  5
336
100
AcDbEntity
  8
02___PRT_ALL_AXES
100
AcDbLine
 62
7
  6
CONTINUOUS
 10
142.5844342794
 20
140.7970019208
 11
156.5854853521
 21
140.7970019208
  0
LINE
  5
337
100
AcDbEntity
  8
02___PRT_ALL_AXES
100
AcDbLine
 62
7
  6
CONTINUOUS
 10
161.6344450405
 20
140.7970019208
 11
175.6340750114
 21
140.7970019208
  0
LINE
  5
338
100
AcDbEntity
  8
02___PRT_ALL_AXES
100
AcDbLine
 62
7
  6
CONTINUOUS
 10
180.6844450358
 20
140.7970019208
 11
194.6854745767
 21
140.7970019208
  0
LINE
  5
339
100
AcDbEntity
  8
02___PRT_ALL_AXES
100
AcDbLine
 62
7
  6
CONTINUOUS
 10
199.7344342651
 20
140.7970019208
 11
213.7340750019
 21
140.7970019208
  0
LINE
  5
33A
100
AcDbEntity
  8
02___PRT_ALL_AXES
100
AcDbLine
 62
7
  6
CONTINUOUS
 10
218.7844342603
 20
140.7970019208
 11
232.7854745672
 21
140.7970019208
  0
LINE
  5
33B
100
AcDbEntity
  8
02___PRT_ALL_AXES
100
AcDbLine
 62
7
  6
CONTINUOUS
 10
237.8344342556
 20
140.7970019208
 11
251.8354960942
 21
140.7970019208
  0
LINE
  5
33C
100
AcDbEntity
  8
02___PRT_ALL_AXES
100
AcDbLine
 62
7
  6
CONTINUOUS
 10
266.4094342484
 20
140.7970019208
 11
280.4087089438
 21
140.7970019208
  0
LINE
  5
33D
100
AcDbEntity
  8
0
100
AcDbLine
 62
7
  6
CONTINUOUS
 10
290.5854926933
 20
143.195776597
 11
8.5854927646
 21
143.195776597
  0
LINE
  5
33E
100
AcDbEntity
  8
02___PRT_ALL_AXES
100
AcDbLine
 62
7
  6
CONTINUOUS
 10
202.1156842645
 20
50.597371969
 11
202.1156842645
 21
64.5970019398
  0
LINE
  5
33F
100
AcDbEntity
  8
02___PRT_ALL_AXES
100
AcDbLine
 62
7
  6
CONTINUOUS
 10
204.2104745743
 20
121.7470019255
 11
204.2104745743
 21
107.7473665717
  0
LINE
  5
340
100
AcDbEntity
  8
02___PRT_ALL_AXES
100
AcDbLine
 62
7
  6
CONTINUOUS
 10
204.4969342639
 20
69.6473719642
 11
204.4969342639
 21
83.6470019351
  0
LINE
  5
341
100
AcDbEntity
  8
02___PRT_ALL_AXES
100
AcDbLine
 62
7
  6
CONTINUOUS
 10
208.9715750031
 20
102.6969965473
 11
208.9715750031
 21
88.6959616235
  0
LINE
  5
342
100
AcDbEntity
  8
02___PRT_ALL_AXES
100
AcDbLine
 62
7
  6
CONTINUOUS
 10
209.2594342627
 20
107.7473665717
 11
209.2594342627
 21
121.7470019255
  0
LINE
  5
343
100
AcDbEntity
  8
02___PRT_ALL_AXES
100
AcDbLine
 62
7
  6
CONTINUOUS
 10
213.7340750019
 20
140.7970019208
 11
213.7340750019
 21
126.797366567
  0
LINE
  5
344
100
AcDbEntity
  8
02___PRT_ALL_AXES
100
AcDbLine
 62
7
  6
CONTINUOUS
 10
214.0233553634
 20
88.6959616235
 11
214.0233553634
 21
102.6969965473
  0
LINE
  5
345
100
AcDbEntity
  8
02___PRT_ALL_AXES
100
AcDbLine
 62
7
  6
CONTINUOUS
 10
216.1153250013
 20
64.5970019398
 11
216.1153250013
 21
50.597371969
  0
LINE
  5
346
100
AcDbEntity
  8
02___PRT_ALL_AXES
100
AcDbLine
 62
7
  6
CONTINUOUS
 10
218.4965750007
 20
83.6470019351
 11
218.4965750007
 21
69.6473719642
  0
LINE
  5
347
100
AcDbEntity
  8
02___PRT_ALL_AXES
100
AcDbLine
 62
7
  6
CONTINUOUS
 10
218.7844342603
 20
126.797366567
 11
218.7844342603
 21
140.7970019208
  0
LINE
  5
348
100
AcDbEntity
  8
02___PRT_ALL_AXES
100
AcDbLine
 62
7
  6
CONTINUOUS
 10
223.2590749995
 20
121.7470019255
 11
223.2590749995
 21
107.7473665717
  0
LINE
  5
349
100
AcDbEntity
  8
02___PRT_ALL_AXES
100
AcDbLine
 62
7
  6
CONTINUOUS
 10
223.5483768929
 20
69.6473719642
 11
223.5483768929
 21
83.6470019351
  0
LINE
  5
34A
100
AcDbEntity
  8
02___PRT_ALL_AXES
100
AcDbLine
 62
7
  6
CONTINUOUS
 10
225.9296268923
 20
50.597371969
 11
225.9296268923
 21
64.5970019398
  0
LINE
  5
34B
100
AcDbEntity
  8
02___PRT_ALL_AXES
100
AcDbLine
 62
7
  6
CONTINUOUS
 10
228.0229961002
 20
102.6969965473
 11
228.0229961002
 21
88.6959616235
  0
LINE
  5
34C
100
AcDbEntity
  8
02___PRT_ALL_AXES
100
AcDbLine
 62
7
  6
CONTINUOUS
 10
228.3094557898
 20
107.7473665717
 11
228.3094342579
 21
121.7470019255
  0
LINE
  5
34D
100
AcDbEntity
  8
02___PRT_ALL_AXES
100
AcDbLine
 62
7
  6
CONTINUOUS
 10
232.7854745672
 20
140.7970019208
 11
232.7854745672
 21
126.797366567
  0
LINE
  5
34E
100
AcDbEntity
  8
02___PRT_ALL_AXES
100
AcDbLine
 62
7
  6
CONTINUOUS
 10
233.0733768905
 20
88.6959616235
 11
233.0733768905
 21
102.6969965473
  0
LINE
  5
34F
100
AcDbEntity
  8
02___PRT_ALL_AXES
100
AcDbLine
 62
7
  6
CONTINUOUS
 10
237.5479960978
 20
83.6470019351
 11
237.5479960978
 21
69.6473719642
  0
LINE
  5
350
100
AcDbEntity
  8
02___PRT_ALL_AXES
100
AcDbLine
 62
7
  6
CONTINUOUS
 10
237.8344342556
 20
126.797366567
 11
237.8344342556
 21
140.7970019208
  0
LINE
  5
351
100
AcDbEntity
  8
02___PRT_ALL_AXES
100
AcDbLine
 62
7
  6
CONTINUOUS
 10
239.9292460972
 20
64.5970019398
 11
239.9292460972
 21
50.597371969
  0
LINE
  5
352
100
AcDbEntity
  8
02___PRT_ALL_AXES
100
AcDbLine
 62
7
  6
CONTINUOUS
 10
242.3104960966
 20
121.7470019255
 11
242.3104960966
 21
107.7473665717
  0
LINE
  5
353
100
AcDbEntity
  8
02___PRT_ALL_AXES
100
AcDbLine
 62
7
  6
CONTINUOUS
 10
247.0729960954
 20
102.6969965473
 11
247.0729960954
 21
88.6959616235
  0
LINE
  5
354
100
AcDbEntity
  8
02___PRT_ALL_AXES
100
AcDbLine
 62
7
  6
CONTINUOUS
 10
247.3594342532
 20
107.7473665717
 11
247.3594342532
 21
121.7470019255
  0
LINE
  5
355
100
AcDbEntity
  8
02___PRT_ALL_AXES
100
AcDbLine
 62
7
  6
CONTINUOUS
 10
249.7406842526
 20
50.597371969
 11
249.7406842526
 21
64.5970019398
  0
LINE
  5
356
100
AcDbEntity
  8
02___PRT_ALL_AXES
100
AcDbLine
 62
7
  6
CONTINUOUS
 10
250.1664980546
 20
76.1476427213
 11
250.1664980546
 21
78.9465890165
  0
LINE
  5
357
100
AcDbEntity
  8
02___PRT_ALL_AXES
100
AcDbLine
 62
7
  6
CONTINUOUS
 10
250.9906079583
 20
69.877730427
 11
250.9906079583
 21
76.1476427213
  0
LINE
  5
358
100
AcDbEntity
  8
02___PRT_ALL_AXES
100
AcDbLine
 62
7
  6
CONTINUOUS
 10
250.9906079583
 20
78.9465890165
 11
250.9906079583
 21
82.1780239861
  0
LINE
  5
359
100
AcDbEntity
  8
02___PRT_ALL_AXES
100
AcDbLine
 62
7
  6
CONTINUOUS
 10
251.8354960942
 20
140.7970019208
 11
251.8354960942
 21
126.797366567
  0
LINE
  5
35A
100
AcDbEntity
  8
02___PRT_ALL_AXES
100
AcDbLine
 62
7
  6
CONTINUOUS
 10
252.121934252
 20
88.6959616235
 11
252.121934252
 21
102.6969965473
  0
LINE
  5
35B
100
AcDbEntity
  8
02___PRT_ALL_AXES
100
AcDbLine
 62
7
  6
CONTINUOUS
 10
252.7156533952
 20
68.6775775851
 11
252.7156533952
 21
69.877730427
  0
LINE
  5
35C
100
AcDbEntity
  8
02___PRT_ALL_AXES
100
AcDbLine
 62
7
  6
CONTINUOUS
 10
256.0148490866
 20
69.877730427
 11
256.0148490866
 21
68.6775775851
  0
LINE
  5
35D
100
AcDbEntity
  8
02___PRT_ALL_AXES
100
AcDbLine
 62
7
  6
CONTINUOUS
 10
257.3102480528
 20
133.29764809
 11
257.3102480528
 21
136.0979993381
  0
LINE
  5
35E
100
AcDbEntity
  8
02___PRT_ALL_AXES
100
AcDbLine
 62
7
  6
CONTINUOUS
 10
257.7399160553
 20
82.1780239861
 11
257.7399160553
 21
78.9465890165
  0
LINE
  5
35F
100
AcDbEntity
  8
02___PRT_ALL_AXES
100
AcDbLine
 62
7
  6
CONTINUOUS
 10
257.7399160553
 20
74.3481293924
 11
257.7399160553
 21
69.877730427
  0
LINE
  5
360
100
AcDbEntity
  8
02___PRT_ALL_AXES
100
AcDbLine
 62
7
  6
CONTINUOUS
 10
258.1343364247
 20
127.0263200768
 11
258.1343364247
 21
133.29764809
  0
LINE
  5
361
100
AcDbEntity
  8
02___PRT_ALL_AXES
100
AcDbLine
 62
7
  6
CONTINUOUS
 10
258.1343364247
 20
136.0979993381
 11
258.1343364247
 21
139.3280347377
  0
LINE
  5
362
100
AcDbEntity
  8
02___PRT_ALL_AXES
100
AcDbLine
 62
7
  6
CONTINUOUS
 10
259.2656842502
 20
69.6477164738
 11
259.2656842502
 21
74.3481293924
  0
LINE
  5
363
100
AcDbEntity
  8
02___PRT_ALL_AXES
100
AcDbLine
 62
7
  6
CONTINUOUS
 10
259.2656842502
 20
78.9465890165
 11
259.2656842502
 21
83.6470019351
  0
LINE
  5
364
100
AcDbEntity
  8
02___PRT_ALL_AXES
100
AcDbLine
 62
7
  6
CONTINUOUS
 10
259.8594033934
 20
125.8275829538
 11
259.8594033934
 21
127.0263200768
  0
LINE
  5
365
100
AcDbEntity
  8
02___PRT_ALL_AXES
100
AcDbLine
 62
7
  6
CONTINUOUS
 10
261.35907499
 20
121.7470019255
 11
261.35907499
 21
107.7473665717
  0
LINE
  5
366
100
AcDbEntity
  8
02___PRT_ALL_AXES
100
AcDbLine
 62
7
  6
CONTINUOUS
 10
263.1585990848
 20
127.0263200768
 11
263.1585990848
 21
125.8275829538
  0
LINE
  5
367
100
AcDbEntity
  8
02___PRT_ALL_AXES
100
AcDbLine
 62
7
  6
CONTINUOUS
 10
263.7403249894
 20
64.5970019398
 11
263.7403249894
 21
50.597371969
  0
LINE
  5
368
100
AcDbEntity
  8
02___PRT_ALL_AXES
100
AcDbLine
 62
7
  6
CONTINUOUS
 10
264.8836660535
 20
139.3280347377
 11
264.8836660535
 21
136.0979993381
  0
LINE
  5
369
100
AcDbEntity
  8
02___PRT_ALL_AXES
100
AcDbLine
 62
7
  6
CONTINUOUS
 10
264.8836660535
 20
131.4981293781
 11
264.8836660535
 21
127.0263200768
  0
LINE
  5
36A
100
AcDbEntity
  8
02___PRT_ALL_AXES
100
AcDbLine
 62
7
  6
CONTINUOUS
 10
266.1215749888
 20
102.6969965473
 11
266.1215749888
 21
88.6959616235
  0
LINE
  5
36B
100
AcDbEntity
  8
02___PRT_ALL_AXES
100
AcDbLine
 62
7
  6
CONTINUOUS
 10
266.4094342484
 20
126.7977218424
 11
266.4094342484
 21
131.4981293781
  0
LINE
  5
36C
100
AcDbEntity
  8
02___PRT_ALL_AXES
100
AcDbLine
 62
7
  6
CONTINUOUS
 10
266.4094342484
 20
136.0979993381
 11
266.4094342484
 21
140.7970019208
  0
LINE
  5
36D
100
AcDbEntity
  8
02___PRT_ALL_AXES
100
AcDbLine
 62
7
  6
CONTINUOUS
 10
272.583045358
 20
91.6712752756
 11
272.583045358
 21
94.9732808731
  0
LINE
  5
36E
100
AcDbEntity
  8
02___PRT_ALL_AXES
100
AcDbLine
 62
7
  6
CONTINUOUS
 10
272.583045358
 20
115.4742581934
 11
272.583045358
 21
118.7730824605
  0
LINE
  5
36F
100
AcDbEntity
  8
02___PRT_ALL_AXES
100
AcDbLine
 62
7
  6
CONTINUOUS
 10
273.2649589456
 20
83.6470019351
 11
273.2649589456
 21
78.9465890165
  0
LINE
  5
370
100
AcDbEntity
  8
02___PRT_ALL_AXES
100
AcDbLine
 62
7
  6
CONTINUOUS
 10
273.2649589456
 20
74.3481293924
 11
273.2649589456
 21
69.6477164738
  0
LINE
  5
371
100
AcDbEntity
  8
02___PRT_ALL_AXES
100
AcDbLine
 62
7
  6
CONTINUOUS
 10
273.5531842466
 20
50.597371969
 11
273.5531842466
 21
64.5970019398
  0
LINE
  5
372
100
AcDbEntity
  8
02___PRT_ALL_AXES
100
AcDbLine
 62
7
  6
CONTINUOUS
 10
273.5531842466
 20
98.2227110836
 11
273.5531842466
 21
112.2220019279
  0
LINE
  5
373
100
AcDbEntity
  8
02___PRT_ALL_AXES
100
AcDbLine
 62
7
  6
CONTINUOUS
 10
273.7846085359
 20
89.946197541
 11
273.7846085359
 21
91.6712752756
  0
LINE
  5
374
100
AcDbEntity
  8
02___PRT_ALL_AXES
100
AcDbLine
 62
7
  6
CONTINUOUS
 10
273.7846085359
 20
94.9732808731
 11
273.7846085359
 21
96.6969590377
  0
LINE
  5
375
100
AcDbEntity
  8
02___PRT_ALL_AXES
100
AcDbLine
 62
7
  6
CONTINUOUS
 10
273.7846085359
 20
113.7474094644
 11
273.7846085359
 21
115.4742581934
  0
LINE
  5
376
100
AcDbEntity
  8
02___PRT_ALL_AXES
100
AcDbLine
 62
7
  6
CONTINUOUS
 10
273.7846085359
 20
118.7730824605
 11
273.7846085359
 21
120.4971051346
  0
LINE
  5
377
100
AcDbEntity
  8
02___PRT_ALL_AXES
100
AcDbLine
 62
7
  6
CONTINUOUS
 10
274.7904041628
 20
69.877730427
 11
274.7904041628
 21
74.3481293924
  0
LINE
  5
378
100
AcDbEntity
  8
02___PRT_ALL_AXES
100
AcDbLine
 62
7
  6
CONTINUOUS
 10
274.7904041628
 20
78.9465890165
 11
274.7904041628
 21
82.1780239861
  0
LINE
  5
379
100
AcDbEntity
  8
02___PRT_ALL_AXES
100
AcDbLine
 62
7
  6
CONTINUOUS
 10
276.5143945391
 20
68.6775775851
 11
276.5143945391
 21
69.877730427
  0
LINE
  5
37A
100
AcDbEntity
  8
02___PRT_ALL_AXES
100
AcDbLine
 62
7
  6
CONTINUOUS
 10
278.253629463
 20
96.6969590377
 11
278.253629463
 21
98.2227110836
  0
LINE
  5
37B
100
AcDbEntity
  8
02___PRT_ALL_AXES
100
AcDbLine
 62
7
  6
CONTINUOUS
 10
278.253629463
 20
112.2220019279
 11
278.253629463
 21
113.7474094644
  0
LINE
  5
37C
100
AcDbEntity
  8
02___PRT_ALL_AXES
100
AcDbLine
 62
7
  6
CONTINUOUS
 10
279.8149898006
 20
69.877730427
 11
279.8149898006
 21
68.6775775851
  0
LINE
  5
37D
100
AcDbEntity
  8
02___PRT_ALL_AXES
100
AcDbLine
 62
7
  6
CONTINUOUS
 10
280.053132026
 20
89.1220984032
 11
280.053132026
 21
89.946197541
  0
LINE
  5
37E
100
AcDbEntity
  8
02___PRT_ALL_AXES
100
AcDbLine
 62
7
  6
CONTINUOUS
 10
280.053132026
 20
120.4971051346
 11
280.053132026
 21
121.3226092255
  0
LINE
  5
37F
100
AcDbEntity
  8
02___PRT_ALL_AXES
100
AcDbLine
 62
7
  6
CONTINUOUS
 10
280.4087089438
 20
140.7970019208
 11
280.4087089438
 21
136.0979993381
  0
LINE
  5
380
100
AcDbEntity
  8
02___PRT_ALL_AXES
100
AcDbLine
 62
7
  6
CONTINUOUS
 10
280.4087089438
 20
131.4981293781
 11
280.4087089438
 21
126.7977218424
  0
LINE
  5
381
100
AcDbEntity
  8
02___PRT_ALL_AXES
100
AcDbLine
 62
7
  6
CONTINUOUS
 10
281.5400783012
 20
82.1780239861
 11
281.5400783012
 21
78.9465890165
  0
LINE
  5
382
100
AcDbEntity
  8
02___PRT_ALL_AXES
100
AcDbLine
 62
7
  6
CONTINUOUS
 10
281.5400783012
 20
76.1476427213
 11
281.5400783012
 21
69.877730427
  0
LINE
  5
383
100
AcDbEntity
  8
02___PRT_ALL_AXES
100
AcDbLine
 62
7
  6
CONTINUOUS
 10
281.934154161
 20
127.0263200768
 11
281.934154161
 21
131.4981293781
  0
LINE
  5
384
100
AcDbEntity
  8
02___PRT_ALL_AXES
100
AcDbLine
 62
7
  6
CONTINUOUS
 10
281.934154161
 20
136.0979993381
 11
281.934154161
 21
139.3280347377
  0
LINE
  5
385
100
AcDbEntity
  8
02___PRT_ALL_AXES
100
AcDbLine
 62
7
  6
CONTINUOUS
 10
282.3655662431
 20
78.9465890165
 11
282.3655662431
 21
76.1476427213
  0
LINE
  5
386
100
AcDbEntity
  8
02___PRT_ALL_AXES
100
AcDbLine
 62
7
  6
CONTINUOUS
 10
282.8534778912
 20
121.3226092255
 11
282.8534778912
 21
120.4971051346
  0
LINE
  5
387
100
AcDbEntity
  8
02___PRT_ALL_AXES
100
AcDbLine
 62
7
  6
CONTINUOUS
 10
282.8534778912
 20
113.7474094644
 11
282.8534778912
 21
112.2220019279
  0
LINE
  5
388
100
AcDbEntity
  8
02___PRT_ALL_AXES
100
AcDbLine
 62
7
  6
CONTINUOUS
 10
282.8534778912
 20
98.2227110836
 11
282.8534778912
 21
96.6969590377
  0
LINE
  5
389
100
AcDbEntity
  8
02___PRT_ALL_AXES
100
AcDbLine
 62
7
  6
CONTINUOUS
 10
282.8534778912
 20
89.946197541
 11
282.8534778912
 21
89.1220984032
  0
LINE
  5
38A
100
AcDbEntity
  8
02___PRT_ALL_AXES
100
AcDbLine
 62
7
  6
CONTINUOUS
 10
283.6595871711
 20
125.8275829538
 11
283.6595871711
 21
127.0263200768
  0
LINE
  5
38B
100
AcDbEntity
  8
02___PRT_ALL_AXES
100
AcDbLine
 62
7
  6
CONTINUOUS
 10
286.083491759
 20
120.4971051346
 11
286.083491759
 21
113.7474094644
  0
LINE
  5
38C
100
AcDbEntity
  8
02___PRT_ALL_AXES
100
AcDbLine
 62
7
  6
CONTINUOUS
 10
286.083491759
 20
96.6969590377
 11
286.083491759
 21
89.946197541
  0
LINE
  5
38D
100
AcDbEntity
  8
02___PRT_ALL_AXES
100
AcDbLine
 62
7
  6
CONTINUOUS
 10
286.9587397988
 20
127.0263200768
 11
286.9587397988
 21
125.8275829538
  0
LINE
  5
38E
100
AcDbEntity
  8
02___PRT_ALL_AXES
100
AcDbLine
 62
7
  6
CONTINUOUS
 10
287.552458942
 20
112.2220019279
 11
287.552458942
 21
98.2227110836
  0
LINE
  5
38F
100
AcDbEntity
  8
02___PRT_ALL_AXES
100
AcDbLine
 62
7
  6
CONTINUOUS
 10
287.5528249834
 20
64.5970019398
 11
287.5528249834
 21
50.597371969
  0
LINE
  5
390
100
AcDbEntity
  8
02___PRT_ALL_AXES
100
AcDbLine
 62
7
  6
CONTINUOUS
 10
288.6838282994
 20
139.3280347377
 11
288.6838282994
 21
136.0979993381
  0
LINE
  5
391
100
AcDbEntity
  8
02___PRT_ALL_AXES
100
AcDbLine
 62
7
  6
CONTINUOUS
 10
288.6838282994
 20
133.29764809
 11
288.6838282994
 21
127.0263200768
  0
LINE
  5
392
100
AcDbEntity
  8
02___PRT_ALL_AXES
100
AcDbLine
 62
7
  6
CONTINUOUS
 10
289.5093162413
 20
136.0979993381
 11
289.5093162413
 21
133.29764809
  0
LINE
  5
393
100
AcDbEntity
  8
0
100
AcDbLine
 62
7
  6
CONTINUOUS
 10
292.0854926933
 20
49.6957766208
 11
292.0854926933
 21
84.015905701
  0
LINE
  5
394
100
AcDbEntity
  8
0
100
AcDbLine
 62
7
  6
CONTINUOUS
 10
292.0854926933
 20
89.015905701
 11
292.0854926933
 21
141.695776597
  0
ARC
  5
395
100
AcDbEntity
  8
0
100
AcDbCircle
 62
7
  6
CONTINUOUS
 10
288.9137009811
 20
86.515905701
 40
2.5001591364
100
AcDbArc
 50
90.6464589006
 51
269.3535410994
  0
ARC
  5
396
100
AcDbEntity
  8
0
100
AcDbCircle
 62
7
  6
CONTINUOUS
 10
9.5137010523
 20
86.4972271492
 40
2.5001591364
100
AcDbArc
 50
269.3535410994
 51
90.6464589006
  0
CIRCLE
  5
397
100
AcDbEntity
  8
02___PRT_ALL_AXES
100
AcDbCircle
 62
7
  6
CONTINUOUS
 10
197.5846085549
 20
57.7972016621
 40
2.5
  0
CIRCLE
  5
398
100
AcDbEntity
  8
02___PRT_ALL_AXES
100
AcDbCircle
 62
7
  6
CONTINUOUS
 10
32.2852990564
 20
115.0960836024
 40
2.5
  0
CIRCLE
  5
399
100
AcDbEntity
  8
02___PRT_ALL_AXES
100
AcDbCircle
 62
7
  6
CONTINUOUS
 10
267.1354450582
 20
115.0974885554
 40
2.5
  0
CIRCLE
  5
39A
100
AcDbEntity
  8
0
100
AcDbCircle
 62
7
  6
CONTINUOUS
 10
206.7854926933
 20
105.6964790854
 40
1.75
  0
CIRCLE
  5
39B
100
AcDbEntity
  8
0
100
AcDbCircle
 62
7
  6
CONTINUOUS
 10
289.0854926933
 20
121.1964790854
 40
1.75
  0
CIRCLE
  5
39C
100
AcDbEntity
  8
0
100
AcDbCircle
 62
7
  6
CONTINUOUS
 10
149.585492729
 20
52.2974215377
 40
1.75
  0
CIRCLE
  5
39D
100
AcDbEntity
  8
0
100
AcDbCircle
 62
7
  6
CONTINUOUS
 10
73.3854927646
 20
105.6964790854
 40
1.75
  0
CIRCLE
  5
39E
100
AcDbEntity
  8
0
100
AcDbCircle
 62
7
  6
CONTINUOUS
 10
11.0854927646
 20
123.6964790854
 40
1.75
  0
CIRCLE
  5
39F
100
AcDbEntity
  8
0
100
AcDbCircle
 62
7
  6
CONTINUOUS
 10
268.585492729
 20
57.6964790854
 40
1.75
  0
CIRCLE
  5
3A0
100
AcDbEntity
  8
0
100
AcDbCircle
 62
7
  6
CONTINUOUS
 10
30.585492729
 20
57.6964790854
 40
1.75
  0
CIRCLE
  5
3A1
100
AcDbEntity
  8
0
100
AcDbCircle
 62
7
  6
CONTINUOUS
 10
140.085492729
 20
124.6964790854
 40
1.75
  0
ARC
  5
3A2
100
AcDbEntity
  8
0
100
AcDbCircle
 62
7
  6
CONTINUOUS
 10
8.5854927646
 20
49.6957766208
 40
1.5
100
AcDbArc
 50
180.0
 51
270.0
  0
ARC
  5
3A3
100
AcDbEntity
  8
0
100
AcDbCircle
 62
7
  6
CONTINUOUS
 10
290.5854926933
 20
49.6957766208
 40
1.5
100
AcDbArc
 50
270.0
 51
360.0
  0
ARC
  5
3A4
100
AcDbEntity
  8
0
100
AcDbCircle
 62
7
  6
CONTINUOUS
 10
290.5854926933
 20
141.695776597
 40
1.5
100
AcDbArc
 50
0.0
 51
90.0
  0
ARC
  5
3A5
100
AcDbEntity
  8
0
100
AcDbCircle
 62
7
  6
CONTINUOUS
 10
8.5854927646
 20
141.695776597
 40
1.5
100
AcDbArc
 50
90.0
 51
180.0
  0
CIRCLE
  5
3A6
100
AcDbEntity
  8
0
100
AcDbCircle
 62
7
  6
CONTINUOUS
 10
149.5854926933
 20
105.3964790854
 40
1.25
  0
CIRCLE
  5
3A7
100
AcDbEntity
  8
0
100
AcDbCircle
 62
7
  6
CONTINUOUS
 10
11.0854927646
 20
105.3964790854
 40
1.25
  0
ARC
  5
3A8
100
AcDbEntity
  8
0
100
AcDbCircle
 62
7
  6
CONTINUOUS
 10
137.0719342806
 20
91.9464790854
 40
0.75
100
AcDbArc
 50
0.0
 51
90.0
  0
ARC
  5
3A9
100
AcDbEntity
  8
0
100
AcDbCircle
 62
7
  6
CONTINUOUS
 10
133.5226300826
 20
91.9464790854
 40
0.75
100
AcDbArc
 50
90.0
 51
180.0
  0
ARC
  5
3AA
100
AcDbEntity
  8
0
100
AcDbCircle
 62
7
  6
CONTINUOUS
 10
133.5226300826
 20
99.4464790854
 40
0.75
100
AcDbArc
 50
180.0
 51
270.0
  0
ARC
  5
3AB
100
AcDbEntity
  8
0
100
AcDbCircle
 62
7
  6
CONTINUOUS
 10
137.0719342806
 20
99.4464790854
 40
0.75
100
AcDbArc
 50
270.0
 51
360.0
  0
ENDSEC
  0
SECTION
  2
OBJECTS
  0
DICTIONARY
  5
C
100
AcDbDictionary
280
0
281
1
  3
ACAD_GROUP
350
D
  3
ACAD_MLINESTYLE
350
17
  3
ACAD_LAYOUT
350
1A
  3
ACAD_PLOTSETTINGS
350
19
  3
ACAD_PLOTSTYLENAME
350
E
  0
DICTIONARY
  5
D
102
{ACAD_REACTORS
330
C
102
}
100
AcDbDictionary
280
0
281
1
  0
ACDBDICTIONARYWDFLT
  5
E
102
{ACAD_REACTORS
330
C
102
}
100
AcDbDictionary
281
1
  3
Normal
350
F
100
AcDbDictionaryWithDefault
340
F
  0
DICTIONARY
  5
17
102
{ACAD_REACTORS
330
C
102
}
100
AcDbDictionary
280
0
281
1
  3
Standard
350
18
  0
DICTIONARY
  5
19
102
{ACAD_REACTORS
330
C
102
}
100
AcDbDictionary
281
1
  0
DICTIONARY
  5
1A
102
{ACAD_REACTORS
330
C
102
}
100
AcDbDictionary
281
1
  3
Model
350
3AC
  3
Layout1
350
3AD
  0
ACDBPLACEHOLDER
  5
F
102
{ACAD_REACTORS
330
E
102
}
  0
MLINESTYLE
  5
18
102
{ACAD_REACTORS
330
17
102
}
100
AcDbMlineStyle
  2
STANDARD
 70
0
  3

 62
256
 51
90.0
 52
90.0
 71
2
 49
0.5
 62
256
  6
BYLAYER
 49
-0.5
 62
256
  6
BYLAYER
  0
LAYOUT
  5
3AC
102
{ACAD_REACTORS
330
1A
102
}
100
AcDbPlotSettings
  1

  2
none_device
  4
ISO_A4_(297.00_x_210.00_MM)
  6

 40
0.0
 41
0.0
 42
0.0
 43
0.0
 44
297.0
 45
210.0
 46
0.0
 47
0.0
 48
0.0
 49
0.0
140
0.0
141
0.0
142
1.0
143
1.0
 70
1024
 72
1
 73
0
 74
0
  7

 75
0
147
1.0
148
0.0
149
0.0
100
AcDbLayout
  1
Model
 70
0
 71
0
 10
0.0
 20
0.0
 11
297.0
 21
210.0
 12
0.0
 22
0.0
 32
0.0
 14
0.0
 24
0.0
 34
0.0
 15
0.0
 25
0.0
 35
0.0
146
0.0
 13
0.0
 23
0.0
 33
0.0
 16
1.0
 26
0.0
 36
0.0
 17
0.0
 27
1.0
 37
0.0
 76
0
330
208
345
0
346
0
  0
LAYOUT
  5
3AD
102
{ACAD_REACTORS
330
1A
102
}
100
AcDbPlotSettings
  1

  2
none_device
  4
ISO_A4_(297.00_x_210.00_MM)
  6

 40
0.0
 41
0.0
 42
0.0
 43
0.0
 44
297.0
 45
210.0
 46
0.0
 47
0.0
 48
0.0
 49
0.0
140
0.0
141
0.0
142
1.0
143
1.0
 70
0
 72
1
 73
0
 74
0
  7

 75
0
147
1.0
148
0.0
149
0.0
100
AcDbLayout
  1
Layout1
 70
0
 71
1
 10
0.0
 20
0.0
 11
297.0
 21
210.0
 12
0.0
 22
0.0
 32
0.0
 14
0.0
 24
0.0
 34
0.0
 15
0.0
 25
0.0
 35
0.0
146
0.0
 13
0.0
 23
0.0
 33
0.0
 16
1.0
 26
0.0
 36
0.0
 17
0.0
 27
1.0
 37
0.0
 76
0
330
209
345
0
346
0
  0
ENDSEC
  0
EOF
