999
DXF file: 60he_poron-foam_4mm_220705.dxf
999
Pro/ENGINEER 2014000 by Parametric Technology Corporation
  0
SECTION
  2
HEADER
  9
$ACADVER
  1
AC1021
  9
$DWGCODEPAGE
  3
ANSI_950
  9
$EXTMAX
 10
297.0
 20
210.0
 30
0.0
  9
$EXTMIN
 10
0.0
 20
0.0
 30
0.0
  9
$LIMMIN
 10
0.0
 20
0.0
  9
$LIMMAX
 10
297.0
 20
210.0
  9
$VIEWCTR
 10
148.5
 20
105.0
  9
$VIEWSIZE
 40
210.0
  9
$CLAYER
  8
0
  9
$LTSCALE
 40
16.335
  9
$CELTYPE
  6
BYLAYER
  9
$DIMSCALE
 40
1.0
  9
$DIMASZ
 40
3.5
  9
$DIMEXO
 40
1.0
  9
$DIMDLI
 40
11.286
  9
$DIMEXE
 40
1.5
  9
$DIMCEN
 40
2.673
  9
$DIMLFAC
 40
1.0
  9
$DIMBLK
  1
_FILLED
  9
$DIMTXT
 40
3.5
  9
$DIMTOL
 70
1
  9
$DIMLIM
 70
0
  9
$DIMTFAC
 40
1.0
  9
$DIMTP
 40
0.01
  9
$DIMTM
 40
0.01
  9
$DIMGAP
 40
0.625
  9
$DIMDSEP
 70
44
  9
$PDMODE
 70
3
  9
$PDSIZE
 40
8.0
  9
$HANDSEED
  5
349
  9
$TILEMODE
 70
1
  9
$MEASUREMENT
 70
1
  9
$INSUNITS
 70
4
  0
ENDSEC
  0
SECTION
  2
CLASSES
  0
CLASS
  1
ACDBDICTIONARYWDFLT
  2
AcDbDictionaryWithDefault
  3
AutoCAD 2000
 90
0
 91
1
280
0
281
0
  0
CLASS
  1
ACDBPLACEHOLDER
  2
AcDbPlaceHolder
  3
AutoCAD 2000
 90
0
 91
1
280
0
281
0
  0
CLASS
  1
LAYOUT
  2
AcDbLayout
  3
AutoCAD 2000
 90
0
 91
0
280
0
281
0
  0
ENDSEC
  0
SECTION
  2
TABLES
  0
TABLE
  2
VPORT
  5
8
100
AcDbSymbolTable
 70
2
  0
VPORT
  5
1F4
100
AcDbSymbolTableRecord
100
AcDbViewportTableRecord
  2
*ACTIVE
 70
0
 10
0.0
 20
0.0
 11
1.0
 21
1.0
 12
148.5
 22
105.0
 13
0.0
 23
0.0
 14
1.0
 24
1.0
 15
0.0
 25
0.0
 16
0.0
 26
0.0
 36
1.0
 17
0.0
 27
0.0
 37
0.0
 40
210.0
 41
1.4142857143
 42
50.0
 43
0.0
 44
0.0
 50
0.0
 51
0.0
 71
0
 72
100
 73
1
 74
1
 75
0
 76
0
 77
0
 78
0
  0
ENDTAB
  0
TABLE
  2
LTYPE
  5
5
100
AcDbSymbolTable
 70
6
  0
LTYPE
  5
14
100
AcDbSymbolTableRecord
100
AcDbLinetypeTableRecord
  2
BYBLOCK
 70
0
  3

 72
65
 73
0
 40
0.0
  0
LTYPE
  5
15
100
AcDbSymbolTableRecord
100
AcDbLinetypeTableRecord
  2
BYLAYER
 70
0
  3

 72
65
 73
0
 40
0.0
  0
LTYPE
  5
16
100
AcDbSymbolTableRecord
100
AcDbLinetypeTableRecord
  2
CONTINUOUS
 70
64
  3
Solid line
 72
65
 73
0
 40
0.0
  0
LTYPE
  5
1F5
100
AcDbSymbolTableRecord
100
AcDbLinetypeTableRecord
  2
CENTER
 70
64
  3
____ _ ____ _ ____ _ ____ _ ____ _ ____ _ ____
 72
65
 73
4
 40
0.6
 49
0.375
 74
0
 49
-0.075
 74
0
 49
0.075
 74
0
 49
-0.075
 74
0
  0
LTYPE
  5
1F6
100
AcDbSymbolTableRecord
100
AcDbLinetypeTableRecord
  2
HIDDEN
 70
64
  3
- - - - - - - - - - - - - - - - - - - -
 72
65
 73
2
 40
0.2
 49
0.1
 74
0
 49
-0.1
 74
0
  0
LTYPE
  5
1F7
100
AcDbSymbolTableRecord
100
AcDbLinetypeTableRecord
  2
PHANTOM
 70
64
  3
_____ _ _ _____ _ _ _____ _ _ _____
 72
65
 73
6
 40
0.8
 49
0.45
 74
0
 49
-0.05
 74
0
 49
0.1
 74
0
 49
-0.05
 74
0
 49
0.1
 74
0
 49
-0.05
 74
0
  0
LTYPE
  5
1F8
100
AcDbSymbolTableRecord
100
AcDbLinetypeTableRecord
  2
DOT
 70
64
  3
. . . . . . . . . . . . . . . . . . . .
 72
65
 73
2
 40
0.2
 49
0.1
 74
0
 49
-0.1
 74
0
  0
LTYPE
  5
1F9
100
AcDbSymbolTableRecord
100
AcDbLinetypeTableRecord
  2
DASHED
 70
64
  3
- - - - - - - - - - - - - - - - - - - -
 72
65
 73
2
 40
0.2
 49
0.1
 74
0
 49
-0.1
 74
0
  0
ENDTAB
  0
TABLE
  2
LAYER
  5
2
100
AcDbSymbolTable
 70
36
  0
LAYER
  5
10
100
AcDbSymbolTableRecord
100
AcDbLayerTableRecord
  2
0
 70
0
 62
7
  6
CONTINUOUS
370
-3
390
F
  0
LAYER
  5
1FA
100
AcDbSymbolTableRecord
100
AcDbLayerTableRecord
  2
DEFAULT_1
 70
0
 62
7
  6
CENTER
370
-3
390
F
  0
LAYER
  5
1FB
100
AcDbSymbolTableRecord
100
AcDbLayerTableRecord
  2
DEFAULT_2
 70
0
 62
8
  6
HIDDEN
370
-3
390
F
  0
LAYER
  5
1FC
100
AcDbSymbolTableRecord
100
AcDbLayerTableRecord
  2
DEFAULT_3
 70
0
 62
7
  6
PHANTOM
370
-3
390
F
  0
LAYER
  5
1FD
100
AcDbSymbolTableRecord
100
AcDbLayerTableRecord
  2
3_ALL_SYMBOLS
 70
0
 62
7
  6
CONTINUOUS
370
-3
390
F
  0
ENDTAB
  0
TABLE
  2
STYLE
  5
3
100
AcDbSymbolTable
 70
1
  0
STYLE
  5
11
100
AcDbSymbolTableRecord
100
AcDbTextStyleTableRecord
  2
STANDARD
 70
0
 40
0.0
 41
0.85
 50
0.0
 71
0
 42
0.2
  3
txt
  4

  0
STYLE
  5
1FE
100
AcDbSymbolTableRecord
100
AcDbTextStyleTableRecord
  2
TEXTSTYLE_1
 70
0
 40
0.0
 41
0.8
 50
0.0
 71
0
 42
0.2
  3
gdt
  4

  0
ENDTAB
  0
TABLE
  2
VIEW
  5
6
100
AcDbSymbolTable
 70
0
  0
ENDTAB
  0
TABLE
  2
UCS
  5
7
100
AcDbSymbolTable
 70
0
  0
ENDTAB
  0
TABLE
  2
APPID
  5
9
100
AcDbSymbolTable
 70
1
  0
APPID
  5
1FF
100
AcDbSymbolTableRecord
100
AcDbRegAppTableRecord
  2
ACAD
 70
0
  0
ENDTAB
  0
TABLE
  2
BLOCK_RECORD
  5
1
100
AcDbSymbolTable
 70
0
  0
BLOCK_RECORD
  5
200
100
AcDbSymbolTableRecord
100
AcDbBlockTableRecord
  2
*Model_Space
  0
BLOCK_RECORD
  5
201
100
AcDbSymbolTableRecord
100
AcDbBlockTableRecord
  2
*Paper_Space
  0
ENDTAB
  0
TABLE
  2
DIMSTYLE
  5
A
100
AcDbSymbolTable
 70
1
100
AcDbDimStyleTable
 71
0
  0
DIMSTYLE
105
202
100
AcDbSymbolTableRecord
100
AcDbDimStyleTableRecord
  2
STANDARD
 70
0
  3

  4

 40
1.0
 41
3.5
 42
1.0
 43
0.38
 44
1.5
 45
0.0
 46
0.0
 47
0.01
 48
0.01
140
3.5
141
0.09
142
0.0
143
25.4
144
1.0
145
0.0
146
1.0
147
0.625
 71
1.0
 72
0.0
 73
0
 74
0
 75
0
 76
0
 77
1
 78
8
170
0
171
2
172
0
173
0
174
0
175
0
176
0
177
0
178
0
270
2
271
2
272
2
273
2
274
2
275
0
280
0
281
0
282
0
283
1
284
8
285
0
286
0
287
3
288
0
340
11
278
44
  0
ENDTAB
  0
ENDSEC
  0
SECTION
  2
BLOCKS
  0
BLOCK
  5
20
100
AcDbEntity
  8
0
100
AcDbBlockBegin
  2
*Model_Space
 70
0
 10
0.0
 20
0.0
 30
0.0
  3
*Model_Space
  1

  0
ENDBLK
  5
21
100
AcDbEntity
  8
0
100
AcDbBlockEnd
  0
BLOCK
  5
1C
100
AcDbEntity
  8
0
100
AcDbBlockBegin
  2
*Paper_Space
 70
0
 10
0.0
 20
0.0
 30
0.0
  3
*Paper_Space
  1

  0
ENDBLK
  5
1D
100
AcDbEntity
  8
0
100
AcDbBlockEnd
  0
ENDSEC
  0
SECTION
  2
ENTITIES
  0
LINE
  5
203
100
AcDbEntity
  8
0
100
AcDbLine
 62
7
  6
CONTINUOUS
 10
0.0
 20
0.0
 11
0.0
 21
210.0
  0
LINE
  5
204
100
AcDbEntity
  8
0
100
AcDbLine
 62
7
  6
CONTINUOUS
 10
0.0
 20
0.0
 11
297.0
 21
0.0
  0
LINE
  5
205
100
AcDbEntity
  8
0
100
AcDbLine
 62
7
  6
CONTINUOUS
 10
0.0
 20
210.0
 11
297.0
 21
210.0
  0
LINE
  5
206
100
AcDbEntity
  8
0
100
AcDbLine
 62
7
  6
CONTINUOUS
 10
297.0
 20
0.0
 11
297.0
 21
210.0
  0
LINE
  5
207
100
AcDbEntity
  8
0
100
AcDbLine
 62
7
  6
CONTINUOUS
 10
7.5956335443
 20
50.3146478442
 11
7.5956335443
 21
84.1153958962
  0
LINE
  5
208
100
AcDbEntity
  8
0
100
AcDbLine
 62
7
  6
CONTINUOUS
 10
7.5956335443
 20
90.1153958962
 11
7.5956335443
 21
142.3158731442
  0
LINE
  5
209
100
AcDbEntity
  8
0
100
AcDbLine
 62
7
  6
CONTINUOUS
 10
9.0445858583
 20
141.9158731442
 11
9.0445858583
 21
126.9162377904
  0
LINE
  5
20A
100
AcDbEntity
  8
0
100
AcDbLine
 62
7
  6
CONTINUOUS
 10
11.3956335443
 20
84.1153958962
 11
11.3956335443
 21
68.5716016505
  0
LINE
  5
20B
100
AcDbEntity
  8
0
100
AcDbLine
 62
7
  6
CONTINUOUS
 10
11.4258358578
 20
65.7158731633
 11
11.4258358578
 21
50.7162431924
  0
LINE
  5
20C
100
AcDbEntity
  8
0
100
AcDbLine
 62
7
  6
CONTINUOUS
 10
12.8240009685
 20
84.7658731585
 11
12.8240009685
 21
87.1153958962
  0
LINE
  5
20D
100
AcDbEntity
  8
0
100
AcDbLine
 62
7
  6
CONTINUOUS
 10
13.8084961932
 20
122.865873149
 11
13.8084961932
 21
107.8662377952
  0
LINE
  5
20E
100
AcDbEntity
  8
0
100
AcDbLine
 62
7
  6
CONTINUOUS
 10
16.1897461926
 20
103.8158677708
 11
16.1897461926
 21
88.8148328469
  0
LINE
  5
20F
100
AcDbEntity
  8
0
100
AcDbLine
 62
7
  6
CONTINUOUS
 10
20.3516388939
 20
67.9662431876
 11
20.3516388939
 21
67.0716016505
  0
LINE
  5
210
100
AcDbEntity
  8
0
100
AcDbLine
 62
7
  6
CONTINUOUS
 10
24.0456369311
 20
126.9162377904
 11
24.0456369311
 21
141.9158731442
  0
LINE
  5
211
100
AcDbEntity
  8
0
100
AcDbLine
 62
7
  6
CONTINUOUS
 10
26.4268869305
 20
50.7162431924
 11
26.4268869305
 21
65.7158731633
  0
LINE
  5
212
100
AcDbEntity
  8
0
100
AcDbLine
 62
7
  6
CONTINUOUS
 10
28.0945858536
 20
141.9158731442
 11
28.0945858536
 21
126.9162377904
  0
LINE
  5
213
100
AcDbEntity
  8
0
100
AcDbLine
 62
7
  6
CONTINUOUS
 10
28.808126164
 20
107.8662377952
 11
28.808126164
 21
122.865873149
  0
LINE
  5
214
100
AcDbEntity
  8
0
100
AcDbLine
 62
7
  6
CONTINUOUS
 10
31.1893761634
 20
88.8148328469
 11
31.1893761634
 21
103.8158677708
  0
LINE
  5
215
100
AcDbEntity
  8
0
100
AcDbLine
 62
7
  6
CONTINUOUS
 10
35.2383358518
 20
65.7158731633
 11
35.2383358518
 21
50.7162431924
  0
LINE
  5
216
100
AcDbEntity
  8
0
100
AcDbLine
 62
7
  6
CONTINUOUS
 10
36.3763266871
 20
67.0716016505
 11
36.3763266871
 21
67.9662431876
  0
LINE
  5
217
100
AcDbEntity
  8
0
100
AcDbLine
 62
7
  6
CONTINUOUS
 10
37.6195858512
 20
122.865873149
 11
37.6195858512
 21
107.8662377952
  0
LINE
  5
218
100
AcDbEntity
  8
0
100
AcDbLine
 62
7
  6
CONTINUOUS
 10
42.383496186
 20
103.8158677708
 11
42.383496186
 21
88.8148328469
  0
LINE
  5
219
100
AcDbEntity
  8
0
100
AcDbLine
 62
7
  6
CONTINUOUS
 10
43.0956369264
 20
126.9162377904
 11
43.0956369264
 21
141.9158731442
  0
LINE
  5
21A
100
AcDbEntity
  8
0
100
AcDbLine
 62
7
  6
CONTINUOUS
 10
47.1445750829
 20
141.9158731442
 11
47.1445750829
 21
126.9162377904
  0
LINE
  5
21B
100
AcDbEntity
  8
0
100
AcDbLine
 62
7
  6
CONTINUOUS
 10
47.8585069496
 20
68.5716016505
 11
47.8585069496
 21
84.7658731585
  0
LINE
  5
21C
100
AcDbEntity
  8
0
100
AcDbLine
 62
7
  6
CONTINUOUS
 10
50.2379658227
 20
50.7162431924
 11
50.2379658227
 21
65.7158731633
  0
LINE
  5
21D
100
AcDbEntity
  8
0
100
AcDbLine
 62
7
  6
CONTINUOUS
 10
51.9085069495
 20
84.7658731585
 11
51.9085069495
 21
69.7662431876
  0
LINE
  5
21E
100
AcDbEntity
  8
0
100
AcDbLine
 62
7
  6
CONTINUOUS
 10
52.6192158221
 20
107.8662377952
 11
52.6192158221
 21
122.865873149
  0
LINE
  5
21F
100
AcDbEntity
  8
0
100
AcDbLine
 62
7
  6
CONTINUOUS
 10
56.6695858464
 20
122.865873149
 11
56.6695858464
 21
107.8662377952
  0
LINE
  5
220
100
AcDbEntity
  8
0
100
AcDbLine
 62
7
  6
CONTINUOUS
 10
57.3831261568
 20
88.8148328469
 11
57.3831261568
 21
103.8158677708
  0
LINE
  5
221
100
AcDbEntity
  8
0
100
AcDbLine
 62
7
  6
CONTINUOUS
 10
59.0508358458
 20
65.7158731633
 11
59.0508358458
 21
50.7162431924
  0
LINE
  5
222
100
AcDbEntity
  8
0
100
AcDbLine
 62
7
  6
CONTINUOUS
 10
61.4306701263
 20
88.8148328469
 11
61.4306701263
 21
103.8158677708
  0
LINE
  5
223
100
AcDbEntity
  8
0
100
AcDbLine
 62
7
  6
CONTINUOUS
 10
62.1456261556
 20
126.9162377904
 11
62.1456261556
 21
141.9158731442
  0
LINE
  5
224
100
AcDbEntity
  8
0
100
AcDbLine
 62
7
  6
CONTINUOUS
 10
66.1945858441
 20
141.9158731442
 11
66.1945858441
 21
126.9162377904
  0
LINE
  5
225
100
AcDbEntity
  8
0
100
AcDbLine
 62
7
  6
CONTINUOUS
 10
66.9081369204
 20
69.7662431876
 11
66.9081369204
 21
84.7658731585
  0
LINE
  5
226
100
AcDbEntity
  8
0
100
AcDbLine
 62
7
  6
CONTINUOUS
 10
70.9584961788
 20
84.7658731585
 11
70.9584961788
 21
69.7662431876
  0
LINE
  5
227
100
AcDbEntity
  8
0
100
AcDbLine
 62
7
  6
CONTINUOUS
 10
71.6695858464
 20
107.8662377952
 11
71.6695858464
 21
122.865873149
  0
LINE
  5
228
100
AcDbEntity
  8
0
100
AcDbLine
 62
7
  6
CONTINUOUS
 10
74.0518815356
 20
50.7162431924
 11
74.0518815356
 21
65.7158731633
  0
LINE
  5
229
100
AcDbEntity
  8
0
100
AcDbLine
 62
7
  6
CONTINUOUS
 10
75.7206315315
 20
122.865873149
 11
75.7206315315
 21
107.8662377952
  0
LINE
  5
22A
100
AcDbEntity
  8
0
100
AcDbLine
 62
7
  6
CONTINUOUS
 10
76.4317158161
 20
103.8158677708
 11
76.4317158161
 21
88.8148328469
  0
LINE
  5
22B
100
AcDbEntity
  8
0
100
AcDbLine
 62
7
  6
CONTINUOUS
 10
80.4820804575
 20
103.8158677708
 11
80.4820804575
 21
88.8148328469
  0
LINE
  5
22C
100
AcDbEntity
  8
0
100
AcDbLine
 62
7
  6
CONTINUOUS
 10
81.1942211979
 20
126.9162377904
 11
81.1942211979
 21
141.9158731442
  0
LINE
  5
22D
100
AcDbEntity
  8
0
100
AcDbLine
 62
7
  6
CONTINUOUS
 10
83.2905599778
 20
53.3433862309
 11
83.2905599778
 21
69.7662431876
  0
LINE
  5
22E
100
AcDbEntity
  8
0
100
AcDbLine
 62
7
  6
CONTINUOUS
 10
85.2445858393
 20
141.9158731442
 11
85.2445858393
 21
126.9162377904
  0
LINE
  5
22F
100
AcDbEntity
  8
0
100
AcDbLine
 62
7
  6
CONTINUOUS
 10
85.9581261497
 20
69.7662431876
 11
85.9581261497
 21
84.7658731585
  0
LINE
  5
230
100
AcDbEntity
  8
0
100
AcDbLine
 62
7
  6
CONTINUOUS
 10
90.0084961741
 20
84.7658731585
 11
90.0084961741
 21
69.7662431876
  0
LINE
  5
231
100
AcDbEntity
  8
0
100
AcDbLine
 62
7
  6
CONTINUOUS
 10
90.7206315315
 20
107.8662377952
 11
90.7206315315
 21
122.865873149
  0
LINE
  5
232
100
AcDbEntity
  8
0
100
AcDbLine
 62
7
  6
CONTINUOUS
 10
92.4905599778
 20
53.3433862309
 11
92.4905599778
 21
55.4155902846
  0
LINE
  5
233
100
AcDbEntity
  8
0
100
AcDbLine
 62
7
  6
CONTINUOUS
 10
94.7695912199
 20
122.865873149
 11
94.7695912199
 21
107.8662377952
  0
LINE
  5
234
100
AcDbEntity
  8
0
100
AcDbLine
 62
7
  6
CONTINUOUS
 10
95.4817158113
 20
88.8148328469
 11
95.4817158113
 21
103.8158677708
  0
LINE
  5
235
100
AcDbEntity
  8
0
100
AcDbLine
 62
7
  6
CONTINUOUS
 10
99.5320750698
 20
103.8158677708
 11
99.5320750698
 21
88.8148328469
  0
LINE
  5
236
100
AcDbEntity
  8
0
100
AcDbLine
 62
7
  6
CONTINUOUS
 10
100.2456261461
 20
126.9162377904
 11
100.2456261461
 21
141.9158731442
  0
LINE
  5
237
100
AcDbEntity
  8
0
100
AcDbLine
 62
7
  6
CONTINUOUS
 10
104.2945750686
 20
141.9158731442
 11
104.2945750686
 21
126.9162377904
  0
LINE
  5
238
100
AcDbEntity
  8
0
100
AcDbLine
 62
7
  6
CONTINUOUS
 10
105.0081261449
 20
84.7658731585
 11
105.0081261449
 21
67.7662431876
  0
LINE
  5
239
100
AcDbEntity
  8
0
100
AcDbLine
 62
7
  6
CONTINUOUS
 10
109.0570750674
 20
84.7658731585
 11
109.0570750674
 21
69.7662431876
  0
LINE
  5
23A
100
AcDbEntity
  8
0
100
AcDbLine
 62
7
  6
CONTINUOUS
 10
109.7706369097
 20
107.8662377952
 11
109.7706369097
 21
122.865873149
  0
LINE
  5
23B
100
AcDbEntity
  8
0
100
AcDbLine
 62
7
  6
CONTINUOUS
 10
290.8312490019
 20
49.0162431924
 11
8.9600180155
 21
49.0162431924
  0
LINE
  5
23C
100
AcDbEntity
  8
0
100
AcDbLine
 62
7
  6
CONTINUOUS
 10
11.4258358578
 20
50.7162431924
 11
26.4268869305
 21
50.7162431924
  0
LINE
  5
23D
100
AcDbEntity
  8
0
100
AcDbLine
 62
7
  6
CONTINUOUS
 10
35.2383358518
 20
50.7162431924
 11
50.2379658227
 21
50.7162431924
  0
LINE
  5
23E
100
AcDbEntity
  8
0
100
AcDbLine
 62
7
  6
CONTINUOUS
 10
59.0508358458
 20
50.7162431924
 11
74.0518815356
 21
50.7162431924
  0
LINE
  5
23F
100
AcDbEntity
  8
0
100
AcDbLine
 62
7
  6
CONTINUOUS
 10
201.9258250442
 20
50.7162431924
 11
216.925465781
 21
50.7162431924
  0
LINE
  5
240
100
AcDbEntity
  8
0
100
AcDbLine
 62
7
  6
CONTINUOUS
 10
225.739767672
 20
50.7162431924
 11
240.7393868769
 21
50.7162431924
  0
LINE
  5
241
100
AcDbEntity
  8
0
100
AcDbLine
 62
7
  6
CONTINUOUS
 10
249.5508250323
 20
50.7162431924
 11
264.5504657691
 21
50.7162431924
  0
LINE
  5
242
100
AcDbEntity
  8
0
100
AcDbLine
 62
7
  6
CONTINUOUS
 10
273.3633250264
 20
50.7162431924
 11
288.3629657632
 21
50.7162431924
  0
LINE
  5
243
100
AcDbEntity
  8
0
100
AcDbLine
 62
7
  6
CONTINUOUS
 10
130.4897461639
 20
50.716587702
 11
145.4890208593
 21
50.716587702
  0
LINE
  5
244
100
AcDbEntity
  8
0
100
AcDbLine
 62
7
  6
CONTINUOUS
 10
84.7905599778
 20
51.8433862309
 11
90.9905599778
 21
51.8433862309
  0
LINE
  5
245
100
AcDbEntity
  8
0
100
AcDbLine
 62
7
  6
CONTINUOUS
 10
185.0905599779
 20
51.8433862309
 11
191.1896281473
 21
51.8433862309
  0
LINE
  5
246
100
AcDbEntity
  8
0
100
AcDbLine
 62
7
  6
CONTINUOUS
 10
92.4905599778
 20
55.4155902846
 11
130.4897461639
 21
55.4155902846
  0
LINE
  5
247
100
AcDbEntity
  8
0
100
AcDbLine
 62
7
  6
CONTINUOUS
 10
145.4890208593
 20
55.4155902846
 11
183.5905599779
 21
55.4155902846
  0
LINE
  5
248
100
AcDbEntity
  8
0
100
AcDbLine
 62
7
  6
CONTINUOUS
 10
113.8195750662
 20
122.865873149
 11
113.8195750662
 21
107.8662377952
  0
LINE
  5
249
100
AcDbEntity
  8
0
100
AcDbLine
 62
7
  6
CONTINUOUS
 10
114.5317158066
 20
88.8148328469
 11
114.5317158066
 21
103.8158677708
  0
LINE
  5
24A
100
AcDbEntity
  8
0
100
AcDbLine
 62
7
  6
CONTINUOUS
 10
118.580675495
 20
88.8148328469
 11
118.580675495
 21
103.8158677708
  0
LINE
  5
24B
100
AcDbEntity
  8
0
100
AcDbLine
 62
7
  6
CONTINUOUS
 10
119.2956153754
 20
126.9162377904
 11
119.2956153754
 21
141.9158731442
  0
LINE
  5
24C
100
AcDbEntity
  8
0
100
AcDbLine
 62
7
  6
CONTINUOUS
 10
288.3629657632
 20
65.7158731633
 11
273.3633250264
 21
65.7158731633
  0
LINE
  5
24D
100
AcDbEntity
  8
0
100
AcDbLine
 62
7
  6
CONTINUOUS
 10
264.5504657691
 20
65.7158731633
 11
249.5508250323
 21
65.7158731633
  0
LINE
  5
24E
100
AcDbEntity
  8
0
100
AcDbLine
 62
7
  6
CONTINUOUS
 10
240.7393868769
 20
65.7158731633
 11
225.739767672
 21
65.7158731633
  0
LINE
  5
24F
100
AcDbEntity
  8
0
100
AcDbLine
 62
7
  6
CONTINUOUS
 10
216.925465781
 20
65.7158731633
 11
201.9258250442
 21
65.7158731633
  0
LINE
  5
250
100
AcDbEntity
  8
0
100
AcDbLine
 62
7
  6
CONTINUOUS
 10
74.0518815356
 20
65.7158731633
 11
59.0508358458
 21
65.7158731633
  0
LINE
  5
251
100
AcDbEntity
  8
0
100
AcDbLine
 62
7
  6
CONTINUOUS
 10
50.2379658227
 20
65.7158731633
 11
35.2383358518
 21
65.7158731633
  0
LINE
  5
252
100
AcDbEntity
  8
0
100
AcDbLine
 62
7
  6
CONTINUOUS
 10
26.4268869305
 20
65.7158731633
 11
11.4258358578
 21
65.7158731633
  0
LINE
  5
253
100
AcDbEntity
  8
0
100
AcDbLine
 62
7
  6
CONTINUOUS
 10
281.6757070229
 20
66.9716016505
 11
274.5013266275
 21
66.9716016505
  0
LINE
  5
254
100
AcDbEntity
  8
0
100
AcDbLine
 62
7
  6
CONTINUOUS
 10
258.4766388343
 20
66.9716016505
 11
251.4766388343
 21
66.9716016505
  0
LINE
  5
255
100
AcDbEntity
  8
0
100
AcDbLine
 62
7
  6
CONTINUOUS
 10
12.8956335443
 20
67.0716016505
 11
20.3516388939
 21
67.0716016505
  0
LINE
  5
256
100
AcDbEntity
  8
0
100
AcDbLine
 62
7
  6
CONTINUOUS
 10
36.3763266871
 20
67.0716016505
 11
46.3585069496
 21
67.0716016505
  0
LINE
  5
257
100
AcDbEntity
  8
0
100
AcDbLine
 62
7
  6
CONTINUOUS
 10
123.3445750638
 20
126.9162377904
 11
123.3445750638
 21
141.9158731442
  0
LINE
  5
258
100
AcDbEntity
  8
0
100
AcDbLine
 62
7
  6
CONTINUOUS
 10
124.0567158042
 20
69.7662431876
 11
124.0567158042
 21
84.7658731585
  0
LINE
  5
259
100
AcDbEntity
  8
0
100
AcDbLine
 62
7
  6
CONTINUOUS
 10
128.1084961645
 20
84.7658731585
 11
128.1084961645
 21
69.7662431876
  0
LINE
  5
25A
100
AcDbEntity
  8
0
100
AcDbLine
 62
7
  6
CONTINUOUS
 10
128.819215803
 20
107.8662377952
 11
128.819215803
 21
122.865873149
  0
LINE
  5
25B
100
AcDbEntity
  8
0
100
AcDbLine
 62
7
  6
CONTINUOUS
 10
130.4897461639
 20
55.4155902846
 11
130.4897461639
 21
50.716587702
  0
LINE
  5
25C
100
AcDbEntity
  8
0
100
AcDbLine
 62
7
  6
CONTINUOUS
 10
105.0081261449
 20
67.7662431876
 11
184.2905599778
 21
67.7662431876
  0
LINE
  5
25D
100
AcDbEntity
  8
0
100
AcDbLine
 62
7
  6
CONTINUOUS
 10
274.5013266275
 20
67.9662431876
 11
258.4766388343
 21
67.9662431876
  0
LINE
  5
25E
100
AcDbEntity
  8
0
100
AcDbLine
 62
7
  6
CONTINUOUS
 10
36.3763266871
 20
67.9662431876
 11
20.3516388939
 21
67.9662431876
  0
LINE
  5
25F
100
AcDbEntity
  8
0
100
AcDbLine
 62
7
  6
CONTINUOUS
 10
51.9085069495
 20
69.7662431876
 11
66.9081369204
 21
69.7662431876
  0
LINE
  5
260
100
AcDbEntity
  8
0
100
AcDbLine
 62
7
  6
CONTINUOUS
 10
70.9584961788
 20
69.7662431876
 11
83.2905599778
 21
69.7662431876
  0
LINE
  5
261
100
AcDbEntity
  8
0
100
AcDbLine
 62
7
  6
CONTINUOUS
 10
85.9581261497
 20
69.7662431876
 11
90.0084961741
 21
69.7662431876
  0
LINE
  5
262
100
AcDbEntity
  8
0
100
AcDbLine
 62
7
  6
CONTINUOUS
 10
109.0570750674
 20
69.7662431876
 11
124.0567158042
 21
69.7662431876
  0
LINE
  5
263
100
AcDbEntity
  8
0
100
AcDbLine
 62
7
  6
CONTINUOUS
 10
128.1084961645
 20
69.7662431876
 11
143.1081261354
 21
69.7662431876
  0
LINE
  5
264
100
AcDbEntity
  8
0
100
AcDbLine
 62
7
  6
CONTINUOUS
 10
147.1570858238
 20
69.7662431876
 11
162.1567157947
 21
69.7662431876
  0
LINE
  5
265
100
AcDbEntity
  8
0
100
AcDbLine
 62
7
  6
CONTINUOUS
 10
166.2084853891
 20
69.7662431876
 11
181.20811536
 21
69.7662431876
  0
LINE
  5
266
100
AcDbEntity
  8
0
100
AcDbLine
 62
7
  6
CONTINUOUS
 10
184.2905599778
 20
69.7662431876
 11
185.2584853843
 21
69.7662431876
  0
LINE
  5
267
100
AcDbEntity
  8
0
100
AcDbLine
 62
7
  6
CONTINUOUS
 10
192.6896281473
 20
69.7662431876
 11
200.2581153552
 21
69.7662431876
  0
LINE
  5
268
100
AcDbEntity
  8
0
100
AcDbLine
 62
7
  6
CONTINUOUS
 10
204.3070750436
 20
69.7662431876
 11
219.3067157804
 21
69.7662431876
  0
LINE
  5
269
100
AcDbEntity
  8
0
100
AcDbLine
 62
7
  6
CONTINUOUS
 10
223.3585176726
 20
69.7662431876
 11
238.3581368775
 21
69.7662431876
  0
LINE
  5
26A
100
AcDbEntity
  8
0
100
AcDbLine
 62
7
  6
CONTINUOUS
 10
132.8695750615
 20
107.8662377952
 11
132.8695750615
 21
122.865873149
  0
LINE
  5
26B
100
AcDbEntity
  8
0
100
AcDbLine
 62
7
  6
CONTINUOUS
 10
133.580675495
 20
88.8148328469
 11
133.580675495
 21
92.8153503089
  0
LINE
  5
26C
100
AcDbEntity
  8
0
100
AcDbLine
 62
7
  6
CONTINUOUS
 10
133.580675495
 20
99.8153503089
 11
133.580675495
 21
103.8158677708
  0
LINE
  5
26D
100
AcDbEntity
  8
0
100
AcDbLine
 62
7
  6
CONTINUOUS
 10
137.630316227
 20
103.8158677708
 11
137.630316227
 21
99.8153503089
  0
LINE
  5
26E
100
AcDbEntity
  8
0
100
AcDbLine
 62
7
  6
CONTINUOUS
 10
137.630316227
 20
92.8153503089
 11
137.630316227
 21
88.8148328469
  0
LINE
  5
26F
100
AcDbEntity
  8
0
100
AcDbLine
 62
7
  6
CONTINUOUS
 10
138.3445750638
 20
126.9162377904
 11
138.3445750638
 21
141.9158731442
  0
LINE
  5
270
100
AcDbEntity
  8
0
100
AcDbLine
 62
7
  6
CONTINUOUS
 10
255.7391388331
 20
83.7658731585
 11
251.4766388343
 21
83.7658731585
  0
LINE
  5
271
100
AcDbEntity
  8
0
100
AcDbLine
 62
7
  6
CONTINUOUS
 10
7.5956335443
 20
84.1153958962
 11
9.7929412829
 21
84.1153958962
  0
LINE
  5
272
100
AcDbEntity
  8
0
100
AcDbLine
 62
7
  6
CONTINUOUS
 10
9.8547423813
 20
84.1153958962
 11
11.3956335443
 21
84.1153958962
  0
LINE
  5
273
100
AcDbEntity
  8
0
100
AcDbLine
 62
7
  6
CONTINUOUS
 10
289.2547423097
 20
84.1340744479
 11
292.1956334731
 21
84.1340744479
  0
LINE
  5
274
100
AcDbEntity
  8
0
100
AcDbLine
 62
7
  6
CONTINUOUS
 10
238.3581368775
 20
84.7658731585
 11
223.3585176726
 21
84.7658731585
  0
LINE
  5
275
100
AcDbEntity
  8
0
100
AcDbLine
 62
7
  6
CONTINUOUS
 10
219.3067157804
 20
84.7658731585
 11
204.3070750436
 21
84.7658731585
  0
LINE
  5
276
100
AcDbEntity
  8
0
100
AcDbLine
 62
7
  6
CONTINUOUS
 10
200.2581153552
 20
84.7658731585
 11
185.2584853843
 21
84.7658731585
  0
LINE
  5
277
100
AcDbEntity
  8
0
100
AcDbLine
 62
7
  6
CONTINUOUS
 10
181.20811536
 20
84.7658731585
 11
166.2084853891
 21
84.7658731585
  0
LINE
  5
278
100
AcDbEntity
  8
0
100
AcDbLine
 62
7
  6
CONTINUOUS
 10
162.1567157947
 20
84.7658731585
 11
147.1570858238
 21
84.7658731585
  0
LINE
  5
279
100
AcDbEntity
  8
0
100
AcDbLine
 62
7
  6
CONTINUOUS
 10
143.1081261354
 20
84.7658731585
 11
128.1084961645
 21
84.7658731585
  0
LINE
  5
27A
100
AcDbEntity
  8
0
100
AcDbLine
 62
7
  6
CONTINUOUS
 10
124.0567158042
 20
84.7658731585
 11
109.0570750674
 21
84.7658731585
  0
LINE
  5
27B
100
AcDbEntity
  8
0
100
AcDbLine
 62
7
  6
CONTINUOUS
 10
105.0081261449
 20
84.7658731585
 11
90.0084961741
 21
84.7658731585
  0
LINE
  5
27C
100
AcDbEntity
  8
0
100
AcDbLine
 62
7
  6
CONTINUOUS
 10
85.9581261497
 20
84.7658731585
 11
70.9584961788
 21
84.7658731585
  0
LINE
  5
27D
100
AcDbEntity
  8
0
100
AcDbLine
 62
7
  6
CONTINUOUS
 10
66.9081369204
 20
84.7658731585
 11
51.9085069495
 21
84.7658731585
  0
LINE
  5
27E
100
AcDbEntity
  8
0
100
AcDbLine
 62
7
  6
CONTINUOUS
 10
47.8585069496
 20
84.7658731585
 11
12.8240009685
 21
84.7658731585
  0
LINE
  5
27F
100
AcDbEntity
  8
0
100
AcDbLine
 62
7
  6
CONTINUOUS
 10
283.1757070229
 20
84.7658731585
 11
287.3819466777
 21
84.7658731585
  0
LINE
  5
280
100
AcDbEntity
  8
0
100
AcDbLine
 62
7
  6
CONTINUOUS
 10
142.3956261318
 20
141.9158731442
 11
142.3956261318
 21
126.9162377904
  0
LINE
  5
281
100
AcDbEntity
  8
0
100
AcDbLine
 62
7
  6
CONTINUOUS
 10
143.1081261354
 20
69.7662431876
 11
143.1081261354
 21
84.7658731585
  0
LINE
  5
282
100
AcDbEntity
  8
0
100
AcDbLine
 62
7
  6
CONTINUOUS
 10
145.4890208593
 20
50.716587702
 11
145.4890208593
 21
55.4155902846
  0
LINE
  5
283
100
AcDbEntity
  8
0
100
AcDbLine
 62
7
  6
CONTINUOUS
 10
147.1570858238
 20
84.7658731585
 11
147.1570858238
 21
69.7662431876
  0
LINE
  5
284
100
AcDbEntity
  8
0
100
AcDbLine
 62
7
  6
CONTINUOUS
 10
147.8695750615
 20
107.8662377952
 11
147.8695750615
 21
122.865873149
  0
LINE
  5
285
100
AcDbEntity
  8
0
100
AcDbLine
 62
7
  6
CONTINUOUS
 10
152.6317157971
 20
88.8148328469
 11
137.630316227
 21
88.8148328469
  0
LINE
  5
286
100
AcDbEntity
  8
0
100
AcDbLine
 62
7
  6
CONTINUOUS
 10
133.580675495
 20
88.8148328469
 11
118.580675495
 21
88.8148328469
  0
LINE
  5
287
100
AcDbEntity
  8
0
100
AcDbLine
 62
7
  6
CONTINUOUS
 10
16.1897461926
 20
88.8148328469
 11
31.1893761634
 21
88.8148328469
  0
LINE
  5
288
100
AcDbEntity
  8
0
100
AcDbLine
 62
7
  6
CONTINUOUS
 10
42.383496186
 20
88.8148328469
 11
57.3831261568
 21
88.8148328469
  0
LINE
  5
289
100
AcDbEntity
  8
0
100
AcDbLine
 62
7
  6
CONTINUOUS
 10
61.4306701263
 20
88.8148328469
 11
76.4317158161
 21
88.8148328469
  0
LINE
  5
28A
100
AcDbEntity
  8
0
100
AcDbLine
 62
7
  6
CONTINUOUS
 10
80.4820804575
 20
88.8148328469
 11
95.4817158113
 21
88.8148328469
  0
LINE
  5
28B
100
AcDbEntity
  8
0
100
AcDbLine
 62
7
  6
CONTINUOUS
 10
99.5320750698
 20
88.8148328469
 11
114.5317158066
 21
88.8148328469
  0
LINE
  5
28C
100
AcDbEntity
  8
0
100
AcDbLine
 62
7
  6
CONTINUOUS
 10
156.6820858214
 20
88.8148328469
 11
171.6817157923
 21
88.8148328469
  0
LINE
  5
28D
100
AcDbEntity
  8
0
100
AcDbLine
 62
7
  6
CONTINUOUS
 10
175.7334853867
 20
88.8148328469
 11
190.7331153576
 21
88.8148328469
  0
LINE
  5
28E
100
AcDbEntity
  8
0
100
AcDbLine
 62
7
  6
CONTINUOUS
 10
194.782075046
 20
88.8148328469
 11
209.7817157828
 21
88.8148328469
  0
LINE
  5
28F
100
AcDbEntity
  8
0
100
AcDbLine
 62
7
  6
CONTINUOUS
 10
213.8334961431
 20
88.8148328469
 11
228.8331368799
 21
88.8148328469
  0
LINE
  5
290
100
AcDbEntity
  8
0
100
AcDbLine
 62
7
  6
CONTINUOUS
 10
232.8835176702
 20
88.8148328469
 11
247.8831368751
 21
88.8148328469
  0
LINE
  5
291
100
AcDbEntity
  8
0
100
AcDbLine
 62
7
  6
CONTINUOUS
 10
251.9331368752
 20
88.8148328469
 11
255.7391388331
 21
88.8148328469
  0
LINE
  5
292
100
AcDbEntity
  8
0
100
AcDbLine
 62
7
  6
CONTINUOUS
 10
9.8547423812
 20
90.1153958962
 11
7.5956335443
 21
90.1153958962
  0
LINE
  5
293
100
AcDbEntity
  8
0
100
AcDbLine
 62
7
  6
CONTINUOUS
 10
288.3956334731
 20
90.1340744479
 11
292.1956334731
 21
90.1340744479
  0
LINE
  5
294
100
AcDbEntity
  8
0
100
AcDbLine
 62
7
  6
CONTINUOUS
 10
137.630316227
 20
92.8153503089
 11
133.580675495
 21
92.8153503089
  0
LINE
  5
295
100
AcDbEntity
  8
0
100
AcDbLine
 62
7
  6
CONTINUOUS
 10
151.9192157935
 20
122.865873149
 11
151.9192157935
 21
107.8662377952
  0
LINE
  5
296
100
AcDbEntity
  8
0
100
AcDbLine
 62
7
  6
CONTINUOUS
 10
152.6317157971
 20
103.8158677708
 11
152.6317157971
 21
88.8148328469
  0
LINE
  5
297
100
AcDbEntity
  8
0
100
AcDbLine
 62
7
  6
CONTINUOUS
 10
156.6820858214
 20
103.8158677708
 11
156.6820858214
 21
88.8148328469
  0
LINE
  5
298
100
AcDbEntity
  8
0
100
AcDbLine
 62
7
  6
CONTINUOUS
 10
157.3956261318
 20
141.9158731442
 11
157.3956261318
 21
126.9162377904
  0
LINE
  5
299
100
AcDbEntity
  8
0
100
AcDbLine
 62
7
  6
CONTINUOUS
 10
133.580675495
 20
99.8153503089
 11
137.630316227
 21
99.8153503089
  0
LINE
  5
29A
100
AcDbEntity
  8
0
100
AcDbLine
 62
7
  6
CONTINUOUS
 10
270.982075027
 20
103.8158677708
 11
251.9331368752
 21
103.8158677708
  0
LINE
  5
29B
100
AcDbEntity
  8
0
100
AcDbLine
 62
7
  6
CONTINUOUS
 10
247.8831368751
 20
103.8158677708
 11
232.8835176702
 21
103.8158677708
  0
LINE
  5
29C
100
AcDbEntity
  8
0
100
AcDbLine
 62
7
  6
CONTINUOUS
 10
228.8331368799
 20
103.8158677708
 11
213.8334961431
 21
103.8158677708
  0
LINE
  5
29D
100
AcDbEntity
  8
0
100
AcDbLine
 62
7
  6
CONTINUOUS
 10
209.7817157828
 20
103.8158677708
 11
194.782075046
 21
103.8158677708
  0
LINE
  5
29E
100
AcDbEntity
  8
0
100
AcDbLine
 62
7
  6
CONTINUOUS
 10
190.7331153576
 20
103.8158677708
 11
175.7334853867
 21
103.8158677708
  0
LINE
  5
29F
100
AcDbEntity
  8
0
100
AcDbLine
 62
7
  6
CONTINUOUS
 10
171.6817157923
 20
103.8158677708
 11
156.6820858214
 21
103.8158677708
  0
LINE
  5
2A0
100
AcDbEntity
  8
0
100
AcDbLine
 62
7
  6
CONTINUOUS
 10
152.6317157971
 20
103.8158677708
 11
137.630316227
 21
103.8158677708
  0
LINE
  5
2A1
100
AcDbEntity
  8
0
100
AcDbLine
 62
7
  6
CONTINUOUS
 10
133.580675495
 20
103.8158677708
 11
118.580675495
 21
103.8158677708
  0
LINE
  5
2A2
100
AcDbEntity
  8
0
100
AcDbLine
 62
7
  6
CONTINUOUS
 10
114.5317158066
 20
103.8158677708
 11
99.5320750698
 21
103.8158677708
  0
LINE
  5
2A3
100
AcDbEntity
  8
0
100
AcDbLine
 62
7
  6
CONTINUOUS
 10
95.4817158113
 20
103.8158677708
 11
80.4820804575
 21
103.8158677708
  0
LINE
  5
2A4
100
AcDbEntity
  8
0
100
AcDbLine
 62
7
  6
CONTINUOUS
 10
76.4317158161
 20
103.8158677708
 11
61.4306701263
 21
103.8158677708
  0
LINE
  5
2A5
100
AcDbEntity
  8
0
100
AcDbLine
 62
7
  6
CONTINUOUS
 10
57.3831261568
 20
103.8158677708
 11
42.383496186
 21
103.8158677708
  0
LINE
  5
2A6
100
AcDbEntity
  8
0
100
AcDbLine
 62
7
  6
CONTINUOUS
 10
31.1893761634
 20
103.8158677708
 11
16.1897461926
 21
103.8158677708
  0
LINE
  5
2A7
100
AcDbEntity
  8
0
100
AcDbLine
 62
7
  6
CONTINUOUS
 10
161.4445858202
 20
141.9158731442
 11
161.4445858202
 21
126.9162377904
  0
LINE
  5
2A8
100
AcDbEntity
  8
0
100
AcDbLine
 62
7
  6
CONTINUOUS
 10
162.1567157947
 20
69.7662431876
 11
162.1567157947
 21
84.7658731585
  0
LINE
  5
2A9
100
AcDbEntity
  8
0
100
AcDbLine
 62
7
  6
CONTINUOUS
 10
166.2084853891
 20
84.7658731585
 11
166.2084853891
 21
69.7662431876
  0
LINE
  5
2AA
100
AcDbEntity
  8
0
100
AcDbLine
 62
7
  6
CONTINUOUS
 10
166.9192157935
 20
107.8662377952
 11
166.9192157935
 21
122.865873149
  0
LINE
  5
2AB
100
AcDbEntity
  8
0
100
AcDbLine
 62
7
  6
CONTINUOUS
 10
170.9695858179
 20
122.865873149
 11
170.9695858179
 21
107.8662377952
  0
LINE
  5
2AC
100
AcDbEntity
  8
0
100
AcDbLine
 62
7
  6
CONTINUOUS
 10
13.8084961932
 20
107.8662377952
 11
28.808126164
 21
107.8662377952
  0
LINE
  5
2AD
100
AcDbEntity
  8
0
100
AcDbLine
 62
7
  6
CONTINUOUS
 10
37.6195858512
 20
107.8662377952
 11
52.6192158221
 21
107.8662377952
  0
LINE
  5
2AE
100
AcDbEntity
  8
0
100
AcDbLine
 62
7
  6
CONTINUOUS
 10
56.6695858464
 20
107.8662377952
 11
71.6695858464
 21
107.8662377952
  0
LINE
  5
2AF
100
AcDbEntity
  8
0
100
AcDbLine
 62
7
  6
CONTINUOUS
 10
75.7206315315
 20
107.8662377952
 11
90.7206315315
 21
107.8662377952
  0
LINE
  5
2B0
100
AcDbEntity
  8
0
100
AcDbLine
 62
7
  6
CONTINUOUS
 10
94.7695912199
 20
107.8662377952
 11
109.7706369097
 21
107.8662377952
  0
LINE
  5
2B1
100
AcDbEntity
  8
0
100
AcDbLine
 62
7
  6
CONTINUOUS
 10
113.8195750662
 20
107.8662377952
 11
128.819215803
 21
107.8662377952
  0
LINE
  5
2B2
100
AcDbEntity
  8
0
100
AcDbLine
 62
7
  6
CONTINUOUS
 10
132.8695750615
 20
107.8662377952
 11
147.8695750615
 21
107.8662377952
  0
LINE
  5
2B3
100
AcDbEntity
  8
0
100
AcDbLine
 62
7
  6
CONTINUOUS
 10
151.9192157935
 20
107.8662377952
 11
166.9192157935
 21
107.8662377952
  0
LINE
  5
2B4
100
AcDbEntity
  8
0
100
AcDbLine
 62
7
  6
CONTINUOUS
 10
170.9695858179
 20
107.8662377952
 11
185.9706261247
 21
107.8662377952
  0
LINE
  5
2B5
100
AcDbEntity
  8
0
100
AcDbLine
 62
7
  6
CONTINUOUS
 10
190.0195750472
 20
107.8662377952
 11
205.0195750472
 21
107.8662377952
  0
LINE
  5
2B6
100
AcDbEntity
  8
0
100
AcDbLine
 62
7
  6
CONTINUOUS
 10
209.0692157792
 20
107.8662377952
 11
224.0692157792
 21
107.8662377952
  0
LINE
  5
2B7
100
AcDbEntity
  8
0
100
AcDbLine
 62
7
  6
CONTINUOUS
 10
228.1195973385
 20
107.8662377952
 11
243.1206368763
 21
107.8662377952
  0
LINE
  5
2B8
100
AcDbEntity
  8
0
100
AcDbLine
 62
7
  6
CONTINUOUS
 10
247.1695750329
 20
107.8662377952
 11
262.1692157697
 21
107.8662377952
  0
LINE
  5
2B9
100
AcDbEntity
  8
0
100
AcDbLine
 62
7
  6
CONTINUOUS
 10
270.982075027
 20
113.0663597789
 11
267.445585838
 21
113.0663597789
  0
LINE
  5
2BA
100
AcDbEntity
  8
0
100
AcDbLine
 62
7
  6
CONTINUOUS
 10
286.9956334731
 20
113.9880166263
 11
288.3956334731
 21
113.9880166263
  0
LINE
  5
2BB
100
AcDbEntity
  8
0
100
AcDbLine
 62
7
  6
CONTINUOUS
 10
171.6817157923
 20
88.8148328469
 11
171.6817157923
 21
103.8158677708
  0
LINE
  5
2BC
100
AcDbEntity
  8
0
100
AcDbLine
 62
7
  6
CONTINUOUS
 10
175.7334853867
 20
103.8158677708
 11
175.7334853867
 21
88.8148328469
  0
LINE
  5
2BD
100
AcDbEntity
  8
0
100
AcDbLine
 62
7
  6
CONTINUOUS
 10
176.4442157911
 20
126.9162377904
 11
176.4442157911
 21
141.9158731442
  0
LINE
  5
2BE
100
AcDbEntity
  8
0
100
AcDbLine
 62
7
  6
CONTINUOUS
 10
180.4945858155
 20
141.9158731442
 11
180.4945858155
 21
126.9162377904
  0
LINE
  5
2BF
100
AcDbEntity
  8
0
100
AcDbLine
 62
7
  6
CONTINUOUS
 10
181.20811536
 20
69.7662431876
 11
181.20811536
 21
84.7658731585
  0
LINE
  5
2C0
100
AcDbEntity
  8
0
100
AcDbLine
 62
7
  6
CONTINUOUS
 10
267.445585838
 20
118.3663597789
 11
270.3697493156
 21
118.3663597789
  0
LINE
  5
2C1
100
AcDbEntity
  8
0
100
AcDbLine
 62
7
  6
CONTINUOUS
 10
257.1203888325
 20
122.865873149
 11
247.1695750329
 21
122.865873149
  0
LINE
  5
2C2
100
AcDbEntity
  8
0
100
AcDbLine
 62
7
  6
CONTINUOUS
 10
243.1206368763
 20
122.865873149
 11
228.1195742686
 21
122.865873149
  0
LINE
  5
2C3
100
AcDbEntity
  8
0
100
AcDbLine
 62
7
  6
CONTINUOUS
 10
185.9706261247
 20
122.865873149
 11
170.9695858179
 21
122.865873149
  0
LINE
  5
2C4
100
AcDbEntity
  8
0
100
AcDbLine
 62
7
  6
CONTINUOUS
 10
166.9192157935
 20
122.865873149
 11
151.9192157935
 21
122.865873149
  0
LINE
  5
2C5
100
AcDbEntity
  8
0
100
AcDbLine
 62
7
  6
CONTINUOUS
 10
147.8695750615
 20
122.865873149
 11
132.8695750615
 21
122.865873149
  0
LINE
  5
2C6
100
AcDbEntity
  8
0
100
AcDbLine
 62
7
  6
CONTINUOUS
 10
128.819215803
 20
122.865873149
 11
113.8195750662
 21
122.865873149
  0
LINE
  5
2C7
100
AcDbEntity
  8
0
100
AcDbLine
 62
7
  6
CONTINUOUS
 10
109.7706369097
 20
122.865873149
 11
94.7695912199
 21
122.865873149
  0
LINE
  5
2C8
100
AcDbEntity
  8
0
100
AcDbLine
 62
7
  6
CONTINUOUS
 10
52.6192158221
 20
122.865873149
 11
37.6195858512
 21
122.865873149
  0
LINE
  5
2C9
100
AcDbEntity
  8
0
100
AcDbLine
 62
7
  6
CONTINUOUS
 10
28.808126164
 20
122.865873149
 11
13.8084961932
 21
122.865873149
  0
LINE
  5
2CA
100
AcDbEntity
  8
0
100
AcDbLine
 62
7
  6
CONTINUOUS
 10
56.6695858464
 20
122.865873149
 11
71.6695858464
 21
122.865873149
  0
LINE
  5
2CB
100
AcDbEntity
  8
0
100
AcDbLine
 62
7
  6
CONTINUOUS
 10
75.7206315315
 20
122.865873149
 11
90.7206315315
 21
122.865873149
  0
LINE
  5
2CC
100
AcDbEntity
  8
0
100
AcDbLine
 62
7
  6
CONTINUOUS
 10
190.0195750472
 20
122.865873149
 11
205.0195750472
 21
122.865873149
  0
LINE
  5
2CD
100
AcDbEntity
  8
0
100
AcDbLine
 62
7
  6
CONTINUOUS
 10
209.0692157792
 20
122.865873149
 11
224.0692157792
 21
122.865873149
  0
LINE
  5
2CE
100
AcDbEntity
  8
0
100
AcDbLine
 62
7
  6
CONTINUOUS
 10
262.1692157697
 20
123.7201913002
 11
270.3697493156
 21
123.7201913002
  0
LINE
  5
2CF
100
AcDbEntity
  8
0
100
AcDbLine
 62
7
  6
CONTINUOUS
 10
289.5956334731
 20
123.9880166263
 11
286.9956334731
 21
123.9880166263
  0
LINE
  5
2D0
100
AcDbEntity
  8
0
100
AcDbLine
 62
7
  6
CONTINUOUS
 10
9.0445858583
 20
126.9162377904
 11
24.0456369311
 21
126.9162377904
  0
LINE
  5
2D1
100
AcDbEntity
  8
0
100
AcDbLine
 62
7
  6
CONTINUOUS
 10
28.0945858536
 20
126.9162377904
 11
43.0956369264
 21
126.9162377904
  0
LINE
  5
2D2
100
AcDbEntity
  8
0
100
AcDbLine
 62
7
  6
CONTINUOUS
 10
47.1445750829
 20
126.9162377904
 11
62.1456261556
 21
126.9162377904
  0
LINE
  5
2D3
100
AcDbEntity
  8
0
100
AcDbLine
 62
7
  6
CONTINUOUS
 10
66.1945858441
 20
126.9162377904
 11
81.1942211979
 21
126.9162377904
  0
LINE
  5
2D4
100
AcDbEntity
  8
0
100
AcDbLine
 62
7
  6
CONTINUOUS
 10
85.2445858393
 20
126.9162377904
 11
100.2456261461
 21
126.9162377904
  0
LINE
  5
2D5
100
AcDbEntity
  8
0
100
AcDbLine
 62
7
  6
CONTINUOUS
 10
104.2945750686
 20
126.9162377904
 11
119.2956153754
 21
126.9162377904
  0
LINE
  5
2D6
100
AcDbEntity
  8
0
100
AcDbLine
 62
7
  6
CONTINUOUS
 10
123.3445750638
 20
126.9162377904
 11
138.3445750638
 21
126.9162377904
  0
LINE
  5
2D7
100
AcDbEntity
  8
0
100
AcDbLine
 62
7
  6
CONTINUOUS
 10
142.3956261318
 20
126.9162377904
 11
157.3956261318
 21
126.9162377904
  0
LINE
  5
2D8
100
AcDbEntity
  8
0
100
AcDbLine
 62
7
  6
CONTINUOUS
 10
161.4445858202
 20
126.9162377904
 11
176.4442157911
 21
126.9162377904
  0
LINE
  5
2D9
100
AcDbEntity
  8
0
100
AcDbLine
 62
7
  6
CONTINUOUS
 10
180.4945858155
 20
126.9162377904
 11
195.4956153564
 21
126.9162377904
  0
LINE
  5
2DA
100
AcDbEntity
  8
0
100
AcDbLine
 62
7
  6
CONTINUOUS
 10
199.5445750448
 20
126.9162377904
 11
214.5442157816
 21
126.9162377904
  0
LINE
  5
2DB
100
AcDbEntity
  8
0
100
AcDbLine
 62
7
  6
CONTINUOUS
 10
218.59457504
 20
126.9162377904
 11
233.5956153469
 21
126.9162377904
  0
LINE
  5
2DC
100
AcDbEntity
  8
0
100
AcDbLine
 62
7
  6
CONTINUOUS
 10
237.6445750353
 20
126.9162377904
 11
252.645636874
 21
126.9162377904
  0
LINE
  5
2DD
100
AcDbEntity
  8
0
100
AcDbLine
 62
7
  6
CONTINUOUS
 10
183.5905599779
 20
55.4155902846
 11
183.5905599779
 21
53.3433862309
  0
LINE
  5
2DE
100
AcDbEntity
  8
0
100
AcDbLine
 62
7
  6
CONTINUOUS
 10
184.2905599778
 20
67.7662431876
 11
184.2905599778
 21
69.7662431876
  0
LINE
  5
2DF
100
AcDbEntity
  8
0
100
AcDbLine
 62
7
  6
CONTINUOUS
 10
185.2584853843
 20
84.7658731585
 11
185.2584853843
 21
69.7662431876
  0
LINE
  5
2E0
100
AcDbEntity
  8
0
100
AcDbLine
 62
7
  6
CONTINUOUS
 10
185.9706261247
 20
107.8662377952
 11
185.9706261247
 21
122.865873149
  0
LINE
  5
2E1
100
AcDbEntity
  8
0
100
AcDbLine
 62
7
  6
CONTINUOUS
 10
190.0195750472
 20
122.865873149
 11
190.0195750472
 21
107.8662377952
  0
LINE
  5
2E2
100
AcDbEntity
  8
0
100
AcDbLine
 62
7
  6
CONTINUOUS
 10
190.7331153576
 20
88.8148328469
 11
190.7331153576
 21
103.8158677708
  0
LINE
  5
2E3
100
AcDbEntity
  8
0
100
AcDbLine
 62
7
  6
CONTINUOUS
 10
290.1956334731
 20
132.9880166263
 11
289.5956334731
 21
132.9880166263
  0
LINE
  5
2E4
100
AcDbEntity
  8
0
100
AcDbLine
 62
7
  6
CONTINUOUS
 10
192.6896281473
 20
69.7662431876
 11
192.6896281473
 21
53.3433862309
  0
LINE
  5
2E5
100
AcDbEntity
  8
0
100
AcDbLine
 62
7
  6
CONTINUOUS
 10
194.782075046
 20
88.8148328469
 11
194.782075046
 21
103.8158677708
  0
LINE
  5
2E6
100
AcDbEntity
  8
0
100
AcDbLine
 62
7
  6
CONTINUOUS
 10
195.4956153564
 20
126.9162377904
 11
195.4956153564
 21
141.9158731442
  0
LINE
  5
2E7
100
AcDbEntity
  8
0
100
AcDbLine
 62
7
  6
CONTINUOUS
 10
199.5445750448
 20
141.9158731442
 11
199.5445750448
 21
126.9162377904
  0
LINE
  5
2E8
100
AcDbEntity
  8
0
100
AcDbLine
 62
7
  6
CONTINUOUS
 10
200.2581153552
 20
69.7662431876
 11
200.2581153552
 21
84.7658731585
  0
LINE
  5
2E9
100
AcDbEntity
  8
0
100
AcDbLine
 62
7
  6
CONTINUOUS
 10
258.6203888325
 20
140.6158731442
 11
265.8203888325
 21
140.6158731442
  0
LINE
  5
2EA
100
AcDbEntity
  8
0
100
AcDbLine
 62
7
  6
CONTINUOUS
 10
281.4956334731
 20
140.6158731442
 11
288.6956334731
 21
140.6158731442
  0
LINE
  5
2EB
100
AcDbEntity
  8
0
100
AcDbLine
 62
7
  6
CONTINUOUS
 10
252.645636874
 20
141.9158731442
 11
237.6445750353
 21
141.9158731442
  0
LINE
  5
2EC
100
AcDbEntity
  8
0
100
AcDbLine
 62
7
  6
CONTINUOUS
 10
233.5956153469
 20
141.9158731442
 11
218.59457504
 21
141.9158731442
  0
LINE
  5
2ED
100
AcDbEntity
  8
0
100
AcDbLine
 62
7
  6
CONTINUOUS
 10
214.5442157816
 20
141.9158731442
 11
199.5445750448
 21
141.9158731442
  0
LINE
  5
2EE
100
AcDbEntity
  8
0
100
AcDbLine
 62
7
  6
CONTINUOUS
 10
195.4956153564
 20
141.9158731442
 11
180.4945858155
 21
141.9158731442
  0
LINE
  5
2EF
100
AcDbEntity
  8
0
100
AcDbLine
 62
7
  6
CONTINUOUS
 10
176.4442157911
 20
141.9158731442
 11
161.4445858202
 21
141.9158731442
  0
LINE
  5
2F0
100
AcDbEntity
  8
0
100
AcDbLine
 62
7
  6
CONTINUOUS
 10
157.3956261318
 20
141.9158731442
 11
142.3956261318
 21
141.9158731442
  0
LINE
  5
2F1
100
AcDbEntity
  8
0
100
AcDbLine
 62
7
  6
CONTINUOUS
 10
138.3445750638
 20
141.9158731442
 11
123.3445750638
 21
141.9158731442
  0
LINE
  5
2F2
100
AcDbEntity
  8
0
100
AcDbLine
 62
7
  6
CONTINUOUS
 10
119.2956153754
 20
141.9158731442
 11
104.2945750686
 21
141.9158731442
  0
LINE
  5
2F3
100
AcDbEntity
  8
0
100
AcDbLine
 62
7
  6
CONTINUOUS
 10
100.2456261461
 20
141.9158731442
 11
85.2445858393
 21
141.9158731442
  0
LINE
  5
2F4
100
AcDbEntity
  8
0
100
AcDbLine
 62
7
  6
CONTINUOUS
 10
81.1942211979
 20
141.9158731442
 11
66.1945858441
 21
141.9158731442
  0
LINE
  5
2F5
100
AcDbEntity
  8
0
100
AcDbLine
 62
7
  6
CONTINUOUS
 10
62.1456261556
 20
141.9158731442
 11
47.1445750829
 21
141.9158731442
  0
LINE
  5
2F6
100
AcDbEntity
  8
0
100
AcDbLine
 62
7
  6
CONTINUOUS
 10
43.0956369264
 20
141.9158731442
 11
28.0945858536
 21
141.9158731442
  0
LINE
  5
2F7
100
AcDbEntity
  8
0
100
AcDbLine
 62
7
  6
CONTINUOUS
 10
24.0456369311
 20
141.9158731442
 11
9.0445858583
 21
141.9158731442
  0
LINE
  5
2F8
100
AcDbEntity
  8
0
100
AcDbLine
 62
7
  6
CONTINUOUS
 10
265.8203888325
 20
141.9158731442
 11
281.4956334731
 21
141.9158731442
  0
LINE
  5
2F9
100
AcDbEntity
  8
0
100
AcDbLine
 62
7
  6
CONTINUOUS
 10
290.8956334731
 20
143.6158731442
 11
8.8956335443
 21
143.6158731442
  0
LINE
  5
2FA
100
AcDbEntity
  8
0
100
AcDbLine
 62
7
  6
CONTINUOUS
 10
201.9258250442
 20
65.7158731633
 11
201.9258250442
 21
50.7162431924
  0
LINE
  5
2FB
100
AcDbEntity
  8
0
100
AcDbLine
 62
7
  6
CONTINUOUS
 10
204.3070750436
 20
84.7658731585
 11
204.3070750436
 21
69.7662431876
  0
LINE
  5
2FC
100
AcDbEntity
  8
0
100
AcDbLine
 62
7
  6
CONTINUOUS
 10
205.0195750472
 20
107.8662377952
 11
205.0195750472
 21
122.865873149
  0
LINE
  5
2FD
100
AcDbEntity
  8
0
100
AcDbLine
 62
7
  6
CONTINUOUS
 10
209.0692157792
 20
122.865873149
 11
209.0692157792
 21
107.8662377952
  0
LINE
  5
2FE
100
AcDbEntity
  8
0
100
AcDbLine
 62
7
  6
CONTINUOUS
 10
209.7817157828
 20
103.8158677708
 11
209.7817157828
 21
88.8148328469
  0
LINE
  5
2FF
100
AcDbEntity
  8
0
100
AcDbLine
 62
7
  6
CONTINUOUS
 10
213.8334961431
 20
103.8158677708
 11
213.8334961431
 21
88.8148328469
  0
LINE
  5
300
100
AcDbEntity
  8
0
100
AcDbLine
 62
7
  6
CONTINUOUS
 10
214.5442157816
 20
126.9162377904
 11
214.5442157816
 21
141.9158731442
  0
LINE
  5
301
100
AcDbEntity
  8
0
100
AcDbLine
 62
7
  6
CONTINUOUS
 10
216.925465781
 20
50.7162431924
 11
216.925465781
 21
65.7158731633
  0
LINE
  5
302
100
AcDbEntity
  8
0
100
AcDbLine
 62
7
  6
CONTINUOUS
 10
218.59457504
 20
141.9158731442
 11
218.59457504
 21
126.9162377904
  0
LINE
  5
303
100
AcDbEntity
  8
0
100
AcDbLine
 62
7
  6
CONTINUOUS
 10
219.3067157804
 20
69.7662431876
 11
219.3067157804
 21
84.7658731585
  0
LINE
  5
304
100
AcDbEntity
  8
0
100
AcDbLine
 62
7
  6
CONTINUOUS
 10
223.3585176726
 20
84.7658731585
 11
223.3585176726
 21
69.7662431876
  0
LINE
  5
305
100
AcDbEntity
  8
0
100
AcDbLine
 62
7
  6
CONTINUOUS
 10
224.0692157792
 20
107.8662377952
 11
224.0692157792
 21
122.865873149
  0
LINE
  5
306
100
AcDbEntity
  8
0
100
AcDbLine
 62
7
  6
CONTINUOUS
 10
225.739767672
 20
65.7158731633
 11
225.739767672
 21
50.7162431924
  0
LINE
  5
307
100
AcDbEntity
  8
0
100
AcDbLine
 62
7
  6
CONTINUOUS
 10
228.1195742686
 20
122.865873149
 11
228.1195973385
 21
107.8662377952
  0
LINE
  5
308
100
AcDbEntity
  8
0
100
AcDbLine
 62
7
  6
CONTINUOUS
 10
228.8331368799
 20
88.8148328469
 11
228.8331368799
 21
103.8158677708
  0
LINE
  5
309
100
AcDbEntity
  8
0
100
AcDbLine
 62
7
  6
CONTINUOUS
 10
232.8835176702
 20
103.8158677708
 11
232.8835176702
 21
88.8148328469
  0
LINE
  5
30A
100
AcDbEntity
  8
0
100
AcDbLine
 62
7
  6
CONTINUOUS
 10
233.5956153469
 20
126.9162377904
 11
233.5956153469
 21
141.9158731442
  0
LINE
  5
30B
100
AcDbEntity
  8
0
100
AcDbLine
 62
7
  6
CONTINUOUS
 10
237.6445750353
 20
141.9158731442
 11
237.6445750353
 21
126.9162377904
  0
LINE
  5
30C
100
AcDbEntity
  8
0
100
AcDbLine
 62
7
  6
CONTINUOUS
 10
238.3581368775
 20
69.7662431876
 11
238.3581368775
 21
84.7658731585
  0
LINE
  5
30D
100
AcDbEntity
  8
0
100
AcDbLine
 62
7
  6
CONTINUOUS
 10
240.7393868769
 20
50.7162431924
 11
240.7393868769
 21
65.7158731633
  0
LINE
  5
30E
100
AcDbEntity
  8
0
100
AcDbLine
 62
7
  6
CONTINUOUS
 10
243.1206368763
 20
107.8662377952
 11
243.1206368763
 21
122.865873149
  0
LINE
  5
30F
100
AcDbEntity
  8
0
100
AcDbLine
 62
7
  6
CONTINUOUS
 10
247.1695750329
 20
122.865873149
 11
247.1695750329
 21
107.8662377952
  0
LINE
  5
310
100
AcDbEntity
  8
0
100
AcDbLine
 62
7
  6
CONTINUOUS
 10
247.8831368751
 20
88.8148328469
 11
247.8831368751
 21
103.8158677708
  0
LINE
  5
311
100
AcDbEntity
  8
0
100
AcDbLine
 62
7
  6
CONTINUOUS
 10
249.5508250323
 20
65.7158731633
 11
249.5508250323
 21
50.7162431924
  0
LINE
  5
312
100
AcDbEntity
  8
0
100
AcDbLine
 62
7
  6
CONTINUOUS
 10
249.9766388343
 20
82.2658731585
 11
249.9766388343
 21
68.4716016505
  0
LINE
  5
313
100
AcDbEntity
  8
0
100
AcDbLine
 62
7
  6
CONTINUOUS
 10
251.9331368752
 20
103.8158677708
 11
251.9331368752
 21
88.8148328469
  0
LINE
  5
314
100
AcDbEntity
  8
0
100
AcDbLine
 62
7
  6
CONTINUOUS
 10
252.645636874
 20
126.9162377904
 11
252.645636874
 21
141.9158731442
  0
LINE
  5
315
100
AcDbEntity
  8
0
100
AcDbLine
 62
7
  6
CONTINUOUS
 10
255.7391388331
 20
83.7658731585
 11
255.7391388331
 21
88.8148328469
  0
LINE
  5
316
100
AcDbEntity
  8
0
100
AcDbLine
 62
7
  6
CONTINUOUS
 10
257.1203888325
 20
139.1158731442
 11
257.1203888325
 21
122.865873149
  0
LINE
  5
317
100
AcDbEntity
  8
0
100
AcDbLine
 62
7
  6
CONTINUOUS
 10
258.4766388343
 20
67.9662431876
 11
258.4766388343
 21
66.9716016505
  0
LINE
  5
318
100
AcDbEntity
  8
0
100
AcDbLine
 62
7
  6
CONTINUOUS
 10
262.1692157697
 20
123.7201913002
 11
262.1692157697
 21
107.8662377952
  0
LINE
  5
319
100
AcDbEntity
  8
0
100
AcDbLine
 62
7
  6
CONTINUOUS
 10
264.5504657691
 20
50.7162431924
 11
264.5504657691
 21
65.7158731633
  0
LINE
  5
31A
100
AcDbEntity
  8
0
100
AcDbLine
 62
7
  6
CONTINUOUS
 10
265.8203888325
 20
140.6158731442
 11
265.8203888325
 21
141.9158731442
  0
LINE
  5
31B
100
AcDbEntity
  8
0
100
AcDbLine
 62
7
  6
CONTINUOUS
 10
270.3697493156
 20
118.3663597789
 11
270.3697493156
 21
123.7201913002
  0
LINE
  5
31C
100
AcDbEntity
  8
0
100
AcDbLine
 62
7
  6
CONTINUOUS
 10
270.982075027
 20
103.8158677708
 11
270.982075027
 21
113.0663597789
  0
LINE
  5
31D
100
AcDbEntity
  8
0
100
AcDbLine
 62
7
  6
CONTINUOUS
 10
273.3633250264
 20
65.7158731633
 11
273.3633250264
 21
50.7162431924
  0
LINE
  5
31E
100
AcDbEntity
  8
0
100
AcDbLine
 62
7
  6
CONTINUOUS
 10
274.5013266275
 20
66.9716016505
 11
274.5013266275
 21
67.9662431876
  0
LINE
  5
31F
100
AcDbEntity
  8
0
100
AcDbLine
 62
7
  6
CONTINUOUS
 10
281.4956334731
 20
141.9158731442
 11
281.4956334731
 21
140.6158731442
  0
LINE
  5
320
100
AcDbEntity
  8
0
100
AcDbLine
 62
7
  6
CONTINUOUS
 10
283.1757070229
 20
84.7658731585
 11
283.1757070229
 21
68.4716016505
  0
LINE
  5
321
100
AcDbEntity
  8
0
100
AcDbLine
 62
7
  6
CONTINUOUS
 10
286.9956334731
 20
123.9880166263
 11
286.9956334731
 21
113.9880166263
  0
LINE
  5
322
100
AcDbEntity
  8
0
100
AcDbLine
 62
7
  6
CONTINUOUS
 10
288.3629657632
 20
50.7162431924
 11
288.3629657632
 21
65.7158731633
  0
LINE
  5
323
100
AcDbEntity
  8
0
100
AcDbLine
 62
7
  6
CONTINUOUS
 10
288.3956334731
 20
113.9880166263
 11
288.3956334731
 21
90.1340744479
  0
LINE
  5
324
100
AcDbEntity
  8
0
100
AcDbLine
 62
7
  6
CONTINUOUS
 10
289.5956334731
 20
132.9880166263
 11
289.5956334731
 21
123.9880166263
  0
LINE
  5
325
100
AcDbEntity
  8
0
100
AcDbLine
 62
7
  6
CONTINUOUS
 10
290.1956334731
 20
139.1158731442
 11
290.1956334731
 21
132.9880166263
  0
LINE
  5
326
100
AcDbEntity
  8
0
100
AcDbLine
 62
7
  6
CONTINUOUS
 10
292.1956334731
 20
84.1340744479
 11
292.1956334731
 21
50.3146478442
  0
LINE
  5
327
100
AcDbEntity
  8
0
100
AcDbLine
 62
7
  6
CONTINUOUS
 10
292.1956334731
 20
90.1340744479
 11
292.1956334731
 21
142.3158731442
  0
ARC
  5
328
100
AcDbEntity
  8
0
100
AcDbCircle
 62
7
  6
CONTINUOUS
 10
9.8238418321
 20
87.1153958962
 40
3.0001591364
100
AcDbArc
 50
0.0
 51
89.4098638534
  0
ARC
  5
329
100
AcDbEntity
  8
0
100
AcDbCircle
 62
7
  6
CONTINUOUS
 10
9.8238418321
 20
87.1153958962
 40
3.0001591364
100
AcDbArc
 50
269.4098638515
 51
270.5901361485
  0
CIRCLE
  5
32A
100
AcDbEntity
  8
0
100
AcDbCircle
 62
7
  6
CONTINUOUS
 10
30.8956335087
 20
58.3146478324
 40
1.9
  0
ARC
  5
32B
100
AcDbEntity
  8
0
100
AcDbCircle
 62
7
  6
CONTINUOUS
 10
12.8956335443
 20
68.5716016505
 40
1.5
100
AcDbArc
 50
180.0
 51
270.0
  0
ARC
  5
32C
100
AcDbEntity
  8
0
100
AcDbCircle
 62
7
  6
CONTINUOUS
 10
46.3585069496
 20
68.5716016505
 40
1.5
100
AcDbArc
 50
270.0
 51
360.0
  0
ARC
  5
32D
100
AcDbEntity
  8
0
100
AcDbCircle
 62
7
  6
CONTINUOUS
 10
84.7905599778
 20
53.3433862309
 40
1.5
100
AcDbArc
 50
180.0
 51
270.0
  0
ARC
  5
32E
100
AcDbEntity
  8
0
100
AcDbCircle
 62
7
  6
CONTINUOUS
 10
90.9905599778
 20
53.3433862309
 40
1.5
100
AcDbArc
 50
270.0
 51
360.0
  0
ARC
  5
32F
100
AcDbEntity
  8
0
100
AcDbCircle
 62
7
  6
CONTINUOUS
 10
8.8956335443
 20
50.3146478442
 40
1.3
100
AcDbArc
 50
180.0
 51
272.8388217123
  0
CIRCLE
  5
330
100
AcDbEntity
  8
0
100
AcDbCircle
 62
7
  6
CONTINUOUS
 10
32.5954398362
 20
115.7149548259
 40
2.65
  0
CIRCLE
  5
331
100
AcDbEntity
  8
0
100
AcDbCircle
 62
7
  6
CONTINUOUS
 10
11.3956335443
 20
124.3146478324
 40
1.9
  0
CIRCLE
  5
332
100
AcDbEntity
  8
0
100
AcDbCircle
 62
7
  6
CONTINUOUS
 10
140.3956335087
 20
125.3146478324
 40
1.9
  0
CIRCLE
  5
333
100
AcDbEntity
  8
0
100
AcDbCircle
 62
7
  6
CONTINUOUS
 10
73.6956335443
 20
106.3146478324
 40
1.9
  0
CIRCLE
  5
334
100
AcDbEntity
  8
0
100
AcDbCircle
 62
7
  6
CONTINUOUS
 10
11.3956335443
 20
106.0146478324
 40
1.4
  0
ARC
  5
335
100
AcDbEntity
  8
0
100
AcDbCircle
 62
7
  6
CONTINUOUS
 10
8.8956335443
 20
142.3158731442
 40
1.3
100
AcDbArc
 50
90.0
 51
180.0
  0
ARC
  5
336
100
AcDbEntity
  8
0
100
AcDbCircle
 62
7
  6
CONTINUOUS
 10
289.2238417608
 20
87.1340744479
 40
3.0001591364
100
AcDbArc
 50
232.1256080794
 51
270.5901361429
  0
CIRCLE
  5
337
100
AcDbEntity
  8
0
100
AcDbCircle
 62
7
  6
CONTINUOUS
 10
197.8947493346
 20
58.4160728856
 40
2.65
  0
CIRCLE
  5
338
100
AcDbEntity
  8
0
100
AcDbCircle
 62
7
  6
CONTINUOUS
 10
149.8956335087
 20
52.9155902846
 40
1.9
  0
CIRCLE
  5
339
100
AcDbEntity
  8
0
100
AcDbCircle
 62
7
  6
CONTINUOUS
 10
268.8956335087
 20
58.3146478324
 40
1.85
  0
ARC
  5
33A
100
AcDbEntity
  8
0
100
AcDbCircle
 62
7
  6
CONTINUOUS
 10
251.4766388343
 20
82.2658731585
 40
1.5
100
AcDbArc
 50
90.0
 51
180.0
  0
ARC
  5
33B
100
AcDbEntity
  8
0
100
AcDbCircle
 62
7
  6
CONTINUOUS
 10
251.4766388343
 20
68.4716016505
 40
1.5
100
AcDbArc
 50
180.0
 51
270.0
  0
ARC
  5
33C
100
AcDbEntity
  8
0
100
AcDbCircle
 62
7
  6
CONTINUOUS
 10
281.6757070229
 20
68.4716016505
 40
1.5
100
AcDbArc
 50
270.0
 51
360.0
  0
ARC
  5
33D
100
AcDbEntity
  8
0
100
AcDbCircle
 62
7
  6
CONTINUOUS
 10
185.0905599779
 20
53.3433862309
 40
1.5
100
AcDbArc
 50
180.0
 51
270.0
  0
ARC
  5
33E
100
AcDbEntity
  8
0
100
AcDbCircle
 62
7
  6
CONTINUOUS
 10
191.1896281473
 20
53.3433862309
 40
1.5
100
AcDbArc
 50
270.0
 51
360.0
  0
ARC
  5
33F
100
AcDbEntity
  8
0
100
AcDbCircle
 62
7
  6
CONTINUOUS
 10
290.8956334731
 20
50.3146478442
 40
1.3
100
AcDbArc
 50
267.1611782877
 51
360.0
  0
ARC
  5
340
100
AcDbEntity
  8
0
100
AcDbCircle
 62
7
  6
CONTINUOUS
 10
267.445585838
 20
115.7163597789
 40
2.65
100
AcDbArc
 50
90.0
 51
270.0
  0
CIRCLE
  5
341
100
AcDbEntity
  8
0
100
AcDbCircle
 62
7
  6
CONTINUOUS
 10
289.3956334731
 20
121.8146478324
 40
1.9
  0
CIRCLE
  5
342
100
AcDbEntity
  8
0
100
AcDbCircle
 62
7
  6
CONTINUOUS
 10
207.095633473
 20
106.3146478324
 40
1.9
  0
ARC
  5
343
100
AcDbEntity
  8
0
100
AcDbCircle
 62
7
  6
CONTINUOUS
 10
288.6956334731
 20
139.1158731442
 40
1.5
100
AcDbArc
 50
0.0
 51
90.0
  0
ARC
  5
344
100
AcDbEntity
  8
0
100
AcDbCircle
 62
7
  6
CONTINUOUS
 10
258.6203888325
 20
139.1158731442
 40
1.5
100
AcDbArc
 50
90.0
 51
180.0
  0
CIRCLE
  5
345
100
AcDbEntity
  8
0
100
AcDbCircle
 62
7
  6
CONTINUOUS
 10
149.895633473
 20
106.0146478324
 40
1.4
  0
ARC
  5
346
100
AcDbEntity
  8
0
100
AcDbCircle
 62
7
  6
CONTINUOUS
 10
290.8956334731
 20
142.3158731442
 40
1.3
100
AcDbArc
 50
0.0
 51
90.0
  0
ENDSEC
  0
SECTION
  2
OBJECTS
  0
DICTIONARY
  5
C
100
AcDbDictionary
280
0
281
1
  3
ACAD_GROUP
350
D
  3
ACAD_MLINESTYLE
350
17
  3
ACAD_LAYOUT
350
1A
  3
ACAD_PLOTSETTINGS
350
19
  3
ACAD_PLOTSTYLENAME
350
E
  0
DICTIONARY
  5
D
102
{ACAD_REACTORS
330
C
102
}
100
AcDbDictionary
280
0
281
1
  0
ACDBDICTIONARYWDFLT
  5
E
102
{ACAD_REACTORS
330
C
102
}
100
AcDbDictionary
281
1
  3
Normal
350
F
100
AcDbDictionaryWithDefault
340
F
  0
DICTIONARY
  5
17
102
{ACAD_REACTORS
330
C
102
}
100
AcDbDictionary
280
0
281
1
  3
Standard
350
18
  0
DICTIONARY
  5
19
102
{ACAD_REACTORS
330
C
102
}
100
AcDbDictionary
281
1
  0
DICTIONARY
  5
1A
102
{ACAD_REACTORS
330
C
102
}
100
AcDbDictionary
281
1
  3
Model
350
347
  3
Layout1
350
348
  0
ACDBPLACEHOLDER
  5
F
102
{ACAD_REACTORS
330
E
102
}
  0
MLINESTYLE
  5
18
102
{ACAD_REACTORS
330
17
102
}
100
AcDbMlineStyle
  2
STANDARD
 70
0
  3

 62
256
 51
90.0
 52
90.0
 71
2
 49
0.5
 62
256
  6
BYLAYER
 49
-0.5
 62
256
  6
BYLAYER
  0
LAYOUT
  5
347
102
{ACAD_REACTORS
330
1A
102
}
100
AcDbPlotSettings
  1

  2
none_device
  4
ISO_A4_(297.00_x_210.00_MM)
  6

 40
0.0
 41
0.0
 42
0.0
 43
0.0
 44
297.0
 45
210.0
 46
0.0
 47
0.0
 48
0.0
 49
0.0
140
0.0
141
0.0
142
1.0
143
1.0
 70
1024
 72
1
 73
0
 74
0
  7

 75
0
147
1.0
148
0.0
149
0.0
100
AcDbLayout
  1
Model
 70
0
 71
0
 10
0.0
 20
0.0
 11
297.0
 21
210.0
 12
0.0
 22
0.0
 32
0.0
 14
0.0
 24
0.0
 34
0.0
 15
0.0
 25
0.0
 35
0.0
146
0.0
 13
0.0
 23
0.0
 33
0.0
 16
1.0
 26
0.0
 36
0.0
 17
0.0
 27
1.0
 37
0.0
 76
0
330
200
345
0
346
0
  0
LAYOUT
  5
348
102
{ACAD_REACTORS
330
1A
102
}
100
AcDbPlotSettings
  1

  2
none_device
  4
ISO_A4_(297.00_x_210.00_MM)
  6

 40
0.0
 41
0.0
 42
0.0
 43
0.0
 44
297.0
 45
210.0
 46
0.0
 47
0.0
 48
0.0
 49
0.0
140
0.0
141
0.0
142
1.0
143
1.0
 70
0
 72
1
 73
0
 74
0
  7

 75
0
147
1.0
148
0.0
149
0.0
100
AcDbLayout
  1
Layout1
 70
0
 71
1
 10
0.0
 20
0.0
 11
297.0
 21
210.0
 12
0.0
 22
0.0
 32
0.0
 14
0.0
 24
0.0
 34
0.0
 15
0.0
 25
0.0
 35
0.0
146
0.0
 13
0.0
 23
0.0
 33
0.0
 16
1.0
 26
0.0
 36
0.0
 17
0.0
 27
1.0
 37
0.0
 76
0
330
201
345
0
346
0
  0
ENDSEC
  0
EOF
